<?xml version="1.0" encoding="UTF-8" standalone="no"?>
<!DOCTYPE svg PUBLIC "-//W3C//DTD SVG 1.1//EN" "http://www.w3.org/Graphics/SVG/1.1/DTD/svg11.dtd">
<svg xmlns="http://www.w3.org/2000/svg" version="1.1" viewBox="0.00 0.00 134.00 166.00">
<path fill="#a3e486" d="
  M 55.45 26.67
  C 56.07 27.31 56.80 27.87 56.91 28.84
  Q 57.45 33.76 55.01 37.02
  C 53.55 38.97 52.73 40.87 51.74 43.05
  C 48.77 49.54 41.02 54.14 34.06 50.56
  C 29.75 48.35 27.30 45.00 25.61 40.61
  C 24.97 38.97 23.96 37.71 22.81 36.41
  C 21.02 34.38 20.79 30.53 21.30 28.08
  Q 21.42 27.52 21.96 27.32
  Q 22.93 26.96 23.61 26.22
  A 0.96 0.95 60.5 0 0 23.84 25.38
  Q 22.99 21.26 23.27 15.92
  C 23.37 13.96 23.89 12.33 25.66 11.29
  C 28.98 9.34 30.47 6.10 34.66 5.57
  Q 43.95 4.40 50.92 8.37
  C 57.49 12.12 55.62 18.96 54.95 25.21
  Q 54.86 26.06 55.45 26.67
  Z"
/>
<path fill="#a3e486" d="
  M 73.29 43.04
  C 76.79 39.70 78.71 34.23 79.21 29.51
  Q 79.72 24.65 80.37 19.73
  Q 81.47 11.44 89.55 8.57
  Q 101.24 4.42 110.97 11.96
  C 114.41 14.62 114.95 21.96 115.11 25.96
  C 115.36 31.98 117.58 39.48 121.98 43.64
  Q 123.67 45.24 125.55 46.63
  A 0.95 0.94 -38.0 0 1 125.35 48.26
  C 119.07 50.88 112.83 49.81 106.35 47.17
  A 1.43 1.42 41.2 0 0 105.13 47.25
  Q 103.08 48.43 100.84 49.33
  C 96.70 50.99 93.58 49.21 89.78 47.35
  A 1.24 1.24 0.0 0 0 88.70 47.35
  C 82.77 50.26 76.56 51.43 70.42 48.93
  Q 69.54 48.58 69.03 47.82
  A 0.77 0.77 0.0 0 1 69.16 46.80
  Q 71.24 44.99 73.29 43.04
  Z"
/>
<path fill="#a3e486" d="
  M 74.26 137.57
  Q 91.87 131.65 110.49 135.44
  Q 115.66 136.49 119.26 138.08
  Q 123.75 140.07 127.22 142.07
  Q 128.61 142.87 128.64 144.52
  Q 128.74 151.66 128.62 158.02
  C 128.58 159.98 126.99 161.76 124.89 160.69
  C 121.35 158.87 118.02 156.92 114.14 155.85
  Q 88.47 148.80 66.95 160.86
  A 1.78 1.77 -44.0 0 1 65.17 160.83
  C 53.98 154.08 39.80 151.87 26.28 154.12
  Q 19.82 155.19 15.79 156.71
  Q 11.68 158.25 7.34 160.77
  A 2.14 2.13 -33.7 0 1 4.56 160.22
  Q 3.75 159.15 3.75 157.61
  Q 3.72 151.00 3.75 144.28
  A 2.29 2.28 -15.3 0 1 4.86 142.34
  C 10.30 139.07 15.79 136.63 22.31 135.38
  Q 39.00 132.17 55.12 136.54
  Q 56.77 136.99 58.23 137.78
  Q 58.48 137.92 58.72 137.76
  Q 58.82 137.68 58.88 137.54
  Q 58.90 137.48 58.86 137.43
  C 47.66 125.11 30.73 121.46 14.57 121.03
  Q 12.42 120.97 11.80 118.91
  Q 11.69 118.55 11.77 118.16
  Q 12.26 115.90 14.58 115.86
  Q 21.97 115.76 29.20 117.00
  Q 31.05 117.32 29.48 116.29
  C 27.41 114.94 25.20 113.97 23.27 112.28
  C 16.55 106.36 12.62 99.84 8.65 92.21
  C 4.93 85.08 2.63 73.63 6.84 66.41
  C 9.43 61.99 14.79 57.68 20.28 57.49
  C 22.90 57.39 24.93 59.55 27.06 60.80
  Q 39.81 68.22 52.31 60.42
  Q 54.33 59.16 56.31 57.75
  Q 56.84 57.37 57.50 57.44
  Q 61.77 57.88 65.55 59.83
  C 70.99 62.61 76.43 54.62 81.53 58.56
  C 91.82 66.51 103.16 65.99 113.27 58.40
  C 115.46 56.76 118.92 57.75 121.20 58.85
  C 143.41 69.52 126.38 96.92 116.33 108.98
  Q 113.37 112.54 108.85 115.02
  Q 106.33 116.40 109.20 116.24
  L 117.46 115.78
  Q 119.99 115.64 120.54 118.11
  Q 120.64 118.55 120.49 118.98
  Q 119.88 120.85 117.92 121.00
  Q 114.94 121.22 111.75 121.40
  C 98.37 122.13 83.15 126.89 73.88 136.98
  Q 72.92 138.01 74.26 137.57
  Z
  M 78.28 85.50
  C 79.83 79.31 79.95 73.61 72.76 71.42
  Q 67.16 69.71 61.96 70.51
  C 59.52 70.88 57.71 72.19 55.88 73.72
  C 51.91 77.06 53.07 81.40 53.02 85.82
  A 1.91 1.88 64.4 0 1 52.64 86.93
  C 48.71 92.16 53.70 95.60 55.41 100.03
  C 57.81 106.23 64.92 109.67 71.03 106.00
  Q 75.65 103.22 77.09 98.07
  Q 77.51 96.59 78.64 95.52
  C 81.21 93.10 81.51 88.75 78.73 86.74
  Q 78.09 86.27 78.28 85.50
  Z
  M 77.02 110.01
  C 71.45 114.29 62.21 114.56 56.30 110.99
  C 53.66 109.40 51.71 106.34 48.23 108.13
  C 44.32 110.15 41.52 114.18 40.99 118.80
  Q 40.83 120.15 42.14 120.58
  Q 52.21 123.90 59.57 131.12
  Q 62.61 134.11 65.67 137.46
  Q 66.07 137.90 66.49 137.48
  Q 69.41 134.52 72.31 131.58
  Q 79.66 124.14 89.93 120.66
  A 1.12 1.12 0.0 0 0 90.67 119.40
  C 89.68 113.88 87.53 108.37 81.14 107.72
  A 1.81 1.78 31.8 0 0 80.03 107.97
  Q 78.46 108.91 77.02 110.01
  Z
  M 9.96 154.09
  C 26.83 145.24 48.50 146.27 64.77 155.23
  A 2.78 2.77 -44.7 0 0 67.46 155.24
  C 83.60 146.40 105.37 145.06 122.19 153.94
  Q 123.24 154.50 123.25 153.30
  L 123.28 147.03
  A 1.98 1.98 0.0 0 0 122.22 145.26
  Q 103.18 135.22 81.83 140.59
  C 76.79 141.85 71.90 144.34 67.23 146.75
  A 2.62 2.61 -43.1 0 1 64.70 146.67
  C 47.89 136.61 26.86 135.97 9.75 145.56
  A 1.44 1.42 -14.6 0 0 9.01 146.81
  L 9.01 153.52
  A 0.65 0.65 0.0 0 0 9.96 154.09
  Z"
/>
</svg>
