<?xml version="1.0" encoding="UTF-8" standalone="no"?>
<!DOCTYPE svg PUBLIC "-//W3C//DTD SVG 1.1//EN" "http://www.w3.org/Graphics/SVG/1.1/DTD/svg11.dtd">
<svg xmlns="http://www.w3.org/2000/svg" version="1.1" viewBox="0.00 0.00 400.00 164.00">
<path fill="#ffc869" d="
  M 20.50 23.75
  C 19.88 19.97 18.62 12.63 21.88 9.76
  C 24.26 7.66 26.23 4.44 29.49 3.82
  C 40.21 1.80 55.30 5.44 51.60 19.89
  Q 51.06 21.96 50.92 24.03
  A 0.64 0.64 0.0 0 0 51.40 24.70
  Q 52.27 24.93 53.02 25.42
  A 1.27 1.25 14.6 0 1 53.59 26.37
  Q 53.95 30.36 52.60 33.99
  Q 52.40 34.53 51.92 34.84
  C 50.66 35.67 49.59 36.55 49.09 38.02
  C 46.48 45.86 39.42 52.82 30.76 48.76
  Q 23.45 45.33 22.07 38.18
  Q 21.69 36.23 19.91 35.32
  A 2.32 2.29 -89.7 0 1 18.88 34.27
  Q 17.20 30.76 17.75 26.37
  Q 17.86 25.54 18.64 25.24
  L 19.93 24.75
  Q 20.62 24.48 20.50 23.75
  Z"
/>
<path fill="#ffc869" d="
  M 85.23 45.29
  C 79.77 48.21 70.87 49.91 65.40 46.05
  A 0.94 0.94 0.0 0 1 65.39 44.52
  Q 70.99 40.48 74.06 34.52
  C 76.38 30.03 76.04 23.71 76.66 18.76
  Q 77.21 14.41 78.98 12.13
  Q 83.54 6.27 90.29 5.27
  C 97.76 4.17 106.20 6.51 109.46 13.72
  C 111.41 18.02 111.17 24.03 111.78 28.88
  C 112.61 35.38 116.96 40.77 122.26 44.65
  A 0.87 0.87 0.0 0 1 122.08 46.15
  C 115.71 48.81 109.12 47.92 102.86 45.03
  Q 102.18 44.71 101.56 45.15
  Q 93.97 50.55 86.31 45.35
  Q 85.79 45.00 85.23 45.29
  Z"
/>
<path fill="#ffc869" d="
  M 210.13 89.82
  Q 204.39 90.04 199.28 89.68
  Q 195.08 89.39 194.75 85.27
  Q 194.12 77.43 194.09 69.97
  Q 194.07 67.00 193.15 69.83
  C 190.70 77.32 185.45 84.57 178.34 88.37
  Q 168.17 93.81 159.39 93.23
  Q 158.78 93.19 158.74 93.80
  Q 158.01 104.02 159.03 113.74
  Q 159.84 121.47 164.64 126.20
  C 165.66 127.20 167.53 127.70 168.60 126.43
  Q 172.09 122.31 175.40 118.29
  Q 177.09 116.23 178.06 113.53
  Q 180.22 107.52 183.99 100.88
  C 186.88 95.79 192.76 95.52 195.78 100.71
  C 198.84 105.97 195.74 110.53 194.07 115.54
  C 192.67 119.77 190.68 123.68 189.45 127.88
  C 187.90 133.21 185.05 138.16 182.83 143.07
  Q 181.06 146.98 176.74 147.60
  C 167.43 148.92 157.32 144.21 149.97 138.13
  C 148.09 136.58 147.07 134.56 145.54 132.70
  C 140.26 126.28 137.97 117.13 138.01 108.08
  Q 138.18 71.53 138.01 36.54
  C 137.99 31.42 148.78 26.94 152.12 26.26
  Q 174.20 21.74 187.89 38.15
  Q 191.16 42.06 193.86 50.73
  Q 194.14 51.63 194.65 50.84
  Q 194.95 50.37 195.43 50.03
  Q 195.95 49.65 196.59 49.62
  Q 202.36 49.36 208.80 48.86
  Q 214.88 48.38 215.18 55.11
  C 215.32 58.49 213.50 60.20 210.35 60.29
  Q 206.94 60.39 203.94 60.90
  Q 203.61 60.95 203.64 61.28
  L 204.00 65.03
  Q 204.04 65.51 204.51 65.45
  C 208.86 64.98 215.44 64.39 214.41 71.16
  C 213.85 74.84 206.63 74.55 203.98 74.41
  A 0.48 0.48 0.0 0 0 203.47 74.96
  L 204.01 78.55
  Q 204.10 79.11 204.66 79.08
  C 206.66 78.99 208.65 79.02 210.64 78.94
  Q 215.83 78.71 216.17 84.06
  Q 216.34 86.77 214.18 88.33
  A 0.28 0.28 0.0 0 0 214.11 88.72
  L 214.26 88.94
  Q 214.31 89.00 214.37 88.96
  Q 216.33 87.76 218.29 87.80
  C 221.94 87.88 222.81 92.18 220.12 94.43
  Q 216.90 97.12 213.16 98.62
  C 211.09 99.44 206.48 99.48 206.50 96.25
  Q 206.52 93.34 210.43 90.76
  Q 211.96 89.76 210.13 89.82
  Z
  M 157.34 47.50
  L 158.67 72.95
  Q 158.69 73.43 159.17 73.51
  Q 165.23 74.47 171.03 71.82
  Q 172.89 70.97 173.62 69.04
  Q 176.00 62.72 173.36 57.35
  Q 171.30 53.15 168.43 50.50
  Q 165.15 47.47 157.84 47.02
  Q 157.32 46.98 157.34 47.50
  Z"
/>
<path fill="#ffc869" d="
  M 252.89 72.88
  Q 254.01 75.53 253.93 72.65
  Q 253.84 69.25 252.95 65.71
  A 1.84 1.84 0.0 0 0 251.20 64.31
  C 246.54 64.18 241.35 63.99 239.40 58.86
  C 238.35 56.11 241.00 53.11 243.26 52.10
  Q 249.25 49.44 255.53 52.72
  C 267.49 58.96 265.71 72.35 262.74 83.02
  Q 262.46 84.04 261.88 84.81
  A 1.07 1.07 0.0 0 0 261.93 86.15
  Q 263.29 87.73 265.04 88.87
  C 270.77 92.59 262.28 96.27 259.69 97.52
  C 256.68 98.96 254.09 95.61 253.05 93.30
  A 0.63 0.62 68.1 0 0 252.27 92.96
  Q 243.53 96.09 235.31 91.83
  C 232.15 90.20 229.12 86.57 226.34 83.91
  C 219.83 77.68 218.34 66.25 219.33 57.73
  C 219.83 53.34 222.12 49.65 224.39 46.02
  Q 232.98 32.22 250.56 34.96
  C 254.55 35.59 257.07 39.05 254.84 42.75
  C 253.44 45.08 251.57 47.44 248.50 46.60
  C 244.24 45.42 239.39 48.48 236.97 51.77
  C 235.12 54.29 232.36 56.98 231.84 60.09
  C 230.98 65.17 231.04 74.43 236.05 77.86
  Q 240.16 80.66 243.52 81.87
  Q 245.95 82.75 244.52 80.60
  C 243.10 78.49 240.63 76.98 240.62 74.20
  C 240.60 66.75 250.56 67.43 252.89 72.88
  Z"
/>
<path fill="#ffc869" d="
  M 359.31 75.09
  Q 358.86 75.91 358.95 76.98
  Q 359.35 81.89 359.76 86.68
  C 360.06 90.33 358.25 94.18 354.29 94.58
  Q 349.34 95.07 347.17 91.14
  Q 343.47 84.41 340.01 78.14
  Q 339.03 76.37 338.97 78.39
  Q 338.83 83.15 338.75 88.52
  Q 338.70 91.39 337.12 93.54
  Q 336.59 94.25 337.45 94.46
  C 340.78 95.24 342.28 97.74 341.99 101.06
  C 341.69 104.41 342.17 107.66 341.85 111.08
  Q 341.00 120.14 342.38 130.61
  C 342.78 133.65 346.73 133.01 348.90 133.02
  A 1.32 1.30 -22.1 0 1 349.79 133.39
  C 353.35 136.94 353.29 142.32 347.55 143.25
  Q 343.89 143.85 339.48 144.05
  Q 337.06 144.16 335.18 142.71
  Q 330.18 138.85 330.37 132.30
  Q 330.68 121.40 330.26 109.76
  C 330.14 106.32 330.66 102.90 330.89 99.49
  Q 330.99 97.99 331.90 96.75
  A 0.52 0.52 0.0 0 0 331.55 95.92
  C 328.87 95.56 326.64 93.57 326.87 90.78
  Q 328.42 72.10 328.11 53.93
  Q 328.06 50.63 329.59 47.99
  C 331.37 44.93 335.91 45.58 337.39 48.49
  Q 342.47 58.46 346.95 68.15
  Q 348.01 70.45 347.99 67.92
  Q 347.96 62.41 347.53 56.75
  C 347.18 52.07 348.78 45.58 355.15 46.86
  C 357.49 47.33 358.27 49.70 358.40 51.82
  Q 358.89 59.80 359.02 67.42
  Q 359.02 67.48 359.08 67.48
  L 359.33 67.49
  Q 359.66 67.51 359.69 67.18
  Q 360.42 59.35 365.63 52.41
  C 367.79 49.53 371.29 46.61 375.09 46.58
  C 380.34 46.54 386.88 47.55 390.58 51.58
  C 393.67 54.96 396.64 58.00 397.73 62.71
  Q 399.88 72.00 397.04 82.28
  C 395.93 86.29 392.58 89.66 389.70 92.31
  C 385.54 96.11 379.06 95.81 373.67 94.44
  C 365.17 92.28 360.57 83.18 359.67 75.16
  Q 359.60 74.55 359.31 75.09
  Z
  M 379.78 82.90
  Q 382.47 82.36 383.26 79.95
  C 384.71 75.49 386.60 63.86 379.03 63.73
  C 374.25 63.65 371.60 73.35 372.60 76.93
  C 373.48 80.09 376.06 83.63 379.78 82.90
  Z"
/>
<path fill="#ffc869" d="
  M 299.18 76.97
  C 298.47 82.32 296.74 86.64 293.19 90.90
  C 289.68 95.09 280.52 94.93 275.90 93.09
  Q 273.39 92.08 271.57 89.40
  C 266.32 81.71 266.25 72.68 265.62 63.70
  Q 265.20 57.75 266.31 51.96
  Q 266.67 50.06 268.33 48.87
  C 272.07 46.17 275.40 50.60 275.46 53.96
  Q 275.61 63.30 276.50 73.43
  C 276.73 76.08 278.06 81.51 281.45 82.01
  C 287.54 82.92 289.35 77.21 289.71 72.50
  Q 290.41 63.31 290.80 53.81
  C 290.91 51.36 292.94 47.18 296.15 48.14
  Q 298.77 48.92 299.44 51.17
  Q 300.90 56.14 300.47 63.50
  Q 300.07 70.22 299.18 76.97
  Z"
/>
<path fill="#ffc869" d="
  M 314.42 80.51
  C 318.17 80.24 324.32 79.49 324.98 84.83
  C 325.67 90.38 320.01 91.59 315.87 91.50
  Q 311.74 91.42 307.66 91.11
  C 304.17 90.85 303.63 87.71 303.31 84.90
  Q 302.35 76.45 302.68 69.26
  C 302.86 65.29 302.51 61.37 302.36 57.47
  C 302.26 54.92 304.26 51.26 307.33 51.06
  Q 312.87 50.71 317.61 50.39
  Q 321.80 50.10 323.22 53.39
  C 326.29 60.52 320.46 62.87 314.73 63.25
  Q 313.86 63.30 313.78 64.18
  L 313.59 66.22
  A 0.62 0.62 0.0 0 0 314.29 66.90
  C 318.15 66.38 322.70 66.34 323.13 71.27
  C 323.40 74.46 321.10 76.94 317.92 77.17
  Q 316.24 77.29 314.62 77.56
  Q 313.78 77.70 313.79 78.54
  L 313.81 79.95
  Q 313.82 80.55 314.42 80.51
  Z"
/>
<path fill="#ffc869" d="
  M 26.07 115.06
  Q 15.76 107.91 8.20 96.65
  Q 2.32 87.90 1.37 77.05
  C 0.87 71.32 1.47 64.67 5.85 60.57
  Q 11.24 55.51 18.11 56.06
  C 20.96 56.29 22.74 58.73 25.25 59.90
  C 34.46 64.19 42.43 62.59 50.41 57.20
  C 53.97 54.79 59.27 56.43 62.91 58.04
  C 64.19 58.60 65.65 58.44 66.90 57.88
  C 70.40 56.31 75.73 54.83 79.19 57.29
  C 88.60 64.00 99.09 64.15 108.64 56.96
  C 111.70 54.66 118.03 56.63 120.89 58.49
  Q 127.59 62.86 128.00 70.61
  C 128.39 78.00 127.08 84.70 123.67 91.29
  C 118.81 100.64 112.37 107.60 104.27 114.19
  Q 103.09 115.16 104.59 114.92
  Q 109.39 114.16 114.71 114.35
  A 2.68 2.67 86.6 0 1 117.27 116.63
  Q 117.33 117.03 117.23 117.43
  Q 116.78 119.27 114.88 119.28
  Q 109.41 119.30 103.75 119.85
  C 91.49 121.03 77.95 126.20 69.83 135.47
  Q 68.77 136.68 70.28 136.12
  Q 89.53 129.00 108.07 133.97
  C 113.60 135.45 118.83 137.93 124.04 140.27
  A 1.84 1.83 -78.2 0 1 125.12 141.93
  Q 125.15 149.18 125.09 156.77
  Q 125.07 159.23 123.14 159.40
  Q 122.09 159.49 120.49 158.63
  Q 91.88 143.16 63.41 159.28
  Q 62.73 159.66 62.04 159.32
  C 58.89 157.75 55.69 156.06 52.29 154.78
  Q 27.93 145.60 3.67 159.15
  C 1.81 160.19 0.49 158.31 0.49 156.66
  Q 0.49 149.15 0.49 142.08
  Q 0.49 140.75 1.70 140.12
  C 18.42 131.46 36.58 129.05 53.99 135.91
  Q 57.20 137.18 54.73 134.77
  C 49.70 129.86 43.67 125.76 37.13 123.42
  Q 24.81 119.00 10.03 119.34
  A 1.89 1.88 -19.2 0 1 8.49 118.60
  Q 7.79 117.68 7.94 116.72
  Q 8.33 114.23 10.84 114.25
  Q 18.54 114.31 25.86 115.57
  Q 27.12 115.78 26.07 115.06
  Z
  M 74.86 83.70
  C 76.20 78.10 76.67 72.63 70.32 69.99
  Q 63.69 67.24 57.25 68.77
  C 54.69 69.38 53.26 71.61 51.21 73.08
  C 48.41 75.09 49.04 80.20 49.23 83.18
  Q 49.28 83.92 48.88 84.54
  Q 45.85 89.27 48.66 93.31
  Q 50.04 95.30 51.27 97.51
  C 57.58 108.80 68.36 107.45 73.45 96.65
  Q 74.25 94.96 75.41 93.79
  Q 77.83 91.35 77.05 86.59
  Q 76.92 85.79 76.22 85.38
  L 75.36 84.87
  A 1.07 1.07 0.0 0 1 74.86 83.70
  Z
  M 76.12 106.08
  C 67.71 112.96 56.90 113.31 48.75 106.27
  C 47.26 104.98 45.34 105.46 43.87 106.46
  Q 38.29 110.26 37.57 117.83
  Q 37.52 118.40 38.06 118.58
  Q 53.09 123.39 62.52 136.03
  A 0.54 0.54 0.0 0 0 63.44 135.94
  C 67.41 127.82 78.72 121.22 86.51 118.89
  Q 87.08 118.72 86.91 118.16
  Q 86.21 115.77 85.72 113.00
  C 84.93 108.58 81.52 105.50 77.07 105.71
  A 1.69 1.63 -65.4 0 0 76.12 106.08
  Z
  M 63.20 153.58
  C 80.19 143.72 101.29 143.57 119.29 152.16
  Q 119.97 152.48 119.97 151.73
  L 119.98 144.55
  Q 119.98 143.89 119.40 143.57
  Q 115.77 141.60 112.33 140.43
  Q 93.48 134.01 73.20 140.25
  Q 68.39 141.72 63.86 144.65
  A 2.15 2.14 43.5 0 1 61.62 144.70
  C 54.43 140.50 46.88 138.51 38.70 137.50
  Q 27.73 136.14 14.03 140.03
  Q 9.63 141.27 5.32 143.85
  A 0.35 0.34 75.0 0 0 5.15 144.15
  L 5.18 152.07
  A 0.21 0.20 -13.0 0 0 5.48 152.25
  Q 34.46 138.92 62.33 153.60
  A 0.90 0.90 0.0 0 0 63.20 153.58
  Z"
/>
<path fill="#ffc869" d="
  M 328.71 100.13
  C 329.57 108.57 328.96 117.19 327.51 125.68
  C 326.86 129.47 323.81 137.75 319.58 139.32
  Q 312.94 141.77 306.00 139.83
  Q 302.72 138.90 300.89 136.43
  Q 297.44 131.75 296.51 126.56
  Q 293.97 112.42 295.00 100.49
  C 295.70 92.44 305.10 93.74 305.38 101.20
  Q 305.82 112.74 307.01 123.49
  Q 307.22 125.40 309.04 126.45
  Q 313.04 128.75 315.76 125.54
  Q 317.16 123.88 317.48 120.54
  Q 318.46 110.20 318.70 101.45
  C 318.80 97.67 322.66 92.71 326.65 95.97
  Q 328.43 97.42 328.71 100.13
  Z"
/>
<path fill="#ffc869" d="
  M 384.58 132.19
  C 382.69 136.70 380.28 138.95 376.74 141.72
  C 373.73 144.08 368.20 143.84 364.51 143.26
  Q 357.22 142.11 354.03 137.90
  Q 352.43 135.78 350.78 132.20
  C 347.28 124.63 347.35 117.49 350.19 109.02
  C 352.20 103.02 354.20 98.94 359.79 96.41
  C 364.33 94.34 371.21 95.85 375.60 97.61
  C 377.91 98.54 381.39 102.33 382.70 104.50
  Q 390.65 117.69 384.58 132.19
  Z
  M 366.4267 131.9159
  A 9.72 6.34 94.8 0 0 373.5578 122.7605
  A 9.72 6.34 94.8 0 0 368.0533 112.5441
  A 9.72 6.34 94.8 0 0 360.9222 121.6995
  A 9.72 6.34 94.8 0 0 366.4267 131.9159
  Z"
/>
<path fill="#ffc869" d="
  M 233.06 127.86
  Q 233.08 133.27 232.77 138.82
  Q 232.34 146.68 225.46 145.32
  Q 220.72 144.38 221.09 138.96
  Q 222.08 124.61 222.37 113.33
  C 222.47 109.41 221.93 105.36 222.31 101.44
  C 222.62 98.34 224.95 94.84 228.53 95.67
  Q 230.96 96.23 232.07 98.53
  Q 236.64 108.05 241.14 117.88
  Q 241.30 118.23 241.69 118.21
  Q 241.74 118.21 241.79 118.18
  Q 242.07 118.02 242.07 117.70
  Q 242.00 110.99 241.74 104.42
  Q 241.45 96.86 248.33 96.60
  Q 252.46 96.45 252.68 100.75
  Q 253.13 109.68 252.99 120.09
  C 252.92 125.50 253.59 130.79 253.85 136.24
  C 253.98 138.76 253.15 144.62 249.83 145.05
  C 247.75 145.31 245.41 144.98 243.86 143.38
  Q 241.32 140.76 239.83 137.93
  Q 237.04 132.64 234.07 127.58
  Q 233.06 125.87 233.06 127.86
  Z"
/>
<path fill="#ffc869" d="
  M 281.44 109.48
  C 274.24 106.02 269.74 110.86 267.02 116.98
  Q 265.73 119.88 266.94 123.26
  C 268.69 128.15 273.33 133.30 279.01 131.78
  Q 283.79 130.50 288.33 128.38
  C 291.15 127.06 293.58 128.64 293.95 131.61
  Q 294.77 138.20 288.34 140.57
  Q 283.32 142.41 276.88 142.91
  Q 271.50 143.33 266.38 140.67
  Q 260.75 137.75 256.87 131.76
  C 254.44 128.01 253.87 121.27 254.68 117.04
  Q 255.44 113.04 256.89 108.38
  C 258.23 104.04 262.38 100.55 266.27 99.00
  C 272.61 96.46 278.80 95.50 285.50 97.73
  C 289.24 98.97 293.13 102.08 293.19 106.32
  Q 293.23 109.14 291.17 110.46
  C 288.04 112.47 284.49 110.94 281.44 109.48
  Z"
/>
<rect fill="#ffc869" x="-7.44" y="-22.60" transform="translate(207.56,122.29) rotate(0.1)" width="14.88" height="45.20" rx="6.02"/>
</svg>
