<?xml version="1.0" encoding="UTF-8" standalone="no"?>
<!DOCTYPE svg PUBLIC "-//W3C//DTD SVG 1.1//EN" "http://www.w3.org/Graphics/SVG/1.1/DTD/svg11.dtd">
<svg xmlns="http://www.w3.org/2000/svg" version="1.1" viewBox="0.00 0.00 270.00 356.00">
<path fill="#ddc1fc" d="
  M 117.07 31.66
  C 118.67 32.50 120.58 32.97 120.60 35.21
  C 120.65 39.22 120.47 43.92 117.59 46.85
  C 115.66 48.80 114.15 50.82 113.27 53.47
  Q 110.02 63.25 98.90 67.85
  C 93.06 70.27 85.75 67.72 81.48 63.76
  C 78.93 61.38 76.10 58.46 74.98 55.12
  C 73.86 51.81 72.44 49.07 70.01 46.83
  C 67.44 44.47 67.01 38.88 67.05 35.47
  C 67.08 32.30 69.46 32.93 71.14 31.42
  Q 71.56 31.04 71.45 30.49
  Q 69.85 22.76 70.76 14.13
  Q 71.01 11.74 72.92 10.23
  C 74.94 8.64 76.92 7.47 78.57 5.35
  C 81.04 2.20 83.19 0.90 87.52 0.45
  Q 97.99 -0.65 106.43 2.50
  Q 113.39 5.10 115.74 9.42
  C 119.89 17.04 117.92 22.80 116.47 30.42
  Q 116.31 31.26 117.07 31.66
  Z"
/>
<path fill="#ddc1fc" d="
  M 143.07 57.21
  C 148.92 50.75 152.86 43.23 153.30 34.47
  Q 153.64 27.59 154.71 21.15
  Q 155.89 13.95 161.02 9.46
  Q 170.90 0.78 185.23 3.26
  C 192.40 4.50 200.85 9.17 203.38 16.56
  C 205.54 22.85 205.22 29.24 205.82 35.69
  Q 207.23 50.69 218.93 59.55
  Q 220.15 60.48 221.33 61.35
  Q 222.66 62.35 221.16 63.06
  C 212.33 67.28 201.88 65.76 193.18 61.85
  A 3.02 3.00 41.0 0 0 190.35 62.04
  Q 188.05 63.48 185.61 64.64
  C 180.07 67.26 173.54 65.47 168.75 62.05
  A 1.97 1.96 47.8 0 0 166.65 61.94
  C 158.83 66.36 145.80 68.74 137.89 62.89
  A 1.02 1.02 0.0 0 1 138.01 61.17
  Q 140.94 59.56 143.07 57.21
  Z"
/>
<path fill="#ddc1fc" d="
  M 194.73 163.55
  Q 193.37 164.66 195.12 164.51
  Q 204.30 163.72 211.25 164.01
  A 2.57 2.56 78.2 0 1 213.46 165.46
  Q 213.95 166.49 213.86 167.53
  Q 213.58 170.81 210.29 170.91
  Q 204.48 171.08 198.67 171.57
  Q 173.74 173.67 154.07 186.29
  Q 148.47 189.89 144.55 194.35
  Q 142.61 196.56 145.37 195.55
  Q 186.30 180.65 223.94 202.45
  Q 225.62 203.42 225.62 205.35
  Q 225.63 215.45 225.65 225.78
  C 225.65 227.91 224.49 229.86 222.14 229.84
  Q 221.07 229.84 219.23 228.99
  Q 206.69 223.22 203.00 222.07
  C 182.17 215.57 161.36 217.09 141.77 226.46
  Q 138.13 228.21 134.64 229.65
  A 2.91 2.88 -44.1 0 1 132.40 229.63
  C 125.79 226.75 119.64 223.38 112.67 221.43
  Q 86.22 214.05 62.55 222.76
  Q 55.54 225.35 47.89 229.10
  C 44.98 230.54 41.56 229.88 41.53 226.05
  Q 41.45 215.34 41.55 205.60
  Q 41.57 203.52 43.33 202.47
  C 67.17 188.22 95.58 185.54 121.52 195.56
  Q 122.02 195.75 122.56 195.73
  Q 123.80 195.70 122.98 194.76
  Q 118.13 189.24 112.27 185.77
  C 106.36 182.28 100.44 178.97 93.74 176.80
  Q 75.84 171.02 57.42 171.01
  Q 54.00 171.01 53.28 167.66
  Q 53.18 167.18 53.30 166.69
  Q 53.92 164.11 56.58 164.01
  Q 62.54 163.79 70.73 164.32
  C 73.73 164.52 76.73 165.29 79.70 165.22
  Q 81.53 165.18 79.91 164.33
  Q 70.40 159.35 63.03 150.40
  Q 58.38 144.74 54.68 139.20
  C 49.36 131.25 44.56 121.08 43.23 111.61
  C 40.91 95.09 46.18 82.39 63.75 78.05
  C 66.17 77.45 68.48 77.60 70.62 79.05
  Q 75.54 82.39 81.33 84.85
  C 93.72 90.12 106.06 86.67 117.04 79.33
  C 121.94 76.05 127.39 78.95 132.15 80.88
  C 135.85 82.38 139.72 81.93 143.20 80.11
  C 146.66 78.29 152.52 76.59 156.07 79.07
  C 164.69 85.10 174.06 88.79 184.81 86.89
  Q 193.12 85.42 203.97 78.52
  C 207.43 76.33 214.19 79.39 217.49 80.94
  C 225.23 84.58 228.80 91.24 230.00 99.40
  Q 230.75 104.49 229.47 111.40
  Q 226.35 128.19 216.23 141.88
  Q 210.80 149.22 204.54 155.81
  C 201.50 159.01 198.02 160.84 194.73 163.55
  Z
  M 152.33 120.70
  A 1.39 1.39 0.0 0 1 151.60 119.07
  C 154.01 110.36 154.42 102.93 144.95 98.60
  Q 135.43 94.24 124.66 97.03
  A 4.12 4.12 0.0 0 0 122.63 98.26
  Q 120.05 101.08 116.67 103.12
  Q 114.61 104.37 114.29 106.92
  Q 113.56 112.70 114.30 118.71
  A 1.69 1.63 -35.4 0 1 114.11 119.72
  C 113.37 121.12 112.11 122.02 111.71 123.62
  Q 110.19 129.71 114.02 133.94
  Q 115.35 135.42 116.19 137.37
  C 118.36 142.41 122.85 148.32 128.07 150.04
  C 138.91 153.61 146.99 145.26 150.49 135.76
  A 3.12 3.09 82.0 0 1 151.55 134.34
  Q 155.71 131.23 155.06 123.87
  C 154.93 122.30 153.63 121.35 152.33 120.70
  Z
  M 147.05 156.05
  C 135.33 162.52 123.11 159.99 112.99 151.79
  Q 111.25 150.38 109.04 151.00
  C 101.24 153.19 97.59 161.40 96.51 168.66
  Q 96.39 169.52 97.20 169.82
  Q 112.77 175.52 124.44 185.80
  C 127.76 188.72 130.35 191.93 132.90 195.47
  A 0.93 0.92 44.4 0 0 134.41 195.46
  C 142.62 183.70 155.39 175.33 168.80 170.27
  Q 169.95 169.84 169.63 168.66
  Q 168.14 163.19 165.97 158.03
  Q 163.76 152.80 157.39 151.19
  Q 155.21 150.64 153.50 151.91
  Q 150.33 154.24 147.05 156.05
  Z
  M 134.65 221.59
  C 159.89 207.56 190.88 206.41 216.89 219.60
  A 0.91 0.91 0.0 0 0 218.21 218.77
  L 218.04 208.42
  A 1.45 1.45 0.0 0 0 217.10 207.08
  C 212.60 205.35 207.87 202.78 203.69 201.46
  Q 176.22 192.73 149.49 202.32
  C 145.06 203.91 139.67 206.74 134.69 208.75
  A 3.15 3.13 45.7 0 1 132.24 208.71
  C 127.10 206.41 121.45 203.58 116.53 201.91
  Q 93.47 194.10 70.00 199.65
  C 62.88 201.34 56.58 204.36 49.91 207.15
  A 1.14 1.12 -11.3 0 0 49.22 208.17
  L 49.07 218.79
  A 0.84 0.84 0.0 0 0 50.28 219.56
  C 76.41 206.87 106.96 207.23 132.45 221.58
  A 2.26 2.25 45.1 0 0 134.65 221.59
  Z"
/>
<path fill="#ddc1fc" d="
  M 81.92 294.98
  Q 80.64 296.84 82.77 296.08
  C 88.04 294.20 90.95 299.24 86.50 302.58
  Q 83.32 304.98 80.02 306.73
  Q 76.17 308.78 73.80 305.24
  C 71.98 302.51 75.84 300.10 77.45 298.67
  Q 79.31 297.02 76.85 297.38
  Q 71.17 298.21 64.83 296.91
  Q 62.10 296.35 61.77 293.69
  Q 60.81 286.07 61.59 276.95
  A 0.31 0.29 -81.0 0 0 61.37 276.63
  L 61.09 276.55
  A 0.53 0.53 0.0 0 0 60.43 276.91
  Q 57.26 287.41 48.73 293.59
  Q 37.90 301.42 26.16 300.86
  A 0.96 0.96 0.0 0 0 25.16 301.75
  Q 24.43 311.65 25.44 320.84
  C 26.06 326.51 27.66 332.16 32.64 335.00
  A 2.01 2.01 0.0 0 0 34.89 334.81
  C 36.90 333.18 38.90 331.49 40.20 329.18
  C 41.54 326.81 43.43 324.88 44.39 322.29
  C 46.11 317.71 51.84 302.40 58.63 304.84
  Q 60.37 305.46 61.56 307.32
  C 63.47 310.28 64.80 312.85 63.40 316.48
  C 61.55 321.27 60.62 326.18 58.63 330.87
  Q 54.37 340.91 49.96 350.71
  C 48.56 353.83 45.78 355.62 42.29 355.68
  Q 32.20 355.87 23.03 351.16
  C 19.97 349.58 17.14 346.39 14.71 343.80
  Q 4.53 332.92 4.51 317.54
  Q 4.48 282.29 4.52 243.94
  Q 4.52 241.38 6.54 239.73
  C 18.27 230.14 36.54 230.02 48.37 239.47
  Q 52.81 243.01 56.98 248.69
  Q 60.02 252.83 60.58 257.49
  Q 60.66 258.11 61.26 257.92
  C 62.22 257.62 63.03 257.19 64.05 257.10
  Q 69.86 256.58 76.73 256.27
  C 81.20 256.08 81.52 258.70 82.03 262.03
  C 82.54 265.30 81.76 267.93 78.00 268.12
  Q 74.79 268.28 71.76 268.51
  Q 70.18 268.63 70.41 270.19
  L 70.60 271.54
  Q 70.83 273.16 72.46 273.01
  Q 74.97 272.78 77.33 272.85
  C 81.36 272.96 81.54 275.68 81.37 278.85
  Q 81.25 281.16 78.72 281.53
  Q 74.94 282.07 71.76 282.01
  Q 69.95 281.97 70.30 283.75
  L 70.70 285.78
  Q 71.00 287.26 72.50 287.20
  C 76.43 287.03 82.78 285.55 83.05 291.79
  C 83.10 293.03 82.61 294.00 81.92 294.98
  Z
  M 23.79 255.31
  Q 25.00 269.17 24.94 280.44
  Q 24.94 281.14 25.63 281.23
  Q 32.70 282.21 38.88 279.05
  Q 39.48 278.75 39.76 278.14
  Q 41.93 273.46 41.41 269.66
  C 40.13 260.36 34.71 254.77 24.60 254.45
  A 0.79 0.79 0.0 0 0 23.79 255.31
  Z"
/>
<path fill="#ddc1fc" d="
  M 120.84 281.31
  A 0.52 0.52 0.0 0 0 121.78 281.00
  Q 121.86 277.24 120.74 273.51
  A 2.56 2.55 -10.6 0 0 118.08 271.70
  Q 112.97 272.15 108.93 269.64
  C 105.54 267.53 105.75 263.24 108.59 260.85
  Q 112.30 257.72 117.72 258.41
  C 128.56 259.79 133.70 271.53 131.78 281.51
  C 131.06 285.26 131.19 289.13 129.08 292.52
  A 1.16 1.15 -53.3 0 0 129.29 293.98
  L 133.82 298.12
  A 1.98 1.98 0.0 0 1 133.72 301.14
  Q 130.65 303.57 126.67 305.35
  C 123.76 306.65 122.06 303.12 120.75 301.17
  A 1.33 1.32 63.5 0 0 119.22 300.65
  C 107.54 304.68 101.00 299.05 93.30 291.50
  Q 90.58 288.84 89.30 285.91
  C 85.82 277.98 84.41 266.69 88.49 258.56
  Q 91.66 252.25 95.03 248.99
  Q 98.47 245.67 105.48 242.94
  C 109.51 241.37 116.94 241.17 120.71 243.53
  C 125.98 246.83 121.39 254.80 115.99 253.93
  Q 108.63 252.73 102.97 260.62
  Q 95.45 271.11 101.08 282.75
  Q 102.24 285.15 103.89 286.40
  C 105.84 287.88 108.94 289.97 111.54 289.92
  A 0.60 0.60 0.0 0 0 111.99 288.95
  C 109.61 285.88 105.77 282.44 108.98 278.24
  Q 110.26 276.57 112.47 276.34
  C 117.01 275.86 118.40 278.16 120.84 281.31
  Z"
/>
<path fill="#ddc1fc" d="
  M 226.87 284.73
  Q 227.54 290.06 227.54 296.39
  Q 227.54 301.28 223.13 302.12
  C 218.86 302.94 216.33 301.38 214.43 297.72
  Q 211.30 291.67 207.65 285.84
  Q 207.49 285.58 207.17 285.54
  A 0.55 0.55 0.0 0 0 206.56 286.12
  Q 206.90 291.93 206.45 297.88
  C 206.35 299.19 205.83 300.02 205.48 301.22
  Q 205.32 301.80 205.81 302.13
  C 208.06 303.64 209.81 304.48 209.74 307.60
  C 209.64 311.84 210.02 315.77 209.61 320.09
  Q 208.75 329.16 210.24 338.76
  C 210.50 340.44 212.53 341.12 213.99 340.96
  Q 219.74 340.33 219.92 347.00
  C 220.08 352.60 213.21 352.02 209.30 352.39
  C 201.80 353.11 198.11 347.17 198.27 340.50
  C 198.46 332.77 198.65 325.47 198.32 317.92
  Q 198.04 311.30 199.42 304.49
  A 0.78 0.77 14.4 0 0 198.89 303.61
  Q 196.57 302.90 195.20 301.12
  Q 194.81 300.60 194.77 299.94
  C 194.61 297.02 195.19 294.21 195.29 291.28
  C 195.61 281.58 196.43 271.54 195.71 261.75
  Q 195.65 260.98 196.38 258.10
  C 196.90 256.06 197.46 254.36 199.69 253.73
  C 202.58 252.90 204.73 254.10 205.97 256.89
  Q 210.16 266.32 214.98 276.22
  A 0.50 0.50 0.0 0 0 215.69 276.43
  Q 216.11 276.16 216.09 275.73
  Q 215.79 269.66 215.47 264.11
  C 215.17 259.08 217.28 252.15 224.01 254.54
  Q 226.74 255.51 226.83 260.21
  Q 226.93 265.66 227.14 271.46
  Q 227.24 274.02 228.11 271.61
  Q 229.60 267.45 231.38 263.57
  C 233.17 259.69 237.98 254.10 242.82 254.00
  C 247.37 253.90 252.18 254.52 256.01 256.78
  C 259.89 259.08 263.69 264.70 265.61 268.79
  Q 267.25 272.27 267.45 277.12
  Q 268.07 291.78 257.49 300.25
  C 252.45 304.28 244.49 303.34 238.70 301.01
  C 233.04 298.74 229.56 291.26 228.11 285.64
  Q 227.94 284.96 227.44 284.45
  Q 226.75 283.75 226.87 284.73
  Z
  M 251.91 286.89
  C 252.75 282.48 254.40 273.64 249.02 271.48
  C 241.21 268.34 235.67 289.81 246.63 290.53
  Q 251.16 290.83 251.91 286.89
  Z"
/>
<path fill="#ddc1fc" d="
  M 149.83 290.00
  C 155.14 290.27 156.43 286.02 156.92 281.86
  Q 158.07 272.03 158.40 261.46
  Q 158.50 258.26 160.84 256.34
  C 163.52 254.12 166.56 256.40 167.10 259.32
  Q 168.11 264.83 167.72 272.21
  Q 167.31 280.24 166.51 286.20
  C 166.05 289.61 164.80 293.44 162.91 296.28
  Q 158.34 303.12 147.53 301.83
  C 139.28 300.85 135.11 292.37 134.31 284.88
  Q 133.42 276.69 132.96 268.67
  Q 132.67 263.59 133.82 259.01
  C 134.48 256.39 137.57 254.62 140.07 256.05
  Q 143.20 257.83 143.27 261.63
  Q 143.45 271.34 143.99 280.66
  Q 144.23 284.60 145.87 288.10
  C 146.63 289.73 148.25 289.92 149.83 290.00
  Z"
/>
<path fill="#ddc1fc" d="
  M 181.22 287.06
  Q 181.12 287.70 181.73 288.33
  A 1.24 1.22 63.1 0 0 182.78 288.68
  C 185.63 288.26 190.63 287.94 192.19 290.96
  C 194.27 294.97 191.20 298.43 187.07 298.88
  Q 181.26 299.51 174.40 298.52
  C 172.36 298.23 171.48 296.34 171.22 294.53
  Q 169.84 285.14 170.39 275.31
  C 170.58 271.92 170.20 268.47 170.13 265.09
  C 170.06 262.27 171.66 258.85 174.80 258.51
  Q 181.95 257.73 187.22 258.02
  Q 189.61 258.14 190.65 260.35
  C 191.74 262.67 192.88 267.02 190.00 268.53
  Q 186.63 270.30 182.84 270.72
  Q 181.23 270.91 180.99 272.50
  Q 180.96 272.72 181.00 272.93
  Q 181.29 274.59 182.96 274.39
  C 186.19 274.00 190.39 274.09 190.88 278.35
  C 191.27 281.78 189.17 284.39 185.80 284.80
  Q 184.27 284.99 182.80 285.34
  Q 181.43 285.67 181.22 287.06
  Z"
/>
<path fill="#ddc1fc" d="
  M 184.05 333.41
  Q 185.37 332.00 185.59 329.05
  Q 186.34 318.81 186.62 308.32
  Q 186.69 305.78 189.31 303.58
  C 192.11 301.24 195.28 303.48 195.97 306.54
  Q 197.45 313.01 196.98 318.39
  Q 196.34 325.63 195.21 333.35
  C 194.35 339.19 190.72 347.49 184.33 348.72
  C 171.65 351.16 165.56 344.23 164.25 332.94
  C 163.22 324.14 161.92 315.53 163.47 306.87
  C 164.74 299.84 172.53 302.56 172.79 308.02
  Q 173.30 318.56 174.25 329.26
  C 174.43 331.25 174.80 333.42 176.67 334.48
  Q 180.82 336.84 184.05 333.41
  Z"
/>
<path fill="#ddc1fc" d="
  M 232.29 303.15
  C 236.48 303.25 244.26 304.28 247.08 307.88
  C 248.53 309.73 250.22 311.18 251.36 313.26
  Q 257.23 324.05 254.56 334.55
  C 252.95 340.87 248.34 350.48 241.56 351.67
  C 235.46 352.74 227.35 351.96 223.21 347.30
  Q 220.67 344.43 218.06 338.50
  C 214.35 330.06 216.22 321.55 219.46 313.41
  C 221.23 308.96 226.76 303.02 232.29 303.15
  Z
  M 234.5145 339.9969
  A 9.83 6.42 94.7 0 0 241.7184 330.7260
  A 9.83 6.42 94.7 0 0 236.1255 320.4031
  A 9.83 6.42 94.7 0 0 228.9216 329.6740
  A 9.83 6.42 94.7 0 0 234.5145 339.9969
  Z"
/>
<path fill="#ddc1fc" d="
  M 108.77 325.98
  A 0.50 0.50 0.0 0 0 109.52 325.50
  C 109.10 321.46 109.08 317.50 108.86 313.47
  Q 108.69 310.38 109.76 307.87
  C 111.10 304.76 116.18 302.94 118.74 305.53
  Q 120.42 307.22 120.50 309.97
  Q 120.82 320.29 120.72 331.43
  C 120.67 336.59 121.63 341.73 121.44 346.85
  C 121.32 350.11 119.99 353.01 116.24 353.17
  C 110.33 353.42 109.05 349.79 106.20 344.48
  Q 103.86 340.12 101.55 335.76
  A 0.49 0.49 0.0 0 0 100.80 335.61
  Q 100.42 335.94 100.44 336.48
  Q 100.65 342.05 100.41 347.49
  C 100.31 349.75 99.43 352.04 97.15 352.96
  C 93.73 354.35 87.79 353.45 88.11 348.50
  Q 88.95 335.26 89.40 322.00
  Q 89.56 317.43 89.25 312.11
  C 89.06 308.90 90.40 302.66 95.20 303.42
  Q 98.54 303.95 99.99 307.29
  Q 103.76 315.99 107.60 324.65
  Q 107.98 325.49 108.77 325.98
  Z"
/>
<path fill="#ddc1fc" d="
  M 141.86 339.51
  C 145.52 341.11 151.90 338.24 155.63 336.44
  C 159.16 334.74 162.00 337.60 162.09 340.92
  C 162.21 345.35 157.18 348.94 153.45 349.90
  Q 149.32 350.97 144.59 351.43
  C 136.19 352.24 129.52 347.30 124.83 340.66
  Q 123.38 338.60 122.92 336.03
  Q 121.00 325.30 125.00 314.07
  Q 125.60 312.38 127.27 311.14
  C 136.30 304.47 149.62 300.20 158.66 309.58
  C 161.37 312.39 161.95 316.42 158.19 318.53
  C 153.00 321.45 148.14 314.78 142.27 316.46
  C 137.85 317.72 134.62 322.87 133.67 327.02
  C 132.51 332.08 137.74 337.71 141.86 339.51
  Z"
/>
<path fill="#ddc1fc" d="
  M 74.85 353.11
  C 72.11 353.01 68.34 352.53 67.76 349.31
  C 66.64 343.17 66.49 336.31 66.83 331.00
  Q 67.39 321.94 67.22 313.49
  C 67.11 308.33 72.26 307.67 76.16 307.93
  Q 78.57 308.09 80.90 310.46
  A 1.66 1.62 20.4 0 1 81.36 311.43
  C 81.86 316.23 82.45 320.70 82.19 325.69
  Q 81.58 336.94 81.72 348.50
  C 81.77 353.01 78.35 353.24 74.85 353.11
  Z"
/>
</svg>
