<?xml version="1.0" encoding="UTF-8" standalone="no"?>
<!DOCTYPE svg PUBLIC "-//W3C//DTD SVG 1.1//EN" "http://www.w3.org/Graphics/SVG/1.1/DTD/svg11.dtd">
<svg xmlns="http://www.w3.org/2000/svg" version="1.1" viewBox="0.00 0.00 500.00 500.00">
<path fill="#000000" d="
  M 194.26 253.28
  Q 188.76 253.74 182.45 253.11
  C 179.78 252.85 178.76 250.74 178.57 248.11
  Q 178.02 240.27 178.01 232.12
  Q 178.01 231.94 177.83 231.93
  L 177.82 231.93
  Q 177.66 231.92 177.64 232.08
  C 176.89 238.59 169.61 247.08 165.32 250.03
  C 159.10 254.32 151.46 257.15 143.34 256.76
  Q 142.73 256.73 142.69 257.34
  Q 142.04 266.70 142.92 276.31
  C 143.35 281.00 145.31 287.72 149.51 290.23
  A 2.73 2.72 38.1 0 0 152.82 289.83
  C 154.11 288.55 155.64 287.23 156.42 285.59
  Q 157.55 283.22 159.35 281.49
  Q 160.74 280.16 161.41 278.30
  Q 164.32 270.27 168.64 263.20
  C 170.57 260.03 176.01 258.60 178.44 262.21
  C 181.19 266.28 182.07 269.15 179.96 273.89
  C 178.05 278.17 177.35 282.47 175.57 286.85
  Q 170.70 298.86 166.44 307.24
  C 162.47 315.07 147.12 310.04 141.62 306.88
  Q 127.65 298.87 123.39 283.84
  Q 121.83 278.33 121.88 269.63
  Q 122.08 234.03 121.91 199.32
  C 121.90 198.24 122.48 197.29 123.27 196.59
  Q 132.65 188.18 146.95 188.74
  C 159.92 189.26 171.67 197.76 176.80 209.65
  C 177.41 211.06 177.51 212.78 177.86 214.29
  Q 178.00 214.92 178.43 214.45
  L 179.30 213.52
  Q 179.69 213.10 180.25 213.08
  Q 185.92 212.87 191.50 212.34
  C 193.25 212.18 196.71 212.05 197.79 213.84
  C 199.62 216.85 200.29 223.71 195.19 223.82
  Q 191.49 223.90 188.07 224.37
  Q 187.55 224.44 187.60 224.96
  L 187.97 228.46
  Q 188.01 228.86 188.42 228.85
  C 192.07 228.75 197.88 227.40 198.49 232.69
  C 198.74 234.81 198.16 237.16 195.69 237.49
  Q 191.39 238.07 187.81 238.03
  Q 187.35 238.02 187.42 238.48
  L 187.94 242.02
  Q 188.02 242.55 188.55 242.53
  Q 192.31 242.36 195.72 242.33
  Q 197.33 242.31 198.41 243.43
  Q 201.35 246.49 199.43 250.53
  Q 199.14 251.13 198.57 251.46
  Q 198.19 251.68 198.00 252.08
  Q 197.65 252.86 198.38 252.41
  C 205.06 248.29 208.76 256.14 202.20 259.35
  Q 199.62 260.61 197.05 262.12
  C 194.80 263.44 192.19 262.68 190.70 260.66
  Q 190.39 260.24 190.40 259.72
  Q 190.50 256.46 194.54 254.19
  Q 196.52 253.09 194.26 253.28
  Z
  M 155.06 235.45
  Q 156.42 234.89 156.99 233.64
  Q 159.44 228.28 158.32 223.84
  C 156.11 215.02 150.71 210.87 141.69 210.55
  A 0.36 0.36 0.0 0 0 141.31 210.93
  L 142.66 236.37
  Q 142.69 236.89 143.20 236.96
  Q 149.14 237.86 155.06 235.45
  Z"
/>
<path fill="#000000" d="
  M 238.38 236.64
  Q 238.28 233.07 237.47 229.66
  A 2.27 2.27 0.0 0 0 235.41 227.92
  C 230.66 227.60 225.34 227.66 223.35 222.44
  C 222.21 219.42 224.83 216.49 227.36 215.46
  C 233.18 213.10 237.71 214.64 242.44 217.93
  C 246.95 221.07 248.90 227.61 249.02 232.77
  C 249.11 236.91 247.80 241.17 247.16 245.27
  C 246.93 246.73 245.91 247.60 245.69 248.88
  Q 245.58 249.52 246.07 249.93
  L 250.20 253.41
  A 2.36 2.35 -46.5 0 1 250.29 256.92
  C 247.23 259.79 240.24 263.93 237.79 257.34
  Q 237.32 256.08 236.06 256.53
  C 225.52 260.30 218.64 255.88 211.27 248.52
  Q 205.29 242.55 203.73 234.09
  Q 201.84 223.89 204.13 217.40
  C 205.83 212.61 209.67 206.55 213.74 203.23
  Q 222.95 195.71 235.13 198.18
  C 243.34 199.84 239.71 211.57 231.97 210.06
  C 226.33 208.96 222.01 213.54 219.10 217.61
  Q 213.48 225.46 216.91 236.10
  Q 217.94 239.31 219.88 240.99
  Q 223.43 244.06 227.82 245.43
  Q 229.70 246.02 228.59 244.39
  C 227.05 242.13 224.14 239.81 224.54 236.80
  C 225.00 233.40 227.85 231.75 231.08 232.22
  Q 235.35 232.85 237.51 236.87
  Q 238.44 238.58 238.38 236.64
  Z"
/>
<path fill="#000000" d="
  M 343.56 230.97
  Q 343.74 227.04 345.31 223.26
  C 347.44 218.13 352.31 210.18 358.65 210.05
  C 364.54 209.94 371.54 211.08 375.31 215.89
  C 376.67 217.62 378.38 219.00 379.54 220.88
  C 384.37 228.74 384.06 238.40 380.64 246.96
  Q 379.72 249.27 377.87 251.42
  C 374.59 255.21 371.90 258.24 366.73 258.71
  Q 350.08 260.21 344.90 244.52
  Q 344.04 241.93 343.47 239.09
  Q 343.44 238.93 343.28 238.95
  L 343.27 238.95
  Q 343.18 238.96 343.19 239.05
  Q 343.58 244.90 343.78 251.34
  Q 343.96 256.94 339.31 257.94
  C 334.84 258.89 332.39 257.31 330.32 253.38
  Q 326.89 246.87 323.56 241.04
  Q 323.04 240.12 323.01 241.18
  Q 322.89 247.10 322.79 252.48
  Q 322.74 255.30 321.51 257.12
  Q 321.22 257.55 321.68 257.77
  C 324.24 259.02 326.38 260.58 326.01 263.84
  C 325.60 267.43 326.28 270.95 325.85 274.50
  Q 324.89 282.37 326.35 294.11
  C 326.71 296.99 330.55 296.40 332.68 296.47
  Q 333.26 296.49 333.70 296.86
  Q 335.36 298.24 335.87 300.14
  Q 337.39 305.75 331.27 306.79
  Q 328.38 307.28 324.62 307.57
  C 318.15 308.05 314.31 302.25 314.33 296.23
  C 314.37 289.21 314.41 284.08 314.27 275.20
  Q 314.15 267.72 315.02 261.44
  Q 315.12 260.77 315.59 260.28
  Q 316.26 259.58 315.31 259.43
  C 312.48 258.96 310.56 256.92 310.78 253.99
  Q 311.85 239.93 312.15 226.42
  C 312.24 222.10 309.88 205.84 319.90 210.10
  C 322.39 211.16 322.35 213.83 323.37 215.88
  Q 327.48 224.16 331.18 232.24
  Q 331.69 233.35 331.74 232.13
  Q 331.93 226.25 331.45 220.61
  C 331.02 215.72 332.39 209.30 338.90 210.29
  Q 342.70 210.87 342.87 214.91
  Q 343.20 222.84 343.30 230.92
  Q 343.31 231.06 343.45 231.06
  L 343.46 231.06
  Q 343.55 231.07 343.56 230.97
  Z
  M 362.47 227.38
  C 358.88 227.95 357.62 232.23 356.79 235.16
  C 355.80 238.62 356.46 241.82 358.78 244.52
  C 361.16 247.30 365.90 247.24 367.15 243.41
  C 368.39 239.59 370.71 226.08 362.47 227.38
  Z"
/>
<path fill="#000000" d="
  M 264.98 245.35
  Q 268.77 246.14 270.74 243.91
  Q 272.99 241.36 273.36 237.12
  Q 273.92 230.70 274.53 223.19
  C 274.82 219.65 273.92 216.66 276.05 213.41
  C 277.58 211.07 280.59 210.64 282.42 213.12
  Q 284.05 215.32 284.24 218.50
  Q 285.16 233.69 281.53 247.81
  Q 280.64 251.30 277.25 254.54
  Q 274.72 256.97 270.60 257.58
  C 265.37 258.35 260.29 257.91 256.58 253.97
  C 252.02 249.13 251.07 243.24 250.25 236.67
  Q 248.77 224.75 250.01 215.96
  C 250.81 210.32 257.87 210.07 259.49 215.26
  Q 259.95 216.71 259.97 218.19
  Q 260.09 228.51 260.72 237.31
  Q 260.90 239.83 262.18 242.83
  Q 263.09 244.96 264.98 245.35
  Z"
/>
<path fill="#000000" d="
  M 298.35 244.02
  C 303.19 243.61 309.33 243.10 308.96 249.86
  C 308.58 256.75 295.83 254.92 291.75 254.70
  C 289.59 254.59 287.97 253.11 287.64 251.01
  Q 286.12 241.47 286.59 232.20
  C 286.75 228.94 286.63 225.56 286.27 222.34
  C 285.98 219.79 287.34 215.04 290.42 214.70
  Q 296.57 214.02 302.47 213.88
  C 306.42 213.78 308.11 217.54 308.08 220.84
  C 308.03 225.19 301.67 226.76 298.29 226.90
  Q 297.76 226.92 297.71 227.45
  L 297.50 229.76
  Q 297.44 230.33 298.02 230.33
  C 299.68 230.31 301.79 229.93 303.31 230.33
  Q 308.14 231.61 306.86 236.92
  C 306.08 240.12 301.41 240.59 298.70 240.91
  A 1.04 1.03 -3.2 0 0 297.79 241.92
  L 297.77 243.48
  A 0.53 0.53 0.0 0 0 298.35 244.02
  Z"
/>
<path fill="#000000" d="
  M 292.72 289.77
  Q 295.90 291.94 299.49 289.64
  C 301.26 288.51 301.72 285.49 301.87 283.59
  Q 302.63 274.20 302.76 263.97
  C 302.82 259.69 308.14 256.15 311.31 260.08
  Q 312.54 261.59 312.75 263.89
  Q 313.67 274.10 311.83 287.03
  C 311.07 292.31 308.45 300.83 303.23 302.90
  Q 296.10 305.73 288.32 302.66
  C 283.42 300.73 281.29 294.01 280.65 289.07
  C 279.48 280.15 278.25 271.56 279.68 262.77
  C 280.42 258.24 284.77 256.84 287.82 260.29
  C 290.38 263.20 289.14 267.36 289.55 270.88
  Q 290.27 277.17 290.58 283.78
  C 290.67 285.82 290.88 288.51 292.72 289.77
  Z"
/>
<path fill="#000000" d="
  M 337.40 300.75
  C 333.19 294.02 330.98 286.71 332.36 279.38
  Q 333.48 273.38 336.20 267.21
  Q 338.55 261.85 344.28 259.61
  C 348.45 257.96 354.23 259.40 358.60 260.44
  Q 361.51 261.13 363.56 263.69
  Q 376.80 280.17 367.12 298.51
  Q 364.61 303.26 359.84 305.84
  C 356.58 307.60 351.00 307.28 347.40 306.64
  C 344.53 306.14 339.20 303.61 337.40 300.75
  Z
  M 350.3600 295.3561
  A 9.68 6.32 94.8 0 0 357.4678 286.2388
  A 9.68 6.32 94.8 0 0 351.9800 276.0639
  A 9.68 6.32 94.8 0 0 344.8722 285.1812
  A 9.68 6.32 94.8 0 0 350.3600 295.3561
  Z"
/>
<path fill="#000000" d="
  M 217.65 290.87
  Q 217.48 296.36 217.41 301.32
  C 217.37 303.50 216.89 306.13 215.08 307.55
  C 211.15 310.63 204.59 308.84 204.97 303.14
  Q 205.89 289.48 206.26 276.84
  Q 206.38 272.72 206.06 268.67
  C 205.71 264.29 207.11 257.16 213.50 259.48
  Q 216.09 260.43 217.16 263.06
  C 218.09 265.36 218.79 267.66 219.81 269.91
  Q 222.41 275.67 224.97 280.97
  Q 225.57 282.22 225.86 280.86
  Q 226.09 279.77 226.02 278.55
  Q 225.64 272.33 225.70 266.87
  Q 225.77 259.41 233.10 260.00
  Q 236.73 260.29 237.07 264.38
  Q 237.46 269.11 237.44 273.37
  Q 237.36 287.37 238.26 298.75
  C 238.59 302.85 237.50 309.30 231.79 308.66
  Q 228.79 308.33 227.00 306.13
  C 223.36 301.65 220.63 295.91 218.12 290.78
  Q 217.69 289.88 217.65 290.87
  Z"
/>
<path fill="#000000" d="
  M 263.49 295.10
  Q 268.03 293.82 272.20 291.83
  Q 274.70 290.63 276.69 292.34
  C 279.41 294.70 278.88 298.98 276.53 301.24
  C 272.33 305.29 265.42 306.22 259.58 306.51
  Q 256.06 306.68 252.51 305.19
  Q 245.93 302.42 241.68 296.67
  Q 239.63 293.90 239.22 290.59
  Q 237.90 279.97 241.10 271.04
  Q 242.01 268.49 243.99 266.60
  Q 251.49 259.42 263.72 259.88
  Q 271.31 260.17 275.43 265.20
  C 277.70 267.98 278.38 272.00 274.96 274.10
  C 271.75 276.08 268.38 274.46 265.33 272.98
  C 258.26 269.55 253.94 274.53 251.06 280.25
  Q 249.89 282.56 250.47 285.09
  C 251.80 290.91 256.96 296.93 263.49 295.10
  Z"
/>
<path fill="#000000" d="
  M 184.30 267.87
  C 184.49 261.57 197.56 261.26 198.37 267.12
  C 199.10 272.36 199.41 277.63 199.12 283.14
  Q 198.63 292.49 198.72 303.92
  C 198.76 308.33 194.08 308.95 190.60 308.47
  C 184.03 307.56 184.36 303.47 184.03 298.39
  Q 183.52 290.59 183.97 283.37
  C 184.30 278.18 184.14 273.06 184.30 267.87
  Z"
/>
</svg>
