<?xml version="1.0" encoding="UTF-8" standalone="no"?>
<!DOCTYPE svg PUBLIC "-//W3C//DTD SVG 1.1//EN" "http://www.w3.org/Graphics/SVG/1.1/DTD/svg11.dtd">
<svg xmlns="http://www.w3.org/2000/svg" version="1.1" viewBox="0.00 0.00 270.00 127.00">
<g stroke-width="2.00" fill="none" stroke-linecap="butt">
<path stroke="#f8b3bc" vector-effect="non-scaling-stroke" d="
  M 198.68 96.47
  Q 198.50 95.03 198.73 94.26"
/>
<path stroke="#f8b3bc" vector-effect="non-scaling-stroke" d="
  M 198.68 86.83
  L 198.18 83.68
  Q 198.17 83.62 198.12 83.62
  L 197.81 83.62
  Q 197.57 83.61 197.56 83.85
  Q 197.25 89.68 196.58 95.74
  Q 196.45 96.84 197.20 96.79"
/>
</g>
<path fill="#ff718c" d="
  M 78.02 75.90
  Q 76.09 75.22 74.88 73.69
  Q 74.46 73.16 74.63 72.52
  Q 75.52 69.08 79.09 67.32
  Q 79.25 67.25 79.36 67.12
  Q 79.50 66.94 79.46 66.72
  A 0.45 0.44 80.5 0 0 78.96 66.36
  Q 73.18 67.09 66.80 66.28
  Q 63.53 65.87 63.11 62.70
  Q 62.10 55.01 62.44 46.05
  A 0.32 0.32 0.0 0 0 62.16 45.72
  L 61.91 45.69
  Q 61.75 45.67 61.72 45.83
  C 60.76 51.90 55.19 58.69 51.28 61.87
  Q 40.94 70.29 27.47 70.08
  A 0.57 0.57 0.0 0 0 26.89 70.62
  Q 26.22 81.93 27.48 91.57
  C 28.00 95.47 30.52 102.45 34.76 103.91
  Q 35.26 104.08 35.74 103.83
  C 39.31 101.90 41.17 97.93 43.59 94.78
  Q 45.45 92.35 46.49 89.56
  Q 49.03 82.75 52.87 76.49
  Q 54.75 73.43 58.47 73.29
  C 61.17 73.20 62.65 74.99 63.90 77.10
  Q 66.35 81.21 64.80 85.42
  C 62.79 90.87 61.39 96.24 59.26 101.51
  Q 55.27 111.41 50.76 120.38
  C 48.87 124.14 44.22 124.93 40.36 124.52
  C 24.49 122.80 11.52 111.93 7.44 96.33
  Q 6.14 91.37 6.18 82.76
  Q 6.34 47.53 6.25 12.09
  A 2.41 2.41 0.0 0 1 6.99 10.33
  C 14.86 2.81 25.91 0.71 36.39 2.58
  C 47.06 4.48 61.05 15.48 61.92 27.03
  A 0.49 0.49 0.0 0 0 62.68 27.39
  C 63.57 26.79 64.48 26.34 65.59 26.29
  C 70.38 26.06 76.09 24.91 80.71 25.93
  A 1.79 1.76 78.6 0 1 81.79 26.66
  C 83.68 29.43 84.96 36.92 79.44 37.06
  Q 76.23 37.14 73.00 37.39
  Q 71.93 37.48 72.00 38.55
  L 72.16 40.98
  Q 72.24 42.25 73.51 42.14
  Q 76.24 41.91 79.06 42.04
  Q 82.14 42.19 82.70 45.40
  Q 83.59 50.59 78.67 50.95
  Q 75.53 51.17 72.66 51.15
  Q 71.63 51.14 71.80 52.15
  L 72.23 54.75
  A 1.29 1.29 0.0 0 0 73.61 55.82
  Q 76.64 55.56 79.47 55.55
  C 84.53 55.53 85.91 61.50 82.74 64.72
  Q 82.51 64.96 82.64 65.27
  Q 82.70 65.44 82.85 65.49
  C 83.83 65.84 85.67 63.69 87.72 64.71
  C 91.35 66.53 90.22 70.15 87.47 71.92
  Q 84.11 74.07 79.14 76.15
  Q 78.39 76.47 79.17 76.71
  Q 82.56 77.75 82.88 81.46
  C 83.25 85.82 83.62 89.98 83.42 94.28
  Q 82.94 104.84 83.12 115.95
  C 83.16 118.20 82.37 120.89 79.79 121.42
  C 75.54 122.30 69.41 121.78 68.77 116.60
  Q 68.02 110.46 68.17 103.36
  Q 68.42 91.69 68.56 81.45
  C 68.63 76.57 73.98 75.96 77.96 76.20
  Q 79.05 76.26 78.02 75.90
  Z
  M 25.49 24.34
  C 26.11 32.55 26.78 41.28 26.75 49.78
  Q 26.75 50.18 27.15 50.22
  Q 33.59 50.94 38.98 48.83
  C 40.50 48.23 41.44 46.97 41.97 45.48
  Q 43.78 40.28 42.19 35.52
  C 39.54 27.55 34.39 24.16 26.09 23.73
  A 0.57 0.57 0.0 0 0 25.49 24.34
  Z"
/>
<path fill="#ff718c" d="
  M 134.02 42.98
  Q 133.32 36.75 134.30 29.39
  Q 134.51 27.82 135.37 26.72
  C 139.11 21.91 144.21 26.34 144.26 31.12
  Q 144.37 41.28 144.99 50.11
  C 145.17 52.61 146.17 57.87 149.25 58.60
  C 155.00 59.97 157.19 54.91 157.69 50.18
  Q 158.73 40.37 158.95 31.06
  C 159.14 23.10 167.91 22.39 168.46 30.90
  Q 169.38 45.26 166.39 58.91
  Q 163.81 70.65 151.89 71.12
  C 143.85 71.44 138.71 66.92 136.48 59.71
  Q 134.97 54.81 134.45 47.53
  Q 134.43 47.38 134.28 47.37
  L 133.95 47.36
  Q 133.41 47.33 133.34 47.87
  Q 132.55 53.53 131.25 59.06
  C 130.99 60.17 130.22 61.01 129.99 62.08
  A 1.21 1.20 26.0 0 0 130.40 63.27
  L 134.52 66.65
  A 2.30 2.30 0.0 0 1 134.56 70.17
  Q 131.21 73.04 127.34 74.05
  C 124.51 74.79 122.91 72.28 121.75 70.18
  Q 121.34 69.43 120.53 69.71
  C 111.93 72.69 105.53 70.74 99.18 65.09
  C 94.93 61.31 91.50 57.95 89.47 52.45
  C 86.84 45.34 85.80 34.89 89.65 27.76
  C 94.21 19.32 99.09 13.35 108.97 11.24
  C 111.94 10.60 118.85 10.45 121.88 12.48
  C 126.88 15.85 122.77 24.25 116.77 23.34
  Q 111.94 22.61 108.61 25.29
  Q 96.14 35.29 101.59 50.34
  C 103.11 54.54 107.39 56.86 111.31 58.46
  Q 112.03 58.75 112.77 58.67
  A 0.51 0.51 0.0 0 0 113.13 57.86
  C 110.90 54.87 106.46 51.03 110.19 47.03
  C 113.43 43.55 119.08 45.85 121.26 49.33
  Q 123.13 52.31 122.67 48.82
  L 121.90 43.08
  A 2.26 2.26 0.0 0 0 119.77 41.12
  C 115.17 40.91 109.52 40.80 107.68 35.74
  Q 106.55 32.62 109.33 30.30
  Q 114.16 26.27 120.65 28.12
  Q 130.80 31.00 132.68 41.67
  Q 132.84 42.57 133.52 43.22
  Q 134.12 43.80 134.02 42.98
  Z"
/>
<path fill="#ff718c" d="
  M 198.68 96.47
  Q 198.50 95.03 198.73 94.26
  Q 199.53 90.71 198.68 86.83
  L 198.18 83.68
  Q 198.17 83.62 198.12 83.62
  L 197.81 83.62
  Q 197.57 83.61 197.56 83.85
  Q 197.25 89.68 196.58 95.74
  Q 196.45 96.84 197.20 96.79
  Q 196.28 97.18 196.25 97.99
  C 196.07 103.75 193.26 114.12 187.09 116.33
  Q 180.11 118.83 172.61 115.90
  C 169.06 114.51 166.51 109.82 165.79 106.48
  Q 164.31 99.63 163.48 88.75
  Q 162.94 81.72 164.08 75.49
  C 164.55 72.92 167.11 70.75 169.84 71.92
  Q 173.43 73.46 173.57 77.18
  Q 174.03 89.15 175.32 100.37
  C 175.58 102.65 178.26 104.18 180.40 104.02
  Q 185.45 103.63 185.97 98.35
  Q 186.93 88.57 187.05 77.37
  C 187.11 71.89 194.91 68.96 196.61 75.16
  Q 197.43 78.16 197.35 81.58
  Q 197.33 82.35 197.98 82.75
  L 198.24 82.91
  A 0.31 0.31 0.0 0 0 198.72 82.65
  Q 198.74 77.49 199.71 73.21
  Q 199.84 72.64 199.27 72.52
  C 196.87 72.00 194.83 70.14 195.05 67.56
  Q 196.67 48.42 196.28 31.19
  C 196.18 26.73 198.21 20.51 204.30 23.41
  Q 205.41 23.94 205.94 25.10
  Q 210.64 35.40 215.39 45.12
  Q 216.32 47.02 216.24 44.90
  Q 216.00 38.41 215.75 32.45
  C 215.57 28.36 216.98 23.51 221.94 23.40
  C 226.40 23.30 227.33 26.49 227.36 30.28
  Q 227.41 36.28 227.45 42.08
  Q 227.45 42.14 227.51 42.15
  L 227.77 42.17
  A 0.29 0.28 -82.8 0 0 228.06 41.94
  Q 230.26 30.71 238.45 24.77
  C 242.30 21.98 249.48 23.48 253.62 24.90
  C 256.72 25.97 258.69 28.02 260.86 30.39
  C 268.31 38.54 268.93 49.00 265.34 59.17
  C 263.98 63.01 261.08 66.12 258.17 68.82
  C 253.51 73.14 246.13 72.53 240.40 70.72
  C 232.99 68.38 228.73 59.44 228.07 52.14
  Q 228.04 51.80 227.70 51.82
  L 227.44 51.84
  Q 227.38 51.85 227.38 51.91
  Q 227.67 57.47 228.13 63.25
  C 228.42 66.82 227.51 70.41 223.60 71.15
  C 218.83 72.04 216.68 70.39 214.61 66.60
  Q 211.41 60.76 208.50 55.23
  Q 207.20 52.76 207.24 55.55
  Q 207.32 60.37 207.10 65.91
  C 207.04 67.59 206.48 68.90 205.87 70.41
  Q 205.61 71.08 206.27 71.34
  C 208.53 72.23 210.43 73.73 210.30 76.42
  C 210.08 80.87 210.38 85.16 210.00 89.74
  Q 209.24 98.66 210.74 107.77
  A 2.22 2.22 0.0 0 0 213.24 109.60
  Q 219.26 108.77 220.32 114.13
  C 221.64 120.78 212.80 120.41 208.87 120.77
  C 204.92 121.13 201.36 118.65 199.83 115.21
  Q 198.47 112.14 198.64 107.50
  Q 198.85 101.93 198.68 96.47
  Z
  M 244.65 58.98
  C 246.95 60.51 250.25 59.68 251.26 57.04
  Q 253.50 51.19 252.41 44.86
  C 251.68 40.57 246.73 38.87 243.81 42.38
  C 241.85 44.74 240.57 49.04 240.68 51.75
  Q 240.86 56.46 244.65 58.98
  Z"
/>
<path fill="#ff718c" d="
  M 183.07 57.10
  C 188.26 57.31 194.10 56.23 193.18 63.69
  C 192.45 69.71 179.68 68.26 175.76 67.88
  C 173.77 67.68 172.25 66.23 171.93 64.21
  Q 170.74 56.60 170.88 52.62
  Q 171.19 43.75 170.58 35.03
  C 170.38 32.15 171.83 28.33 175.08 27.90
  Q 182.02 26.97 187.74 27.19
  C 190.01 27.28 191.21 29.19 191.91 31.11
  C 194.23 37.53 188.05 39.42 183.35 40.08
  Q 182.02 40.27 181.74 41.58
  Q 181.66 41.98 181.71 42.38
  Q 181.87 43.76 183.24 43.52
  C 187.52 42.78 191.97 43.82 191.31 49.42
  C 190.86 53.28 186.53 53.61 183.51 54.00
  Q 182.13 54.17 182.02 55.55
  Q 182.00 55.71 181.99 55.87
  Q 181.89 57.05 183.07 57.10
  Z"
/>
<path fill="#ff718c" d="
  M 220.00 81.51
  Q 222.54 75.26 228.29 72.98
  C 232.78 71.19 238.54 72.62 243.14 73.71
  Q 245.43 74.26 246.94 75.95
  Q 259.51 90.06 253.51 107.20
  C 251.49 112.97 246.75 119.55 240.35 120.16
  C 234.20 120.75 229.05 120.00 223.86 116.23
  Q 221.91 114.81 220.85 112.48
  C 219.86 110.29 218.48 108.39 217.76 106.07
  C 214.94 96.91 216.63 89.79 220.00 81.51
  Z
  M 234.6760 108.6074
  A 9.69 6.29 94.7 0 0 241.7388 99.4654
  A 9.69 6.29 94.7 0 0 236.2640 89.2926
  A 9.69 6.29 94.7 0 0 229.2012 98.4346
  A 9.69 6.29 94.7 0 0 234.6760 108.6074
  Z"
/>
<path fill="#ff718c" d="
  M 101.91 104.52
  Q 101.71 109.31 101.74 113.72
  C 101.76 116.38 101.25 119.62 98.81 121.18
  C 94.63 123.85 88.80 121.48 89.25 116.03
  Q 90.34 102.79 90.56 89.03
  C 90.63 84.76 89.68 79.90 91.06 75.77
  C 92.96 70.07 99.76 72.02 101.56 76.65
  Q 104.76 84.92 108.88 93.53
  Q 109.15 94.10 109.59 94.52
  A 0.43 0.43 0.0 0 0 110.31 94.19
  Q 110.08 86.92 109.98 80.02
  C 109.94 77.28 110.99 74.53 113.79 73.58
  C 116.60 72.62 120.97 73.00 121.25 76.72
  Q 121.91 85.22 121.81 95.08
  C 121.75 101.20 122.25 107.36 122.59 113.50
  C 122.75 116.52 121.46 121.28 117.83 121.81
  C 113.53 122.44 110.79 119.45 108.73 115.84
  Q 105.66 110.43 102.53 104.38
  Q 101.96 103.26 101.91 104.52
  Z"
/>
<path fill="#ff718c" d="
  M 139.30 87.70
  C 137.27 89.70 134.11 94.18 134.60 97.36
  Q 135.79 104.94 142.40 108.07
  C 146.02 109.79 152.09 107.12 155.56 105.44
  C 157.26 104.61 159.48 104.04 161.01 105.58
  Q 163.39 107.99 162.66 111.04
  C 160.98 118.01 150.03 119.49 143.74 119.71
  Q 141.20 119.80 138.75 119.07
  Q 130.67 116.64 125.47 109.16
  Q 123.95 106.96 123.57 104.23
  Q 122.35 95.20 124.66 86.48
  C 125.46 83.45 126.67 81.11 129.10 79.06
  Q 135.96 73.27 145.42 73.11
  Q 150.04 73.03 153.46 74.05
  C 156.81 75.05 162.74 79.78 161.52 84.09
  C 160.22 88.67 155.77 89.01 152.07 87.26
  C 147.55 85.11 143.42 83.66 139.30 87.70
  Z"
/>
<path fill="#f1f4eb" d="
  M 198.68 86.83
  Q 197.65 90.71 198.73 94.26
  Q 198.50 95.03 198.68 96.47
  L 197.20 96.79
  Q 196.45 96.84 196.58 95.74
  Q 197.25 89.68 197.56 83.85
  Q 197.57 83.61 197.81 83.62
  L 198.12 83.62
  Q 198.17 83.62 198.18 83.68
  L 198.68 86.83
  Z"
/>
</svg>
