<?xml version="1.0" encoding="UTF-8" standalone="no"?>
<!DOCTYPE svg PUBLIC "-//W3C//DTD SVG 1.1//EN" "http://www.w3.org/Graphics/SVG/1.1/DTD/svg11.dtd">
<svg xmlns="http://www.w3.org/2000/svg" version="1.1" viewBox="0.00 0.00 500.00 500.00">
<path fill="#000000" d="
  M 234.29 106.98
  C 239.02 107.63 236.91 115.40 236.26 118.24
  C 235.46 121.70 232.32 122.72 230.94 125.68
  C 229.34 129.12 228.56 132.68 225.87 135.56
  C 222.05 139.62 217.66 142.64 212.32 143.67
  C 207.44 144.61 200.33 141.48 197.02 137.93
  Q 195.44 136.24 193.96 134.53
  Q 191.65 131.85 190.10 126.62
  C 189.19 123.58 186.24 122.68 185.15 120.11
  Q 183.31 115.77 183.49 110.00
  C 183.55 108.02 185.03 107.37 186.68 107.00
  A 1.46 1.45 78.1 0 0 187.78 105.30
  Q 186.29 97.62 187.08 89.45
  C 187.57 84.40 191.72 84.46 194.21 81.21
  C 195.74 79.24 197.63 76.76 200.17 76.10
  C 206.91 74.34 214.33 74.62 220.85 76.65
  Q 228.11 78.90 231.01 82.53
  C 236.63 89.55 234.68 97.24 233.11 105.33
  A 1.40 1.40 0.0 0 0 234.29 106.98
  Z"
/>
<path fill="#000000" d="
  M 283.17 136.90
  C 275.36 141.40 262.59 143.63 254.41 137.99
  A 1.25 1.25 0.0 0 1 254.60 135.82
  Q 257.41 134.53 259.64 131.91
  C 265.70 124.83 269.29 117.90 269.79 108.41
  C 270.25 99.57 270.59 88.88 278.64 83.40
  C 280.48 82.14 282.22 80.57 284.31 79.77
  Q 298.48 74.31 311.32 81.74
  Q 317.62 85.39 319.65 90.73
  C 321.81 96.40 322.09 102.90 322.28 109.05
  C 322.61 120.42 328.56 130.17 338.15 136.27
  Q 338.77 136.66 338.40 137.30
  Q 337.90 138.16 336.98 138.53
  C 328.11 142.07 317.79 140.60 309.08 136.60
  A 1.73 1.73 0.0 0 0 307.51 136.66
  Q 305.37 137.88 303.19 139.11
  C 297.48 142.34 290.40 140.78 285.06 136.99
  A 1.76 1.75 -42.0 0 0 283.17 136.90
  Z"
/>
<path fill="#000000" d="
  M 310.63 239.39
  Q 317.41 238.66 326.66 238.72
  C 332.23 238.76 331.59 246.01 326.12 246.02
  Q 303.49 246.07 285.25 253.55
  Q 280.85 255.36 273.12 259.66
  Q 269.17 261.86 266.46 264.14
  Q 263.32 266.78 260.65 269.84
  Q 259.39 271.29 261.19 270.62
  Q 301.81 255.46 339.74 276.85
  C 341.17 277.65 342.25 278.78 342.24 280.53
  Q 342.18 291.73 342.24 301.12
  A 3.67 3.67 0.0 0 1 337.07 304.50
  C 330.09 301.38 322.84 297.85 315.91 295.97
  C 298.40 291.21 278.74 292.12 262.00 299.74
  Q 256.71 302.15 251.36 304.55
  A 3.02 3.02 0.0 0 1 248.97 304.58
  C 244.00 302.51 239.02 299.81 234.03 298.02
  C 214.27 290.93 193.26 291.34 173.98 299.68
  Q 168.25 302.16 163.14 304.50
  A 3.67 3.66 -12.1 0 1 157.95 301.15
  Q 157.99 290.35 157.96 280.43
  Q 157.96 278.13 160.16 276.92
  Q 198.89 255.53 238.56 270.51
  Q 241.16 271.49 239.26 269.47
  C 235.66 265.64 231.86 262.26 227.19 259.76
  C 222.71 257.36 218.47 254.74 213.66 252.96
  Q 194.57 245.90 173.67 246.00
  C 168.77 246.02 168.10 238.74 173.29 238.74
  Q 186.53 238.74 197.56 240.25
  Q 198.13 240.33 197.62 240.06
  Q 185.95 233.94 178.01 223.41
  Q 175.86 220.57 173.64 217.76
  C 168.71 211.54 164.79 203.52 162.12 196.38
  C 156.97 182.58 156.92 162.78 172.84 155.55
  C 177.07 153.63 182.83 150.88 187.29 153.92
  Q 193.52 158.17 199.66 160.37
  Q 212.02 164.79 225.04 158.85
  Q 230.21 156.49 233.39 154.18
  C 238.43 150.52 244.53 154.24 249.48 156.00
  C 252.57 157.11 256.28 156.69 259.21 155.11
  C 263.09 153.02 269.77 151.15 273.35 154.41
  Q 274.78 155.71 276.67 156.56
  C 279.80 157.98 282.48 159.75 285.85 160.78
  Q 296.13 163.89 306.22 160.42
  Q 313.48 157.91 319.36 153.90
  C 324.15 150.63 332.82 154.82 337.05 157.47
  C 339.90 159.24 342.28 162.03 343.78 165.13
  Q 348.24 174.38 346.08 186.00
  Q 342.92 203.00 332.69 216.87
  Q 327.06 224.52 320.90 230.80
  Q 317.13 234.65 310.49 239.00
  Q 309.74 239.49 310.63 239.39
  Z
  M 269.38 196.09
  Q 267.60 195.52 268.07 193.71
  C 270.43 184.71 270.68 177.59 260.91 173.31
  Q 251.69 169.28 240.65 172.06
  Q 239.85 172.26 239.36 172.86
  Q 236.66 176.18 233.31 177.93
  C 229.41 179.96 230.34 189.63 230.79 193.77
  A 1.72 1.72 0.0 0 1 230.62 194.74
  C 229.97 196.05 228.73 196.64 228.38 198.19
  Q 226.78 205.26 230.59 208.76
  Q 231.84 209.91 232.44 211.47
  Q 234.06 215.71 237.37 219.55
  Q 240.76 223.48 244.25 224.79
  Q 251.40 227.46 258.37 222.82
  C 259.97 221.76 260.89 220.20 262.23 218.89
  C 264.66 216.52 265.92 212.97 267.19 209.92
  Q 267.42 209.36 267.94 209.05
  Q 269.87 207.89 270.55 206.02
  C 271.41 203.69 272.89 197.20 269.38 196.09
  Z
  M 216.92 245.89
  Q 231.35 251.78 242.01 261.69
  Q 246.04 265.43 249.72 270.62
  Q 250.14 271.21 250.54 270.61
  C 254.19 265.18 259.19 260.36 264.73 256.18
  Q 272.69 250.19 285.61 244.96
  Q 286.17 244.74 286.04 244.15
  Q 284.96 239.06 282.47 233.05
  Q 281.11 229.75 278.51 228.14
  C 276.32 226.78 272.28 225.00 270.06 226.73
  Q 249.44 242.78 228.97 226.47
  C 226.13 224.20 220.01 228.23 218.29 230.64
  Q 213.93 236.74 213.07 243.84
  Q 213.00 244.44 213.57 244.63
  Q 215.29 245.23 216.92 245.89
  Z
  M 166.28 294.55
  Q 199.88 278.45 234.85 290.02
  C 239.79 291.66 244.79 294.16 249.46 296.60
  Q 250.09 296.93 250.72 296.60
  Q 258.68 292.41 262.05 291.17
  Q 298.84 277.57 333.97 294.59
  A 0.35 0.35 0.0 0 0 334.47 294.27
  L 334.47 282.98
  Q 334.47 282.31 333.84 282.08
  C 328.41 280.06 323.03 277.14 317.50 275.56
  Q 291.03 267.96 265.32 277.51
  Q 263.01 278.37 258.21 280.62
  Q 254.68 282.28 251.11 283.78
  A 2.74 2.71 45.4 0 1 248.89 283.75
  Q 243.91 281.48 238.12 278.88
  C 221.11 271.25 201.33 270.38 183.53 275.39
  C 177.50 277.08 172.05 279.86 166.35 282.06
  Q 165.74 282.29 165.74 282.95
  L 165.75 294.21
  Q 165.75 294.81 166.28 294.55
  Z"
/>
<path fill="#000000" d="
  M 177.43 351.34
  Q 171.42 368.84 153.38 374.54
  Q 148.23 376.16 142.71 375.76
  A 0.80 0.80 0.0 0 0 141.85 376.50
  Q 141.22 385.88 142.04 395.25
  Q 142.44 399.79 144.03 403.95
  C 144.82 406.03 146.48 407.63 148.05 409.11
  A 2.92 2.91 -46.7 0 0 152.17 408.98
  Q 153.34 407.75 154.67 406.65
  C 156.49 405.16 156.84 402.94 158.39 401.20
  C 160.38 398.98 161.24 396.11 162.37 393.30
  Q 164.87 387.09 168.49 382.18
  C 170.74 379.14 175.24 377.95 177.67 381.44
  Q 179.37 383.88 180.18 385.92
  C 181.77 389.92 178.10 395.00 177.43 399.06
  Q 176.85 402.48 175.36 405.45
  C 173.39 409.33 172.12 413.48 170.23 417.24
  Q 168.45 420.82 167.11 424.47
  C 163.20 435.16 148.74 429.80 141.64 427.15
  C 137.55 425.62 134.86 422.44 131.84 419.42
  C 123.55 411.10 120.86 401.45 120.90 389.64
  Q 121.03 353.78 120.94 318.85
  C 120.92 312.88 132.97 308.66 137.51 307.89
  C 148.36 306.06 159.16 308.40 167.11 316.28
  C 171.95 321.07 176.15 325.58 177.35 332.74
  Q 177.50 333.61 178.03 332.90
  C 178.51 332.25 179.25 331.90 180.05 331.85
  Q 186.41 331.45 192.75 331.06
  Q 194.81 330.94 196.72 331.80
  Q 197.22 332.02 197.44 332.52
  C 198.65 335.30 200.22 343.00 195.23 343.07
  Q 191.24 343.13 187.46 343.50
  A 0.43 0.42 84.6 0 0 187.08 343.97
  L 187.38 347.13
  A 0.72 0.72 0.0 0 0 188.18 347.78
  Q 191.55 347.43 194.78 347.77
  C 198.16 348.13 198.37 351.55 197.89 354.18
  Q 197.58 355.90 195.99 356.23
  Q 192.09 357.05 187.53 356.91
  Q 186.86 356.89 186.93 357.56
  L 187.36 361.30
  Q 187.44 362.01 188.16 361.98
  C 191.13 361.83 196.65 360.76 198.62 363.57
  Q 201.26 367.36 197.79 370.94
  Q 197.05 371.70 198.02 371.27
  Q 199.25 370.72 200.58 370.35
  C 205.11 369.07 206.84 374.96 203.26 377.43
  Q 200.09 379.63 196.88 381.59
  Q 194.24 383.21 191.71 381.59
  C 187.25 378.72 191.64 374.56 194.53 372.94
  Q 195.76 372.25 194.36 372.35
  Q 187.57 372.83 181.89 372.08
  Q 178.40 371.62 178.12 368.18
  Q 177.50 360.51 177.72 351.40
  Q 177.74 350.44 177.43 351.34
  Z
  M 142.43 355.94
  C 146.92 356.47 151.87 355.89 155.69 353.60
  Q 156.27 353.26 156.50 352.61
  Q 158.20 347.85 157.83 344.80
  Q 156.04 329.94 140.80 329.31
  A 0.36 0.35 -0.7 0 0 140.43 329.68
  L 141.84 355.32
  Q 141.87 355.87 142.43 355.94
  Z"
/>
<path fill="#000000" d="
  M 228.53 364.10
  Q 227.37 362.39 225.94 360.78
  C 222.10 356.42 225.07 350.12 231.01 351.12
  Q 235.21 351.84 237.23 355.69
  Q 238.29 357.72 238.18 355.43
  Q 238.04 352.56 237.48 349.28
  C 237.22 347.75 236.27 346.67 234.66 346.67
  Q 231.71 346.67 228.86 346.09
  C 219.97 344.27 221.62 335.05 229.45 333.46
  C 242.14 330.89 250.54 344.06 248.68 355.43
  C 248.07 359.15 247.72 364.31 245.66 367.45
  A 0.93 0.92 -48.8 0 0 245.73 368.57
  Q 247.11 370.15 249.01 371.47
  C 254.57 375.31 246.26 378.82 243.58 380.11
  C 240.20 381.75 238.46 378.03 237.14 375.78
  Q 236.84 375.27 236.28 375.47
  Q 224.35 379.84 215.02 371.29
  C 211.44 368.01 207.27 364.78 205.44 360.24
  C 202.52 353.01 200.92 342.27 204.24 334.86
  Q 206.12 330.66 209.06 326.51
  Q 211.45 323.14 215.53 320.80
  Q 221.43 317.42 225.25 316.88
  C 228.76 316.39 237.98 316.02 239.39 320.95
  C 240.74 325.71 236.12 329.79 231.55 328.77
  C 227.47 327.86 222.96 331.05 220.49 334.24
  Q 211.16 346.27 218.39 358.91
  C 220.00 361.72 225.04 364.46 228.21 364.65
  Q 228.93 364.69 228.53 364.10
  Z"
/>
<path fill="#000000" d="
  M 343.60 358.40
  Q 344.03 364.09 344.15 370.38
  C 344.22 374.34 342.76 376.95 338.46 377.23
  C 334.30 377.49 332.67 375.91 330.86 372.59
  Q 327.39 366.21 323.79 360.30
  A 0.27 0.27 0.0 0 0 323.29 360.44
  Q 323.29 365.85 323.00 371.99
  C 322.94 373.45 322.64 374.88 321.91 376.16
  Q 321.55 376.77 322.22 377.02
  C 327.98 379.18 325.94 383.92 326.36 388.48
  Q 326.56 390.71 326.30 392.82
  Q 325.25 401.43 326.74 413.50
  C 327.10 416.43 331.36 415.70 333.28 415.75
  Q 333.81 415.77 334.20 416.13
  C 337.83 419.47 337.89 425.82 331.98 426.67
  Q 328.53 427.17 324.86 427.36
  C 316.11 427.80 314.34 419.17 314.57 412.46
  Q 314.93 401.92 314.51 391.82
  C 314.38 388.72 314.96 385.82 315.02 382.75
  C 315.05 381.49 315.53 380.27 316.15 379.18
  A 0.43 0.43 0.0 0 0 315.83 378.54
  C 312.93 378.17 310.80 376.06 311.04 373.07
  Q 312.11 359.85 312.44 345.52
  C 312.54 341.07 310.18 327.06 318.56 328.33
  C 320.09 328.56 321.63 329.27 322.21 330.84
  C 324.84 338.03 328.68 344.51 331.82 351.47
  Q 332.24 352.41 332.22 351.38
  Q 332.17 349.25 332.22 347.18
  C 332.36 341.56 329.26 328.17 339.07 328.95
  C 342.14 329.19 343.25 331.30 343.32 334.15
  Q 343.48 341.32 343.62 348.12
  Q 343.62 348.48 343.56 348.87
  Q 343.50 349.21 343.58 349.52
  Q 343.65 349.78 343.71 349.52
  C 345.25 342.33 350.67 328.63 360.00 328.73
  C 365.20 328.78 371.39 329.79 375.04 333.58
  C 379.29 338.00 383.09 343.41 383.75 349.70
  C 384.53 357.04 383.17 365.70 378.08 371.09
  Q 376.38 372.89 374.66 374.62
  C 370.20 379.09 362.40 378.39 356.66 376.55
  C 349.38 374.22 345.15 365.32 343.92 358.24
  Q 343.90 358.15 343.81 358.16
  L 343.80 358.16
  Q 343.59 358.19 343.60 358.40
  Z
  M 356.96 356.66
  C 356.46 361.12 359.17 365.93 364.49 365.32
  C 367.09 365.02 367.88 363.55 368.34 361.29
  C 369.29 356.62 370.66 346.92 364.46 346.20
  C 359.29 345.59 357.37 353.11 356.96 356.66
  Z"
/>
<path fill="#000000" d="
  M 263.76 364.29
  C 271.27 366.41 273.12 361.06 273.53 355.12
  Q 273.94 348.97 274.54 342.84
  C 274.88 339.28 274.00 336.32 275.69 332.89
  C 277.91 328.37 282.92 330.03 283.83 334.45
  C 284.57 338.12 284.78 342.17 284.56 345.90
  Q 284.10 353.86 282.98 361.38
  C 282.29 366.05 280.77 370.26 277.39 373.60
  C 273.61 377.34 266.15 377.55 261.58 376.22
  C 254.84 374.26 251.33 365.83 250.61 359.48
  C 249.65 350.93 248.31 341.75 250.25 333.75
  C 251.01 330.59 254.96 329.03 257.56 331.37
  Q 259.91 333.49 259.94 336.60
  Q 260.04 347.26 260.72 356.73
  Q 260.99 360.57 263.10 363.80
  Q 263.34 364.17 263.76 364.29
  Z"
/>
<path fill="#000000" d="
  M 298.46 349.24
  C 301.84 348.96 307.03 348.48 307.39 353.34
  C 307.78 358.55 303.49 360.11 299.22 360.24
  A 1.24 1.24 0.0 0 0 298.02 361.46
  L 298.00 362.53
  Q 297.98 363.69 299.12 363.49
  C 301.86 363.02 308.32 362.77 309.11 366.55
  C 311.16 376.28 296.74 374.03 291.78 373.73
  A 4.30 4.29 -2.5 0 1 287.79 370.08
  C 287.26 366.46 286.62 362.82 286.69 359.21
  Q 286.89 349.04 286.40 340.64
  C 286.25 337.95 287.70 333.81 290.88 333.43
  C 294.44 333.01 303.18 331.74 305.73 333.50
  C 308.32 335.29 309.90 341.91 306.17 343.67
  Q 302.20 345.54 298.59 345.77
  Q 297.91 345.82 297.87 346.50
  L 297.74 348.54
  Q 297.70 349.30 298.46 349.24
  Z"
/>
<path fill="#000000" d="
  M 300.56 408.10
  Q 301.93 406.40 302.10 403.29
  Q 302.68 392.94 302.94 383.95
  Q 303.01 381.39 304.64 379.38
  C 307.46 375.91 311.90 377.49 312.66 381.52
  Q 313.72 387.17 313.40 392.93
  Q 312.97 400.66 311.94 407.64
  C 311.07 413.44 307.42 422.32 300.92 423.62
  C 288.77 426.04 282.22 419.67 280.76 408.63
  C 279.57 399.68 278.20 390.53 279.94 381.60
  Q 280.67 377.83 283.77 377.46
  C 287.62 377.01 289.78 381.90 289.59 385.02
  Q 289.46 387.20 289.68 389.61
  Q 290.44 397.80 290.95 405.76
  C 291.27 410.61 298.10 411.17 300.56 408.10
  Z"
/>
<path fill="#000000" d="
  M 225.65 400.13
  Q 225.53 393.72 225.32 387.50
  Q 225.12 382.01 228.79 379.85
  C 232.40 377.72 236.53 379.52 236.85 383.90
  Q 237.42 391.93 237.31 400.15
  C 237.24 406.16 237.67 412.62 238.11 418.80
  C 238.34 422.14 237.80 427.52 233.45 428.06
  Q 227.85 428.75 225.11 423.93
  Q 221.10 416.85 217.89 410.16
  Q 217.33 408.99 217.31 410.29
  Q 217.24 416.85 216.91 422.87
  C 216.79 424.93 215.89 427.06 213.78 427.84
  C 210.11 429.20 204.14 428.37 204.48 423.28
  Q 205.37 410.18 205.87 396.33
  C 206.05 391.46 204.93 386.60 206.43 381.94
  C 208.05 376.90 213.90 376.97 216.11 381.34
  Q 217.43 383.96 218.33 386.15
  Q 221.43 393.76 224.79 400.35
  Q 225.69 402.11 225.65 400.13
  Z"
/>
<path fill="#000000" d="
  M 337.56 419.64
  Q 329.88 407.25 333.60 394.70
  Q 334.55 391.49 335.83 388.25
  C 337.40 384.26 340.29 381.47 343.90 379.16
  C 346.64 377.41 350.57 377.85 353.62 378.34
  C 357.94 379.04 362.36 380.14 364.68 384.24
  C 365.23 385.20 366.34 385.51 366.89 386.39
  Q 375.99 400.80 368.56 416.48
  C 367.29 419.17 365.28 421.62 363.29 423.76
  C 359.88 427.45 353.78 427.39 349.01 426.70
  Q 341.24 425.56 337.56 419.64
  Z
  M 350.9372 414.6944
  A 9.75 6.34 94.9 0 0 358.0868 405.5215
  A 9.75 6.34 94.9 0 0 352.6028 395.2656
  A 9.75 6.34 94.9 0 0 345.4532 404.4385
  A 9.75 6.34 94.9 0 0 350.9372 414.6944
  Z"
/>
<path fill="#000000" d="
  M 270.76 424.55
  Q 266.63 425.88 260.84 426.36
  C 252.81 427.03 246.92 422.72 241.95 416.56
  Q 239.84 413.96 239.31 411.13
  Q 237.16 399.78 241.69 388.28
  Q 242.03 387.41 242.75 386.82
  C 252.60 378.69 267.31 374.56 276.24 385.67
  Q 277.94 387.79 277.23 390.41
  C 276.03 394.85 270.77 394.84 267.32 393.04
  C 262.70 390.64 258.12 389.88 254.25 394.38
  Q 245.49 404.53 255.84 412.85
  Q 259.23 415.58 263.37 414.45
  Q 267.82 413.24 272.24 411.10
  C 273.84 410.32 275.83 410.55 277.04 411.92
  C 281.63 417.07 275.62 422.98 270.76 424.55
  Z"
/>
<path fill="#000000" d="
  M 197.58 426.49
  A 1.55 1.53 -86.7 0 1 196.65 427.33
  C 193.53 428.30 185.79 428.99 184.36 424.81
  Q 183.76 423.05 183.61 420.84
  Q 182.88 410.71 183.47 401.64
  C 183.76 397.13 183.78 392.64 183.63 388.16
  Q 183.56 386.08 184.75 384.81
  C 187.64 381.71 193.24 382.18 196.52 384.08
  Q 197.67 384.74 197.85 385.99
  C 198.63 391.45 198.98 397.05 198.66 402.68
  Q 198.07 412.66 198.31 422.87
  Q 198.35 424.72 197.58 426.49
  Z"
/>
</svg>
