<?xml version="1.0" encoding="UTF-8" standalone="no"?>
<!DOCTYPE svg PUBLIC "-//W3C//DTD SVG 1.1//EN" "http://www.w3.org/Graphics/SVG/1.1/DTD/svg11.dtd">
<svg xmlns="http://www.w3.org/2000/svg" version="1.1" viewBox="0.00 0.00 270.00 356.00">
<path fill="#fec868" d="
  M 115.29 33.08
  L 117.21 33.87
  A 2.32 2.32 0.0 0 1 118.65 35.81
  C 119.04 40.13 118.55 45.77 115.06 48.90
  Q 112.58 51.11 111.48 54.49
  Q 107.92 65.36 95.67 69.59
  Q 92.33 70.74 88.74 69.80
  C 81.80 67.97 75.73 63.06 73.01 56.31
  C 72.03 53.87 71.22 51.26 69.30 49.38
  C 68.20 48.30 66.94 47.18 66.44 45.68
  C 65.47 42.76 64.58 38.31 65.43 35.17
  Q 65.58 34.59 66.12 34.32
  L 68.98 32.95
  A 1.02 1.01 71.5 0 0 69.53 31.83
  Q 67.74 23.16 68.91 14.93
  C 69.12 13.39 70.22 11.91 71.52 11.07
  Q 75.23 8.69 78.16 4.95
  C 79.03 3.84 80.75 2.72 82.12 2.41
  Q 95.79 -0.69 108.09 5.34
  C 114.80 8.63 117.41 16.67 116.09 23.61
  Q 115.29 27.85 114.65 31.95
  Q 114.53 32.77 115.29 33.08
  Z"
/>
<path fill="#fec868" d="
  M 191.47 63.23
  C 190.59 62.83 189.80 62.55 188.89 63.13
  Q 185.89 65.01 182.94 66.28
  C 177.62 68.57 171.17 66.47 166.66 63.27
  A 1.69 1.68 47.2 0 0 164.82 63.19
  C 156.98 67.84 143.88 69.90 135.96 64.22
  A 0.88 0.88 0.0 0 1 135.96 62.78
  C 145.27 56.15 150.82 46.11 151.47 34.64
  C 151.95 26.15 152.10 16.92 159.00 10.81
  Q 167.52 3.27 179.43 4.00
  C 187.68 4.50 198.54 9.11 201.45 17.66
  C 203.26 22.99 203.61 29.06 203.81 34.82
  C 204.23 46.59 209.53 55.82 219.74 62.79
  A 0.85 0.85 0.0 0 1 219.65 64.25
  C 211.03 68.65 200.09 67.13 191.47 63.23
  Z"
/>
<path fill="#fec868" d="
  M 77.53 165.31
  C 71.58 162.74 64.96 156.39 61.37 151.89
  Q 59.05 148.99 56.70 146.06
  C 50.98 138.90 46.51 130.38 43.47 121.83
  Q 40.41 113.26 40.84 103.44
  Q 41.30 92.87 48.26 86.11
  C 52.21 82.28 63.31 76.71 68.55 80.15
  Q 76.61 85.46 82.81 87.31
  C 94.28 90.74 105.88 87.04 115.40 80.37
  C 119.68 77.37 125.58 80.19 129.81 81.97
  Q 135.51 84.38 140.95 81.46
  C 144.19 79.73 150.57 77.77 153.94 80.14
  C 164.29 87.43 175.35 91.08 187.78 86.86
  Q 194.55 84.56 201.18 80.22
  C 206.09 77.00 215.39 81.61 219.59 84.58
  C 226.56 89.50 229.09 100.06 228.23 107.92
  Q 226.11 127.38 213.58 144.16
  C 207.44 152.39 201.32 159.41 192.90 164.77
  Q 191.08 165.93 193.24 165.76
  Q 202.68 165.00 209.20 165.21
  A 2.76 2.75 -13.1 0 1 211.55 166.67
  Q 212.16 167.79 212.11 168.66
  A 3.85 3.82 1.1 0 1 208.32 172.28
  Q 182.66 172.61 164.78 180.74
  Q 158.89 183.42 152.18 187.53
  Q 146.44 191.04 142.21 196.24
  Q 141.00 197.73 142.80 197.06
  Q 184.06 181.68 222.28 203.84
  C 223.39 204.48 223.74 205.93 223.74 207.11
  Q 223.79 217.13 223.74 227.67
  A 3.53 3.53 0.0 0 1 218.82 230.89
  C 211.52 227.74 204.34 224.07 196.75 222.09
  C 178.28 217.27 158.47 218.71 141.29 227.09
  Q 137.11 229.13 132.42 231.02
  A 2.24 2.21 -43.9 0 1 130.70 231.00
  C 124.57 228.31 118.67 225.14 112.28 223.16
  C 93.78 217.42 73.91 217.96 56.19 225.76
  Q 50.30 228.36 44.63 230.84
  A 3.56 3.56 0.0 0 1 39.65 227.60
  Q 39.58 217.10 39.67 206.71
  Q 39.69 204.60 41.53 203.55
  Q 79.91 181.79 120.77 197.10
  Q 122.31 197.67 121.27 196.41
  Q 117.18 191.44 112.51 188.40
  C 106.40 184.42 99.33 180.57 92.21 178.19
  Q 74.55 172.29 55.42 172.30
  Q 51.83 172.31 51.40 168.73
  Q 51.27 167.64 51.85 166.57
  A 2.71 2.70 -75.6 0 1 54.22 165.16
  Q 65.06 165.10 77.25 166.39
  Q 80.90 166.77 77.53 165.31
  Z
  M 121.72 148.71
  C 126.86 153.26 134.49 153.24 139.96 149.15
  Q 143.68 146.36 146.15 142.10
  C 147.58 139.61 148.25 136.74 150.50 134.70
  C 152.93 132.51 153.51 128.33 153.09 125.01
  Q 152.83 123.02 150.83 122.36
  A 1.77 1.77 0.0 0 1 149.67 120.23
  C 151.35 113.81 152.77 106.65 146.72 102.16
  C 140.50 97.55 132.33 96.39 124.59 97.82
  Q 121.38 98.41 118.91 101.23
  C 117.45 102.90 115.47 103.85 113.69 105.13
  Q 113.29 105.42 113.11 105.89
  C 111.44 110.38 112.11 115.48 112.31 120.31
  Q 112.34 121.03 111.86 121.57
  Q 107.94 125.91 110.29 132.35
  C 111.07 134.52 113.09 135.81 114.02 138.02
  Q 116.63 144.21 121.72 148.71
  Z
  M 133.45 160.85
  C 125.13 161.47 117.70 158.63 111.39 153.28
  C 108.09 150.47 102.42 153.90 100.31 156.51
  Q 95.70 162.22 94.60 170.25
  Q 94.53 170.78 95.03 170.96
  C 109.33 176.23 122.48 184.59 131.33 197.01
  A 0.54 0.54 0.0 0 0 132.21 197.01
  C 140.80 184.79 152.88 177.22 167.17 171.41
  Q 167.97 171.09 167.74 170.26
  Q 166.48 165.63 164.59 160.46
  Q 162.35 154.33 155.96 152.57
  Q 153.28 151.83 151.28 153.34
  C 145.96 157.37 140.36 160.33 133.45 160.85
  Z
  M 117.50 204.30
  C 101.67 197.78 83.55 196.91 66.72 201.25
  C 60.08 202.96 54.04 205.98 47.82 208.41
  A 0.86 0.85 79.6 0 0 47.27 209.21
  L 47.27 220.46
  A 0.57 0.57 0.0 0 0 48.09 220.97
  C 74.36 208.11 105.22 208.40 130.79 222.97
  A 1.63 1.62 45.2 0 0 132.41 222.98
  C 157.81 208.66 188.51 207.87 214.97 220.76
  Q 216.13 221.33 216.13 220.03
  L 216.10 209.39
  A 1.04 1.03 10.9 0 0 215.44 208.43
  C 209.85 206.25 204.21 203.33 198.30 201.67
  C 180.19 196.58 160.00 197.58 142.69 205.62
  Q 137.60 207.98 132.84 210.04
  A 3.17 3.16 -43.6 0 1 130.23 209.98
  Q 123.96 206.96 117.50 204.30
  Z"
/>
<path fill="#fec868" d="
  M 43.63 356.00
  L 31.86 356.00
  Q 22.56 354.80 15.12 347.41
  Q 2.67 335.06 2.66 320.13
  Q 2.61 281.96 2.63 244.86
  C 2.63 242.28 5.32 240.21 7.60 238.78
  Q 16.23 233.37 27.03 233.72
  C 39.22 234.12 47.29 239.77 54.52 249.08
  Q 58.31 253.96 58.74 258.82
  Q 58.81 259.62 59.52 259.23
  C 60.23 258.84 60.97 258.45 61.80 258.36
  Q 68.59 257.68 75.00 257.44
  C 76.69 257.38 78.77 257.88 79.40 259.70
  C 80.40 262.63 81.43 269.19 76.83 269.35
  Q 72.96 269.48 69.30 269.74
  Q 68.56 269.80 68.63 270.54
  L 68.87 273.00
  Q 68.99 274.20 70.19 274.11
  Q 73.02 273.92 76.09 274.11
  C 80.03 274.35 79.79 278.26 79.39 281.04
  Q 79.31 281.60 78.83 281.90
  C 76.48 283.38 71.98 283.33 69.42 283.24
  Q 68.37 283.21 68.50 284.25
  L 68.89 287.25
  Q 69.02 288.24 70.03 288.27
  Q 73.01 288.35 75.98 288.17
  C 79.67 287.95 81.86 290.97 81.11 294.41
  C 80.90 295.33 80.30 295.91 79.89 296.70
  Q 79.03 298.36 80.65 297.43
  C 85.56 294.63 89.21 300.37 85.05 303.54
  Q 80.87 306.72 77.45 308.34
  C 75.21 309.39 72.17 308.15 71.57 305.57
  C 70.99 303.06 74.40 300.38 76.27 299.36
  Q 76.60 299.18 76.43 298.85
  Q 76.33 298.66 76.14 298.58
  Q 75.99 298.52 75.83 298.55
  Q 70.67 299.27 64.05 298.54
  C 60.88 298.19 59.84 296.38 59.63 293.37
  Q 59.11 286.10 59.48 279.37
  Q 59.71 275.19 58.35 279.15
  Q 54.36 290.79 43.45 297.10
  C 37.38 300.62 31.07 302.61 24.01 302.04
  A 0.59 0.58 4.3 0 0 23.37 302.58
  Q 22.68 312.93 23.66 322.41
  C 24.22 327.82 25.83 332.88 30.32 336.04
  A 2.33 2.33 0.0 0 0 33.14 335.93
  C 34.91 334.47 36.65 332.94 37.91 331.01
  C 39.79 328.11 41.87 325.36 43.08 322.09
  Q 45.54 315.37 49.50 309.41
  C 51.43 306.50 55.45 304.11 58.41 307.04
  C 61.36 309.97 63.04 313.94 61.39 318.10
  Q 59.96 321.72 58.96 325.58
  Q 58.06 329.06 56.38 332.99
  Q 52.37 342.39 48.20 351.72
  Q 46.61 355.29 43.63 356.00
  Z
  M 22.34 261.17
  Q 22.85 271.53 23.32 281.81
  Q 23.34 282.43 23.95 282.48
  Q 31.22 283.11 36.92 280.32
  A 2.22 2.19 -1.8 0 0 37.97 279.22
  Q 40.33 273.80 39.25 269.28
  C 37.09 260.22 31.82 256.08 22.55 255.62
  A 0.66 0.66 0.0 0 0 21.86 256.38
  Q 22.22 258.74 22.34 261.17
  Z"
/>
<path fill="#fec868" d="
  M 119.03 282.45
  A 0.38 0.38 0.0 0 0 119.69 282.23
  Q 119.95 279.11 119.02 275.21
  Q 118.51 273.04 116.44 273.03
  C 112.65 273.02 103.32 272.00 104.56 265.87
  C 106.22 257.68 118.02 258.54 122.99 262.53
  Q 130.23 268.35 130.55 278.26
  Q 130.65 281.27 128.69 290.22
  C 128.33 291.83 127.69 292.83 127.12 294.26
  A 0.91 0.91 0.0 0 0 127.42 295.33
  Q 129.69 297.06 131.66 299.03
  Q 133.57 300.94 131.47 302.61
  Q 128.46 305.00 124.62 306.63
  Q 122.82 307.40 121.46 305.88
  Q 119.85 304.08 118.74 302.14
  Q 118.46 301.65 117.92 301.84
  C 113.74 303.32 109.26 303.73 105.09 302.58
  C 99.72 301.12 95.38 296.62 91.34 292.73
  C 84.99 286.60 83.47 275.24 84.37 267.02
  C 84.92 262.05 87.53 257.59 90.29 253.52
  C 93.69 248.50 100.06 244.97 105.52 243.61
  C 110.34 242.41 123.42 242.22 120.79 250.75
  C 119.99 253.35 117.15 255.73 114.26 255.23
  Q 107.85 254.12 103.35 259.18
  Q 97.52 265.73 96.90 272.27
  C 96.45 276.98 98.17 285.02 102.71 288.12
  Q 105.99 290.36 109.27 291.14
  Q 110.68 291.47 109.89 290.26
  C 107.76 287.02 103.86 283.81 106.97 279.55
  C 109.57 275.99 116.06 277.40 117.97 280.91
  Q 118.42 281.75 119.03 282.45
  Z"
/>
<path fill="#fec868" d="
  M 225.33 284.94
  Q 224.83 283.46 225.00 285.02
  Q 225.55 289.99 225.76 295.00
  Q 225.87 297.78 225.24 300.15
  C 224.20 303.99 218.45 304.15 215.81 302.78
  Q 213.96 301.83 212.31 298.62
  Q 209.01 292.18 205.60 287.04
  Q 204.74 285.75 204.76 287.30
  Q 204.87 293.61 204.45 299.34
  Q 204.33 300.95 203.51 302.49
  A 0.67 0.67 0.0 0 0 203.77 303.39
  C 206.18 304.72 208.05 305.84 207.92 309.01
  C 207.77 312.75 208.10 316.38 207.78 320.10
  Q 206.90 330.25 208.36 339.97
  C 208.76 342.59 211.99 342.18 213.91 342.13
  C 217.47 342.04 219.16 347.78 217.72 350.34
  C 215.82 353.73 211.23 353.33 207.81 353.58
  Q 204.43 353.83 202.70 353.19
  C 194.43 350.16 196.23 337.58 196.40 330.92
  Q 196.45 328.58 196.27 321.10
  Q 196.10 314.44 196.94 308.03
  C 197.06 307.08 197.47 306.41 197.72 305.53
  Q 197.89 304.94 197.28 304.85
  C 194.33 304.46 192.49 302.33 192.73 299.29
  C 193.68 287.54 194.41 275.25 193.86 263.30
  C 193.73 260.64 194.58 256.23 197.45 254.97
  C 199.64 254.01 202.66 254.89 203.65 257.22
  Q 207.84 266.98 213.30 277.52
  Q 213.84 278.57 213.86 277.39
  Q 213.99 271.97 213.54 266.67
  C 213.23 263.08 213.56 257.35 217.51 255.79
  C 220.00 254.80 224.30 255.36 224.61 258.72
  Q 225.35 266.45 225.02 274.65
  Q 224.97 275.91 225.38 274.72
  C 227.96 267.22 232.39 254.55 242.83 255.17
  C 248.05 255.48 253.47 256.50 257.04 260.37
  C 261.24 264.94 264.84 270.25 265.35 276.56
  Q 266.21 287.04 262.03 294.19
  Q 260.07 297.55 256.17 301.06
  C 252.10 304.73 246.47 304.73 241.29 303.75
  C 231.21 301.82 228.36 293.80 225.33 284.94
  Z
  M 250.65 278.11
  C 250.34 274.29 246.89 270.65 243.04 273.33
  C 240.71 274.95 239.82 277.37 239.06 279.99
  C 237.52 285.25 239.47 293.27 246.73 291.65
  Q 249.06 291.13 249.67 288.90
  Q 251.10 283.70 250.65 278.11
  Z"
/>
<path fill="#fec868" d="
  M 144.06 289.38
  C 145.02 291.50 148.54 291.43 150.49 290.90
  C 153.61 290.04 154.61 286.31 154.92 283.53
  Q 156.10 273.21 156.36 263.12
  Q 156.45 259.22 159.26 257.23
  C 161.98 255.30 164.79 257.97 165.33 260.54
  C 166.92 268.15 165.96 275.83 165.16 283.72
  C 163.91 296.01 159.45 305.29 144.45 302.89
  C 137.35 301.75 133.42 293.42 132.52 287.13
  Q 131.37 279.03 130.99 270.41
  Q 130.76 265.17 131.84 260.36
  C 132.46 257.60 135.85 255.48 138.43 257.31
  Q 141.36 259.38 141.41 262.27
  Q 141.58 271.96 142.04 280.76
  Q 142.28 285.45 144.06 289.38
  Z"
/>
<path fill="#fec868" d="
  M 179.51 288.37
  L 179.52 288.70
  A 1.28 1.27 -5.2 0 0 180.99 289.92
  C 183.69 289.49 189.51 289.26 190.50 292.50
  C 193.58 302.55 177.90 300.48 173.12 299.99
  C 170.59 299.73 169.68 298.04 169.30 295.59
  Q 167.96 286.84 168.35 277.68
  C 168.50 274.03 168.23 270.64 168.06 267.03
  C 167.92 264.21 169.36 260.17 172.60 259.82
  Q 178.54 259.18 184.33 259.07
  Q 187.84 259.01 189.07 262.27
  C 189.87 264.39 190.74 268.25 188.27 269.66
  Q 184.84 271.62 180.67 271.99
  A 1.52 1.52 0.0 0 0 179.30 273.38
  L 179.23 274.22
  Q 179.12 275.61 180.52 275.53
  C 183.91 275.34 188.30 275.01 188.88 279.49
  C 189.58 284.96 185.29 286.05 180.99 286.63
  Q 179.47 286.83 179.51 288.37
  Z"
/>
<path fill="#fec868" d="
  M 179.11 336.31
  C 182.49 335.65 183.56 332.82 183.74 329.78
  Q 184.36 319.46 184.59 310.55
  C 184.67 307.45 186.77 303.55 190.37 303.98
  C 194.33 304.45 194.77 309.48 194.91 312.64
  Q 195.45 324.83 192.96 336.57
  Q 191.89 341.58 188.33 346.20
  C 184.42 351.26 176.58 351.36 171.15 349.21
  C 167.05 347.58 163.94 342.66 163.10 338.45
  Q 161.42 329.94 160.83 319.60
  Q 160.50 313.73 161.52 308.09
  C 162.57 302.25 168.70 302.72 170.54 307.74
  Q 170.97 308.89 171.05 310.76
  Q 171.43 319.07 172.27 329.11
  Q 172.60 332.99 173.42 334.28
  Q 175.21 337.08 179.11 336.31
  Z"
/>
<path fill="#fec868" d="
  M 217.37 314.95
  C 219.37 309.81 224.82 304.21 230.83 304.35
  C 235.62 304.46 242.59 305.47 245.69 309.72
  C 247.08 311.62 248.75 312.82 249.83 315.05
  Q 253.17 321.97 253.41 327.04
  Q 254.05 340.06 245.31 349.69
  Q 242.67 352.60 239.05 353.06
  C 231.66 354.00 222.16 352.76 218.67 344.91
  C 217.56 342.41 216.02 340.33 215.29 337.63
  C 212.96 329.08 214.35 322.72 217.37 314.95
  Z
  M 232.5276 341.1228
  A 9.78 6.39 95.0 0 0 239.7457 331.9369
  A 9.78 6.39 95.0 0 0 234.2324 321.6372
  A 9.78 6.39 95.0 0 0 227.0143 330.8231
  A 9.78 6.39 95.0 0 0 232.5276 341.1228
  Z"
/>
<path fill="#fec868" d="
  M 106.66 326.92
  Q 107.56 327.93 107.46 326.58
  Q 106.87 318.47 107.08 312.47
  Q 107.28 306.53 112.56 305.63
  Q 117.59 304.77 118.31 309.90
  C 119.36 317.32 118.54 326.70 119.03 335.12
  Q 119.33 340.33 119.64 345.80
  C 119.86 349.66 119.05 354.31 114.25 354.47
  Q 109.20 354.65 106.81 350.39
  Q 102.90 343.42 99.66 336.79
  Q 98.73 334.90 98.75 337.00
  Q 98.80 342.71 98.53 348.61
  Q 98.21 355.47 90.91 354.68
  C 85.55 354.11 86.07 350.45 86.36 345.89
  Q 87.07 335.08 87.51 323.90
  Q 87.63 320.90 87.47 318.11
  C 87.25 314.30 86.88 310.33 88.77 306.87
  C 91.09 302.62 96.43 304.73 97.96 308.21
  Q 101.42 316.05 105.17 324.55
  Q 105.77 325.91 106.66 326.92
  Z"
/>
<path fill="#fec868" d="
  M 135.51 321.09
  C 132.57 324.68 130.50 328.82 132.76 333.51
  C 135.11 338.39 139.97 342.60 145.49 340.77
  Q 149.81 339.34 153.88 337.60
  Q 157.36 336.11 159.31 339.13
  C 162.51 344.07 156.96 349.33 152.63 350.78
  Q 148.13 352.30 142.25 352.73
  C 133.75 353.35 126.86 347.96 122.36 341.09
  Q 121.40 339.63 121.05 337.82
  Q 118.95 326.89 122.95 315.62
  C 124.06 312.51 128.49 310.11 131.21 308.67
  C 140.30 303.84 151.99 303.66 158.28 312.73
  C 159.27 314.17 159.29 316.39 158.33 317.85
  C 155.70 321.88 151.10 320.58 147.53 318.75
  C 143.13 316.48 138.83 317.03 135.51 321.09
  Z"
/>
<path fill="#fec868" d="
  M 78.22 353.64
  C 74.25 354.87 66.29 355.45 65.59 349.67
  C 64.73 342.47 64.61 335.52 65.06 328.39
  Q 65.52 321.06 65.31 314.32
  C 65.10 307.50 78.95 307.47 79.50 313.05
  C 79.94 317.43 80.53 321.59 80.30 326.04
  Q 79.67 337.78 79.85 349.44
  Q 79.87 351.23 79.07 352.90
  A 1.38 1.38 0.0 0 1 78.22 353.64
  Z"
/>
</svg>
