<?xml version="1.0" encoding="UTF-8" standalone="no"?>
<!DOCTYPE svg PUBLIC "-//W3C//DTD SVG 1.1//EN" "http://www.w3.org/Graphics/SVG/1.1/DTD/svg11.dtd">
<svg xmlns="http://www.w3.org/2000/svg" version="1.1" viewBox="0.00 0.00 500.00 500.00">
<path fill="#000000" d="
  M 101.79 207.80
  Q 102.54 207.95 103.10 208.46
  Q 103.64 208.96 103.68 209.69
  Q 103.84 213.02 102.97 216.18
  C 102.37 218.36 100.18 218.46 99.41 220.44
  C 97.54 225.27 95.53 229.25 90.72 231.70
  Q 86.02 234.08 81.14 231.97
  Q 76.23 229.83 73.59 225.57
  C 72.49 223.79 72.44 221.81 71.62 219.93
  Q 71.38 219.36 70.84 219.04
  C 67.64 217.12 67.86 214.05 67.56 210.73
  Q 67.33 208.29 69.74 207.80
  A 1.00 1.00 0.0 0 0 70.52 206.60
  C 69.80 203.36 68.74 195.67 71.49 193.17
  Q 74.08 190.81 76.21 188.44
  Q 77.25 187.27 79.05 186.90
  Q 87.87 185.05 95.20 188.26
  C 100.56 190.60 103.01 195.82 101.90 201.37
  Q 101.38 203.96 100.96 206.63
  Q 100.81 207.62 101.79 207.80
  Z"
/>
<path fill="#000000" d="
  M 135.22 228.36
  C 129.92 231.11 120.00 233.20 115.19 228.85
  A 0.81 0.81 0.0 0 1 115.25 227.60
  C 119.41 224.43 123.00 220.58 124.73 215.75
  C 127.78 207.22 123.81 198.00 132.46 191.60
  Q 139.47 186.41 148.79 188.55
  C 155.81 190.17 160.35 195.04 160.87 202.24
  Q 161.22 207.02 161.81 211.88
  C 162.57 218.18 167.11 223.98 172.23 227.55
  A 0.99 0.99 0.0 0 1 172.02 229.28
  Q 165.25 231.89 158.00 230.00
  Q 156.79 229.69 152.71 228.07
  Q 152.20 227.87 151.74 228.16
  C 146.42 231.51 141.71 232.10 136.36 228.43
  Q 135.81 228.05 135.22 228.36
  Z"
/>
<path fill="#000000" d="
  M 260.68 272.78
  Q 255.00 273.30 249.03 272.67
  Q 245.16 272.26 244.80 268.79
  Q 244.02 261.44 244.10 251.52
  Q 244.10 251.41 244.04 251.31
  Q 243.97 251.20 243.80 251.23
  Q 243.76 251.24 243.74 251.29
  Q 239.69 263.75 231.24 269.58
  Q 221.18 276.51 209.33 276.35
  Q 208.79 276.34 208.75 276.88
  Q 207.97 287.88 209.23 297.72
  C 209.67 301.23 212.77 310.65 217.52 310.02
  A 1.57 1.56 16.2 0 0 218.51 309.48
  Q 221.78 305.62 225.61 300.92
  Q 226.93 299.31 227.69 297.23
  Q 230.23 290.29 234.23 283.45
  C 236.32 279.88 240.73 278.49 244.05 281.57
  C 250.28 287.37 245.61 293.02 243.86 299.22
  C 242.69 303.39 240.54 307.09 239.41 311.21
  C 238.11 315.95 235.56 320.03 233.64 324.60
  Q 232.28 327.84 230.29 329.24
  C 224.27 333.48 211.66 328.98 206.27 325.59
  C 203.09 323.60 199.91 321.61 197.58 318.59
  C 191.30 310.46 187.98 302.74 187.99 291.77
  Q 188.02 254.65 187.98 220.01
  Q 187.97 217.00 190.26 215.24
  C 193.62 212.66 197.72 210.14 201.82 209.26
  Q 223.77 204.59 237.81 220.94
  Q 240.78 224.41 243.94 233.74
  Q 244.22 234.56 244.64 233.80
  C 245.07 233.03 245.83 232.63 246.71 232.58
  Q 252.36 232.29 257.31 231.87
  C 259.82 231.66 263.34 231.65 264.43 234.54
  C 265.86 238.32 265.83 243.27 260.38 243.35
  Q 257.24 243.39 254.14 243.92
  Q 253.61 244.02 253.66 244.56
  L 254.01 247.77
  Q 254.09 248.44 254.75 248.38
  C 257.96 248.08 263.43 247.41 264.41 251.52
  Q 265.62 256.60 260.26 257.19
  Q 256.95 257.55 253.99 257.47
  Q 253.40 257.46 253.49 258.04
  L 253.99 261.31
  Q 254.10 262.03 254.83 262.01
  Q 258.02 261.90 261.29 261.86
  C 262.82 261.85 264.65 262.60 265.38 264.01
  Q 267.65 268.41 264.16 271.44
  Q 263.96 271.62 264.12 271.83
  L 264.27 272.05
  Q 264.30 272.09 264.34 272.06
  C 267.62 269.58 272.75 270.54 271.44 275.71
  C 270.77 278.36 263.66 281.74 261.20 282.13
  C 259.05 282.47 255.98 281.36 256.51 278.56
  C 257.00 275.95 259.06 274.90 260.88 273.26
  Q 261.49 272.71 260.68 272.78
  Z
  M 209.36 256.54
  Q 216.14 257.35 221.57 254.47
  Q 222.65 253.90 223.17 252.82
  Q 227.53 243.81 219.63 234.74
  Q 215.76 230.30 207.93 230.12
  Q 207.35 230.10 207.38 230.68
  L 208.71 255.85
  Q 208.75 256.46 209.36 256.54
  Z"
/>
<path fill="#000000" d="
  M 294.92 264.40
  Q 293.75 262.27 292.09 260.73
  Q 290.60 259.34 290.62 257.42
  Q 290.68 251.56 296.57 251.73
  Q 301.54 251.87 303.28 256.76
  Q 303.65 257.80 303.75 256.70
  Q 304.12 252.88 302.82 248.43
  A 1.49 1.47 -6.9 0 0 301.47 247.38
  C 296.93 247.20 291.88 247.17 289.60 242.44
  C 288.13 239.38 290.75 236.10 293.40 234.96
  C 299.21 232.47 304.85 234.45 309.46 238.35
  C 314.41 242.54 315.74 250.57 314.77 256.56
  Q 314.02 261.21 312.95 265.70
  Q 312.69 266.78 311.96 267.66
  A 1.15 1.15 0.0 0 0 311.99 269.15
  Q 313.38 270.72 315.04 271.80
  C 320.69 275.51 312.92 278.90 310.41 280.26
  C 307.14 282.02 304.33 279.46 303.17 276.53
  Q 302.88 275.81 302.15 276.06
  C 294.15 278.79 286.41 277.08 280.62 271.20
  Q 278.47 269.02 276.22 266.79
  C 268.85 259.50 266.73 243.33 271.35 234.15
  Q 274.42 228.05 278.59 223.72
  C 283.83 218.30 292.07 216.79 299.40 217.67
  C 306.78 218.55 307.49 224.70 302.24 228.92
  Q 300.85 230.04 299.06 229.67
  C 291.49 228.14 287.43 233.91 283.54 239.32
  C 279.92 244.35 280.81 257.48 286.19 260.90
  C 288.68 262.48 291.54 264.61 294.51 265.00
  Q 295.31 265.11 294.92 264.40
  Z"
/>
<path fill="#000000" d="
  M 409.53 250.74
  Q 410.91 238.15 420.04 231.16
  C 421.63 229.95 423.92 229.46 425.92 229.52
  C 431.15 229.67 437.18 230.71 440.70 234.63
  Q 443.14 237.36 445.47 240.35
  Q 446.63 241.84 447.21 243.75
  Q 450.09 253.29 447.30 264.56
  C 446.18 269.04 443.20 271.89 440.13 274.95
  C 435.19 279.87 426.23 278.83 420.39 276.26
  C 414.01 273.45 410.22 264.27 409.64 257.87
  Q 409.62 257.67 409.42 257.68
  L 409.12 257.69
  Q 409.06 257.70 409.06 257.76
  Q 409.19 263.44 409.73 269.26
  C 410.12 273.39 408.34 277.53 403.71 277.67
  C 398.23 277.83 397.04 274.03 394.91 270.16
  Q 392.33 265.48 389.97 261.12
  Q 389.08 259.46 389.04 261.34
  Q 388.93 267.07 388.62 272.76
  Q 388.50 274.98 387.04 276.62
  Q 386.60 277.12 387.24 277.30
  Q 392.35 278.73 392.02 283.50
  C 391.76 287.11 392.24 290.65 391.88 294.25
  Q 390.97 303.43 392.51 314.09
  A 1.96 1.95 -2.7 0 0 394.35 315.76
  L 399.00 316.01
  Q 399.56 316.04 399.95 316.43
  C 403.49 319.94 403.19 325.41 397.59 326.28
  Q 393.36 326.93 388.59 327.13
  Q 387.47 327.17 386.55 326.64
  Q 380.09 322.94 380.34 314.94
  Q 380.68 304.16 380.26 292.51
  C 380.14 289.17 380.74 286.17 380.77 282.94
  C 380.78 281.73 381.22 280.75 381.81 279.72
  Q 382.17 279.10 381.46 278.98
  Q 378.81 278.52 377.51 276.55
  Q 376.69 275.32 376.91 272.37
  Q 377.77 260.70 378.19 247.59
  C 378.35 242.47 377.32 237.18 378.88 232.33
  C 380.18 228.30 385.55 227.79 387.36 231.34
  Q 391.31 239.11 397.38 251.95
  Q 397.73 252.69 397.77 251.87
  Q 398.07 246.51 397.53 240.82
  C 397.20 237.36 397.65 231.07 401.79 229.99
  Q 408.08 228.35 408.44 234.99
  Q 408.83 242.31 409.17 250.59
  Q 409.18 250.83 409.42 250.83
  L 409.43 250.83
  Q 409.52 250.83 409.53 250.74
  Z
  M 422.39 258.27
  C 422.39 261.04 424.45 264.33 426.91 265.54
  C 429.13 266.62 432.32 265.57 433.14 263.19
  C 434.55 259.13 436.72 247.00 429.29 246.80
  C 424.38 246.67 422.39 254.87 422.39 258.27
  Z"
/>
<path fill="#000000" d="
  M 316.82 259.95
  C 315.81 251.67 314.68 242.95 316.31 234.86
  C 316.91 231.88 320.53 229.50 323.19 232.01
  C 325.00 233.71 325.50 235.39 325.54 237.87
  Q 325.70 246.39 326.49 255.97
  Q 326.80 259.76 328.82 263.35
  C 329.95 265.35 333.30 265.30 335.05 264.63
  C 338.22 263.40 339.38 258.76 339.58 255.75
  Q 340.00 249.19 340.58 242.94
  Q 340.78 240.77 340.63 238.67
  C 340.45 236.20 342.05 230.07 345.82 231.03
  Q 349.06 231.84 349.70 234.94
  C 351.37 242.92 350.22 251.08 349.36 259.21
  Q 348.59 266.42 344.61 272.23
  Q 342.42 275.43 339.63 276.35
  C 334.25 278.14 325.59 278.15 321.79 272.75
  Q 317.66 266.90 316.82 259.95
  Z"
/>
<path fill="#000000" d="
  M 364.36 249.90
  C 366.82 249.44 370.25 249.28 372.00 251.28
  C 374.03 253.61 373.43 257.09 371.18 258.99
  C 369.44 260.46 366.83 260.26 364.67 260.58
  Q 363.84 260.70 363.84 261.54
  L 363.82 262.83
  A 0.64 0.64 0.0 0 0 364.52 263.47
  C 369.59 263.04 375.75 262.74 374.97 269.84
  C 374.57 273.52 369.47 274.58 366.47 274.53
  Q 361.70 274.46 357.49 274.16
  C 355.46 274.02 353.98 272.38 353.68 270.42
  Q 352.23 260.86 352.63 252.09
  C 352.78 248.78 352.72 245.45 352.34 242.12
  C 351.98 238.90 353.44 234.39 357.27 234.08
  Q 360.25 233.83 362.94 233.64
  C 368.75 233.22 373.56 232.31 374.12 239.93
  C 374.46 244.57 368.30 246.05 364.66 246.30
  Q 363.82 246.36 363.75 247.21
  L 363.61 249.23
  A 0.64 0.63 -3.2 0 0 364.36 249.90
  Z"
/>
<path fill="#000000" d="
  M 154.28 297.69
  L 164.22 297.16
  A 2.82 2.81 67.2 0 1 166.45 298.08
  Q 167.49 299.23 167.30 300.28
  Q 166.92 302.25 164.92 302.29
  Q 160.43 302.38 155.86 302.69
  C 142.72 303.60 128.33 308.77 119.70 318.71
  Q 118.96 319.56 120.01 319.17
  C 134.88 313.59 150.30 313.30 164.85 319.21
  Q 169.53 321.12 174.00 323.21
  A 2.06 2.03 12.5 0 1 175.18 325.04
  Q 175.25 332.53 175.16 339.94
  C 175.13 342.46 172.81 342.95 170.92 341.91
  Q 142.25 326.13 113.43 342.30
  A 1.63 1.63 0.0 0 1 111.83 342.30
  Q 82.81 326.05 53.84 342.10
  C 51.96 343.14 50.45 341.54 50.45 339.71
  Q 50.47 332.60 50.46 325.11
  A 2.28 2.25 -14.0 0 1 51.68 323.11
  C 69.05 314.04 86.95 312.07 105.27 319.26
  Q 106.28 319.66 105.59 318.82
  C 100.97 313.22 93.13 308.57 86.50 306.24
  Q 74.53 302.04 60.59 302.39
  A 2.68 2.68 0.0 0 1 57.87 300.12
  Q 57.80 299.69 57.94 299.28
  Q 58.59 297.37 60.60 297.30
  Q 67.70 297.05 76.66 298.67
  Q 76.86 298.71 76.92 298.51
  L 77.00 298.26
  Q 77.02 298.20 76.95 298.17
  Q 75.09 297.52 73.59 296.35
  Q 65.06 289.73 58.19 279.66
  Q 51.92 270.46 51.27 258.42
  C 51.02 253.77 51.72 248.02 54.94 244.49
  Q 60.41 238.50 68.10 239.00
  C 70.91 239.19 72.49 241.50 74.90 242.67
  Q 87.95 248.99 100.07 240.30
  C 103.62 237.76 109.01 239.24 112.85 240.98
  C 114.09 241.54 115.67 241.40 116.88 240.86
  C 120.59 239.19 125.88 237.81 129.48 240.44
  C 137.06 245.98 145.70 246.82 154.41 242.67
  Q 156.08 241.87 157.60 240.60
  C 161.21 237.57 167.49 239.16 171.05 241.53
  Q 177.35 245.73 177.96 252.70
  C 178.85 262.77 175.98 271.54 170.59 279.72
  Q 163.75 290.10 154.13 297.29
  Q 153.55 297.73 154.28 297.69
  Z
  M 125.27 276.83
  Q 127.85 274.47 127.02 269.68
  Q 126.82 268.54 125.67 268.13
  A 1.26 1.25 -74.6 0 1 124.86 266.69
  Q 125.31 264.52 125.66 262.33
  C 127.28 252.36 114.17 250.26 107.50 251.73
  C 104.77 252.33 103.30 254.69 101.10 256.22
  C 98.47 258.07 99.10 263.60 99.31 266.33
  Q 99.37 267.06 98.91 267.63
  C 97.35 269.60 96.54 274.20 98.69 276.47
  Q 100.04 277.90 100.92 279.73
  Q 102.98 283.98 106.54 286.56
  C 113.62 291.69 121.08 285.52 123.73 279.03
  Q 124.24 277.77 125.27 276.83
  Z
  M 136.96 301.24
  C 135.98 298.19 135.85 294.06 133.78 291.69
  C 132.22 289.91 128.33 287.58 126.01 289.31
  Q 111.98 299.80 98.31 289.07
  C 97.10 288.12 95.52 288.48 94.32 289.23
  Q 88.30 293.02 87.61 300.91
  A 0.84 0.82 -81.2 0 0 88.24 301.79
  C 97.80 304.01 107.27 311.68 112.40 318.86
  Q 112.91 319.57 113.39 318.83
  C 114.29 317.43 114.90 316.04 116.07 314.81
  Q 125.07 305.33 136.67 301.79
  A 0.44 0.43 -17.6 0 0 136.96 301.24
  Z
  M 120.23 324.37
  Q 117.14 325.52 114.00 327.66
  A 2.25 2.24 -47.4 0 1 111.64 327.76
  Q 108.33 325.88 104.96 324.39
  C 100.76 322.54 95.87 321.77 91.34 320.89
  C 82.81 319.24 72.46 320.61 63.56 323.24
  Q 59.88 324.32 55.88 326.57
  Q 55.24 326.93 55.24 327.66
  L 55.24 334.55
  Q 55.24 335.34 55.96 335.01
  Q 84.30 321.96 112.27 336.47
  Q 112.77 336.73 113.29 336.54
  C 114.12 336.24 114.77 335.45 115.58 335.08
  Q 142.53 322.58 169.26 335.03
  Q 169.95 335.35 169.95 334.59
  L 169.95 327.62
  Q 169.95 326.93 169.34 326.59
  Q 165.07 324.23 160.67 322.92
  Q 140.41 316.90 120.23 324.37
  Z"
/>
<path fill="#000000" d="
  M 365.97 308.21
  Q 367.10 306.87 367.37 304.09
  Q 368.46 293.00 368.67 284.19
  C 368.76 280.43 372.66 275.80 376.63 278.89
  C 378.19 280.11 378.78 282.40 378.90 284.28
  Q 379.76 298.69 376.99 310.96
  C 376.21 314.38 373.14 321.25 369.06 322.57
  Q 361.70 324.94 354.63 322.40
  C 350.41 320.88 347.20 313.78 346.59 310.32
  C 345.07 301.66 344.10 292.65 344.96 283.91
  Q 345.21 281.38 346.34 279.83
  C 348.38 277.05 351.87 277.36 353.92 279.95
  Q 355.30 281.69 355.34 282.92
  Q 355.81 295.38 357.06 306.69
  Q 357.22 308.20 358.91 309.32
  Q 362.84 311.93 365.97 308.21
  Z"
/>
<path fill="#000000" d="
  M 434.25 316.03
  C 432.47 320.06 430.15 321.89 427.08 324.57
  C 426.21 325.34 424.91 325.97 423.78 326.18
  C 416.90 327.46 406.77 326.33 402.83 319.30
  C 398.63 311.82 396.81 304.75 398.86 296.63
  C 400.68 289.42 402.65 282.77 409.58 279.41
  C 414.23 277.15 425.40 278.84 428.84 282.91
  C 430.17 284.48 431.72 285.70 432.78 287.48
  Q 440.86 301.06 434.25 316.03
  Z
  M 416.4300 314.8761
  A 9.68 6.31 94.8 0 0 423.5279 305.7580
  A 9.68 6.31 94.8 0 0 418.0500 295.5839
  A 9.68 6.31 94.8 0 0 410.9521 304.7020
  A 9.68 6.31 94.8 0 0 416.4300 314.8761
  Z"
/>
<path fill="#000000" d="
  M 283.26 310.37
  Q 283.03 315.57 283.01 320.39
  Q 282.99 322.79 282.13 325.25
  C 281.00 328.42 277.39 329.24 274.59 328.14
  Q 270.61 326.56 270.99 322.06
  Q 272.61 302.97 272.17 286.02
  Q 272.09 283.08 273.61 280.77
  C 275.85 277.35 280.48 278.06 282.12 281.51
  Q 286.88 291.45 291.13 300.88
  A 0.44 0.44 0.0 0 0 291.97 300.72
  C 292.13 295.60 291.68 290.43 291.82 285.25
  C 291.90 281.91 294.54 279.84 297.80 279.49
  C 302.05 279.04 302.77 282.06 302.87 285.69
  Q 303.11 293.92 303.07 301.32
  C 303.03 307.71 303.63 313.79 303.83 320.01
  C 303.91 322.40 302.93 327.92 299.67 328.12
  C 297.59 328.25 295.34 328.04 293.80 326.40
  Q 291.30 323.76 289.98 321.27
  Q 287.04 315.71 283.80 310.24
  Q 283.30 309.40 283.26 310.37
  Z"
/>
<path fill="#000000" d="
  M 321.90 293.11
  Q 319.17 295.68 317.34 299.33
  C 314.94 304.12 317.68 309.45 321.28 312.67
  Q 324.79 315.79 328.94 314.73
  Q 333.83 313.49 338.26 311.33
  C 341.45 309.77 343.84 312.00 344.07 315.15
  Q 344.52 321.42 338.11 323.70
  C 332.99 325.52 325.26 327.03 319.76 325.14
  Q 312.04 322.48 307.20 315.40
  C 304.44 311.36 303.75 304.60 304.64 299.99
  C 305.46 295.72 306.72 288.91 310.23 285.91
  C 314.41 282.34 317.61 281.23 322.49 280.02
  C 329.16 278.38 339.80 279.75 342.82 286.98
  Q 344.26 290.46 341.84 292.98
  C 336.41 298.65 328.35 287.04 321.90 293.11
  Z"
/>
<path fill="#000000" d="
  M 264.85 322.99
  C 264.98 329.28 254.81 329.31 251.82 325.73
  Q 250.47 324.10 250.27 321.10
  Q 249.66 312.10 249.97 304.80
  C 250.25 298.27 250.21 293.24 250.35 287.51
  Q 250.43 284.60 253.27 283.36
  Q 258.66 281.02 263.24 284.47
  Q 264.34 285.30 264.49 286.78
  C 265.00 291.76 265.51 296.53 265.22 301.60
  Q 264.63 312.10 264.85 322.99
  Z"
/>
</svg>
