<?xml version="1.0" encoding="UTF-8" standalone="no"?>
<!DOCTYPE svg PUBLIC "-//W3C//DTD SVG 1.1//EN" "http://www.w3.org/Graphics/SVG/1.1/DTD/svg11.dtd">
<svg xmlns="http://www.w3.org/2000/svg" version="1.1" viewBox="0.00 0.00 134.00 166.00">
<path fill="#fec868" d="
  M 22.97 28.22
  A 1.03 1.03 0.0 0 0 23.50 27.07
  C 22.77 23.87 21.51 15.19 24.93 13.09
  C 28.51 10.90 30.12 7.53 34.85 7.10
  Q 45.20 6.15 51.91 10.89
  C 57.09 14.54 54.95 22.17 54.50 27.31
  Q 54.44 27.90 54.88 28.30
  L 56.02 29.34
  Q 56.44 29.74 56.50 30.31
  Q 57.00 35.60 54.39 38.94
  C 52.73 41.06 52.03 43.29 50.82 45.65
  Q 48.26 50.67 43.00 52.53
  C 34.69 55.48 28.02 49.71 25.29 42.44
  Q 24.56 40.47 23.13 38.95
  Q 20.00 35.61 20.77 29.82
  Q 20.83 29.34 21.25 29.12
  L 22.97 28.22
  Z"
/>
<path fill="#fec868" d="
  M 102.52 49.97
  Q 97.36 53.05 91.97 50.20
  Q 90.73 49.54 89.47 48.97
  Q 88.93 48.73 88.39 48.97
  C 82.46 51.56 74.69 53.77 68.76 49.66
  A 0.87 0.87 0.0 0 1 68.77 48.22
  C 78.84 41.35 78.70 31.74 79.90 20.89
  C 80.28 17.42 82.23 13.98 85.25 12.16
  Q 97.40 4.86 109.41 12.64
  Q 113.42 15.24 114.01 21.04
  Q 114.55 26.35 115.24 31.56
  Q 116.68 42.49 125.35 48.35
  A 0.74 0.73 -42.9 0 1 125.30 49.60
  C 119.89 52.71 111.79 51.39 106.29 48.86
  Q 105.90 48.68 105.49 48.77
  Q 103.96 49.11 102.52 49.97
  Z"
/>
<path fill="#fec868" d="
  M 58.45 139.43
  A 0.24 0.23 -13.6 0 0 58.69 139.04
  C 55.26 135.78 51.69 132.58 47.37 130.33
  Q 32.53 122.59 14.09 122.76
  A 2.41 2.38 -24.9 0 1 12.51 122.19
  Q 10.97 120.86 11.28 119.61
  Q 11.77 117.63 13.81 117.52
  Q 19.90 117.19 27.93 118.50
  Q 31.72 119.11 28.29 117.38
  C 19.34 112.86 13.56 103.88 8.70 94.83
  Q 5.21 88.36 4.31 80.41
  Q 2.83 67.34 13.60 61.00
  C 16.17 59.48 20.50 58.02 23.19 60.06
  C 33.44 67.87 44.67 67.99 54.93 59.93
  C 57.67 57.77 63.28 60.55 65.99 61.69
  A 4.95 4.95 0.0 0 0 69.93 61.64
  C 72.42 60.52 78.13 57.82 80.81 59.92
  C 89.88 67.00 100.79 68.12 110.19 61.71
  C 111.93 60.53 114.26 58.61 116.50 59.09
  C 125.55 61.01 131.99 67.83 131.59 77.34
  C 131.10 89.06 124.72 99.22 117.56 108.55
  Q 113.58 113.73 108.20 116.85
  Q 105.77 118.26 108.56 117.91
  Q 113.56 117.29 117.54 117.50
  Q 119.40 117.59 120.14 119.30
  Q 120.32 119.70 120.27 120.12
  Q 119.93 122.65 117.37 122.72
  C 103.78 123.09 91.90 125.40 80.47 132.54
  C 78.01 134.07 76.00 136.08 73.89 138.01
  Q 71.13 140.53 74.54 139.02
  Q 75.43 138.62 76.38 138.35
  Q 93.62 133.30 112.04 137.45
  C 117.32 138.65 122.19 141.08 126.78 143.64
  A 2.85 2.85 0.0 0 1 128.24 146.11
  Q 128.28 152.17 128.20 159.83
  C 128.17 162.50 125.74 163.22 123.64 161.96
  Q 118.43 158.85 114.39 157.70
  C 108.93 156.15 102.94 154.96 97.21 154.86
  Q 80.58 154.57 67.10 162.19
  Q 65.82 162.92 64.57 162.24
  Q 48.09 153.29 30.70 155.08
  Q 21.71 156.00 15.33 158.33
  Q 11.12 159.86 7.12 162.29
  A 2.47 2.47 0.0 0 1 3.37 160.18
  L 3.33 145.53
  A 1.70 1.69 -16.3 0 1 4.12 144.10
  Q 11.93 139.15 20.58 137.27
  Q 40.00 133.04 58.45 139.43
  Z
  M 77.74 87.48
  C 78.67 83.66 79.55 80.11 77.49 76.55
  C 74.98 72.22 66.19 71.49 61.91 72.06
  C 59.15 72.43 57.22 73.80 55.19 75.58
  C 51.70 78.66 52.48 82.99 52.70 87.03
  Q 52.74 87.65 52.39 88.17
  Q 49.19 92.99 52.53 97.09
  Q 53.86 98.72 54.58 100.63
  C 56.11 104.67 59.05 108.02 63.35 108.88
  C 69.21 110.04 74.71 105.80 76.40 100.40
  C 77.42 97.16 79.81 96.25 80.17 92.69
  Q 80.49 89.59 78.16 88.39
  A 0.81 0.81 0.0 0 1 77.74 87.48
  Z
  M 75.41 112.40
  C 69.90 116.07 60.53 115.99 55.14 112.14
  Q 53.08 110.67 51.13 109.29
  Q 50.68 108.97 50.14 109.05
  C 44.65 109.94 41.32 115.28 40.45 120.85
  A 0.92 0.91 14.7 0 0 41.04 121.85
  C 47.45 124.18 53.00 126.91 58.13 131.72
  Q 62.01 135.35 65.35 139.05
  A 0.59 0.58 44.1 0 0 66.23 139.04
  C 72.73 131.49 79.72 125.71 89.70 122.14
  A 0.94 0.94 0.0 0 0 90.31 121.07
  C 89.22 115.61 87.06 110.12 80.89 109.24
  A 1.73 1.70 -57.3 0 0 79.67 109.52
  Q 77.52 110.98 75.41 112.40
  Z
  M 8.64 155.76
  Q 8.64 155.96 8.83 155.88
  Q 37.01 142.59 64.55 156.82
  A 2.63 2.62 44.7 0 0 66.98 156.81
  C 84.34 147.67 103.97 146.84 121.93 155.59
  Q 122.81 156.02 122.82 155.04
  L 122.86 148.49
  Q 122.86 147.56 122.06 147.09
  C 107.25 138.53 88.01 138.21 72.83 145.37
  Q 69.78 146.80 66.63 148.40
  A 2.09 2.07 -44.1 0 1 64.71 148.38
  C 59.89 145.80 54.72 143.26 49.41 142.00
  Q 27.80 136.88 8.86 147.36
  A 0.46 0.45 -14.4 0 0 8.62 147.76
  L 8.64 155.76
  Z"
/>
</svg>
