<?xml version="1.0" encoding="UTF-8" standalone="no"?>
<!DOCTYPE svg PUBLIC "-//W3C//DTD SVG 1.1//EN" "http://www.w3.org/Graphics/SVG/1.1/DTD/svg11.dtd">
<svg xmlns="http://www.w3.org/2000/svg" version="1.1" viewBox="0.00 0.00 500.00 500.00">
<path fill="#000000" d="
  M 207.77 192.50
  Q 206.62 186.30 207.36 181.09
  Q 207.76 178.24 210.77 177.33
  A 2.18 2.15 7.9 0 0 211.96 176.44
  C 216.52 169.46 228.60 171.80 234.57 174.93
  C 241.54 178.59 239.59 186.34 238.71 192.48
  A 0.93 0.91 20.4 0 0 239.13 193.38
  C 239.94 193.91 240.90 194.44 240.94 195.55
  Q 241.17 201.49 238.31 204.60
  Q 237.00 206.02 236.42 207.94
  C 234.12 215.52 225.22 221.24 217.71 217.21
  Q 212.82 214.58 210.61 209.92
  C 209.62 207.84 209.34 205.74 207.54 204.14
  Q 204.32 201.26 205.01 195.05
  Q 205.09 194.31 205.77 194.03
  L 207.27 193.41
  Q 207.89 193.15 207.77 192.50
  Z"
/>
<path fill="#000000" d="
  M 272.75 213.99
  C 267.49 216.73 257.28 219.07 252.76 214.38
  A 0.64 0.64 0.0 0 1 252.87 213.40
  Q 261.79 207.59 262.99 196.31
  Q 263.56 190.99 264.27 185.55
  Q 264.65 182.63 266.38 180.16
  Q 267.69 178.29 270.45 176.76
  Q 283.05 169.79 295.18 178.83
  Q 296.15 179.55 297.44 182.33
  C 298.47 184.55 298.76 188.98 298.97 192.70
  Q 299.35 199.22 302.12 205.10
  C 303.86 208.79 306.31 211.04 309.49 213.33
  A 0.95 0.95 0.0 0 1 309.31 214.97
  C 303.13 217.59 296.36 216.54 290.03 213.80
  Q 289.50 213.57 289.01 213.88
  C 283.10 217.61 279.82 217.44 273.72 214.00
  Q 273.24 213.73 272.75 213.99
  Z"
/>
<path fill="#000000" d="
  M 291.10 283.14
  Q 296.50 282.46 301.54 282.53
  Q 303.85 282.56 304.46 284.79
  Q 304.64 285.43 304.32 286.06
  Q 303.53 287.65 301.76 287.72
  C 287.80 288.30 275.74 290.60 263.89 298.24
  C 261.60 299.71 259.87 301.86 257.77 303.61
  Q 256.04 305.05 258.14 304.25
  Q 262.34 302.64 268.95 301.56
  Q 282.09 299.43 296.21 302.54
  C 301.64 303.74 306.48 306.20 311.09 308.81
  A 2.77 2.76 -75.4 0 1 312.50 311.22
  L 312.50 325.19
  A 2.58 2.58 0.0 0 1 308.73 327.48
  C 305.13 325.60 301.65 323.39 297.60 322.47
  Q 294.00 321.64 290.53 320.95
  C 281.27 319.11 272.66 319.97 263.59 322.18
  C 259.12 323.27 254.97 325.39 251.05 327.54
  A 2.08 2.07 46.0 0 1 248.99 327.50
  Q 238.06 321.03 223.83 320.07
  Q 213.32 319.36 201.33 322.86
  C 197.78 323.89 194.79 325.57 191.63 327.37
  A 2.67 2.67 0.0 0 1 187.64 325.05
  L 187.66 311.00
  A 2.48 2.47 -14.7 0 1 188.93 308.84
  C 193.41 306.35 198.11 303.92 203.25 302.71
  Q 221.27 298.48 239.03 303.21
  Q 240.45 303.59 241.76 304.16
  Q 244.64 305.40 242.17 303.46
  C 240.34 302.02 238.67 300.03 236.81 298.71
  C 226.09 291.04 211.59 287.67 198.66 287.84
  Q 195.97 287.87 195.58 285.21
  Q 195.53 284.85 195.66 284.52
  Q 196.41 282.57 198.27 282.54
  Q 205.88 282.41 214.20 283.92
  Q 215.30 284.12 214.36 283.51
  C 212.28 282.15 209.91 281.35 208.01 279.75
  Q 204.23 276.55 200.87 272.57
  C 197.75 268.87 195.52 264.30 193.10 260.12
  Q 190.76 256.09 189.51 250.83
  C 187.17 241.03 188.09 232.18 197.51 226.32
  C 200.33 224.56 204.89 223.10 207.83 225.40
  C 216.50 232.14 226.56 232.99 236.20 227.15
  Q 237.30 226.48 238.31 225.62
  C 243.87 220.90 249.29 229.48 255.27 226.39
  C 257.63 225.17 262.57 223.16 265.02 225.02
  Q 280.79 237.02 297.07 225.14
  C 299.39 223.44 302.46 224.42 304.85 225.47
  C 319.90 232.04 317.18 248.66 310.80 260.07
  Q 306.39 267.95 301.02 274.78
  Q 297.39 279.41 290.99 282.79
  Q 290.08 283.27 291.10 283.14
  Z
  M 262.16 252.86
  C 262.65 248.96 263.88 245.95 261.98 242.00
  Q 261.02 240.02 259.10 239.17
  Q 252.46 236.21 245.93 237.22
  C 242.81 237.70 240.75 239.53 238.58 241.63
  C 236.26 243.89 236.88 249.34 237.05 252.33
  A 1.67 1.65 64.6 0 1 236.64 253.50
  C 234.71 255.68 234.53 259.78 236.69 262.09
  C 239.08 264.64 239.13 267.99 241.65 270.57
  C 247.17 276.21 254.34 275.01 258.98 269.04
  C 260.29 267.36 260.61 265.42 261.38 263.51
  Q 261.62 262.90 262.14 262.49
  Q 265.44 259.92 264.17 255.05
  A 1.36 1.36 0.0 0 0 263.49 254.19
  L 262.63 253.75
  Q 262.08 253.47 262.16 252.86
  Z
  M 225.26 286.91
  C 229.42 288.42 234.55 290.53 238.17 293.31
  Q 244.61 298.26 249.64 304.22
  Q 250.04 304.69 250.44 304.23
  Q 256.04 297.78 261.67 293.56
  Q 266.72 289.78 274.14 287.26
  Q 274.69 287.08 274.60 286.50
  C 273.79 281.32 271.73 275.80 265.88 274.49
  C 263.26 273.91 260.10 277.85 257.51 278.75
  Q 245.30 283.02 236.37 274.98
  A 2.94 2.94 0.0 0 0 233.44 274.39
  Q 226.08 276.97 224.78 286.10
  A 0.76 0.75 -76.0 0 0 225.26 286.91
  Z
  M 251.02 313.56
  A 2.25 2.24 46.1 0 1 248.84 313.51
  Q 226.47 300.38 201.74 308.57
  Q 197.94 309.83 193.20 312.56
  Q 192.93 312.71 192.93 313.02
  L 192.94 320.95
  A 0.16 0.16 0.0 0 0 193.17 321.09
  C 210.42 311.80 231.98 312.82 248.99 322.02
  A 1.99 1.96 -44.3 0 0 250.85 322.03
  Q 278.59 307.65 307.03 320.94
  Q 307.17 321.01 307.17 320.85
  L 307.18 313.01
  Q 307.18 312.73 306.93 312.59
  C 294.32 305.07 278.36 303.55 264.31 307.68
  C 259.79 309.01 255.26 311.33 251.02 313.56
  Z"
/>
</svg>
