<?xml version="1.0" encoding="UTF-8" standalone="no"?>
<!DOCTYPE svg PUBLIC "-//W3C//DTD SVG 1.1//EN" "http://www.w3.org/Graphics/SVG/1.1/DTD/svg11.dtd">
<svg xmlns="http://www.w3.org/2000/svg" version="1.1" viewBox="0.00 0.00 270.00 356.00">
<path fill="#a3e486" d="
  M 77.88 0.00
  L 88.49 0.00
  Q 93.10 0.67 97.32 2.37
  Q 102.24 4.36 104.53 7.58
  C 109.79 14.98 107.57 21.80 106.34 29.97
  A 1.56 1.55 -81.0 0 0 107.62 31.74
  C 109.40 32.02 110.43 33.44 110.39 35.20
  C 110.31 39.13 110.05 44.15 106.81 47.02
  Q 103.53 49.92 102.64 54.30
  Q 102.02 57.36 99.96 59.73
  Q 94.09 66.44 85.82 68.28
  C 78.74 69.86 69.56 63.09 66.05 57.68
  C 63.72 54.09 63.51 49.94 60.34 46.77
  C 57.57 44.00 57.21 39.20 57.10 35.40
  Q 57.02 32.31 59.99 31.84
  A 1.65 1.64 -9.4 0 0 61.36 29.93
  Q 59.93 21.65 60.77 13.78
  C 61.31 8.66 64.96 9.28 67.28 5.95
  Q 71.05 0.51 77.88 0.00
  Z"
/>
<path fill="#a3e486" d="
  M 181.49 61.19
  Q 179.55 62.27 177.73 63.26
  Q 168.96 68.02 160.62 62.73
  Q 159.35 61.92 158.03 61.35
  Q 157.53 61.13 157.04 61.40
  C 148.83 65.92 135.74 68.41 127.46 62.52
  A 0.93 0.93 0.0 0 1 127.49 60.98
  Q 137.71 54.20 141.56 43.15
  C 143.70 37.03 143.70 29.74 144.20 23.06
  C 144.83 14.44 148.67 8.86 156.97 5.00
  Q 166.70 0.47 177.53 3.27
  C 183.87 4.91 190.97 9.62 193.09 16.11
  C 195.38 23.08 195.04 30.56 196.09 37.51
  Q 197.32 45.63 202.95 53.03
  Q 207.04 58.41 211.07 60.87
  A 1.08 1.08 0.0 0 1 210.92 62.79
  C 208.60 63.78 206.17 64.73 203.65 65.00
  Q 192.64 66.16 182.64 61.17
  Q 182.06 60.88 181.49 61.19
  Z"
/>
<path fill="#a3e486" d="
  M 69.49 164.02
  C 63.53 160.92 59.12 156.44 54.69 151.71
  Q 48.47 145.08 44.13 138.64
  Q 41.77 135.14 39.90 130.70
  Q 38.14 126.51 36.38 122.50
  Q 33.27 115.39 32.78 105.33
  C 32.30 95.33 36.47 84.89 45.69 80.39
  Q 50.56 78.02 55.36 77.34
  C 59.92 76.69 60.42 79.04 63.55 80.74
  Q 69.17 83.80 74.34 85.46
  C 85.74 89.11 97.72 85.60 107.34 78.42
  C 111.37 75.41 118.84 78.97 122.77 80.67
  C 125.68 81.93 129.18 81.49 132.04 80.05
  Q 137.64 77.22 143.50 77.35
  Q 144.08 77.36 144.53 77.72
  Q 150.43 82.38 158.64 85.16
  C 170.79 89.27 182.11 85.79 192.38 78.72
  C 195.94 76.27 201.00 77.51 204.60 79.13
  Q 222.77 87.33 220.15 107.69
  C 218.89 117.47 215.08 126.32 210.37 134.81
  Q 204.53 145.33 195.52 154.28
  C 192.13 157.64 188.21 160.50 184.52 163.49
  Q 183.66 164.18 184.76 164.08
  Q 193.10 163.33 200.00 163.35
  A 3.07 3.05 56.5 0 1 201.21 163.60
  Q 205.92 165.60 203.16 169.35
  A 3.17 3.16 -71.7 0 1 200.62 170.63
  Q 182.72 170.62 167.85 174.96
  C 155.34 178.61 142.19 185.06 133.77 195.05
  Q 132.78 196.22 134.20 195.63
  C 159.89 184.85 189.04 187.55 212.74 201.43
  C 214.55 202.50 215.56 203.67 215.54 205.89
  Q 215.43 215.35 215.54 225.53
  A 3.87 3.87 0.0 0 1 209.95 229.04
  Q 205.29 226.72 200.71 224.69
  C 180.91 215.91 157.59 215.19 137.56 223.53
  Q 131.16 226.19 124.37 229.28
  A 2.07 2.05 -44.6 0 1 122.66 229.28
  C 116.25 226.33 109.24 222.98 102.87 221.11
  Q 74.44 212.79 46.94 224.45
  Q 41.99 226.55 37.09 229.04
  A 3.83 3.83 0.0 0 1 31.52 225.61
  Q 31.55 215.85 31.51 205.70
  Q 31.50 203.05 33.73 201.74
  Q 63.09 184.54 96.67 190.70
  C 102.12 191.70 107.64 193.67 112.87 195.52
  Q 113.86 195.87 113.20 195.06
  C 108.29 189.00 101.37 184.24 94.28 180.81
  Q 73.16 170.58 47.07 170.66
  C 41.74 170.67 41.31 163.28 47.26 163.33
  Q 57.56 163.41 69.24 164.82
  Q 71.59 165.11 69.49 164.02
  Z
  M 142.58 120.54
  A 1.24 1.23 12.8 0 1 141.65 119.08
  Q 142.47 115.33 143.03 111.67
  C 144.04 105.23 140.72 100.67 134.89 98.17
  Q 126.49 94.56 116.97 96.07
  C 111.71 96.91 110.54 100.70 106.29 102.76
  C 102.53 104.57 103.59 114.92 103.91 118.29
  A 2.06 2.06 0.0 0 1 103.52 119.72
  Q 100.33 124.13 102.24 130.94
  Q 102.62 132.30 103.65 133.37
  Q 105.19 134.96 106.08 137.26
  Q 107.93 142.03 111.89 145.58
  Q 122.25 154.89 132.93 146.45
  Q 138.13 142.34 140.15 136.19
  C 140.71 134.50 141.93 133.47 143.25 132.39
  Q 143.76 131.97 143.94 131.34
  C 144.63 128.99 146.30 121.41 142.58 120.54
  Z
  M 115.05 185.95
  Q 119.29 189.39 123.06 195.00
  Q 123.44 195.57 123.85 195.02
  Q 128.08 189.40 130.31 187.45
  Q 138.01 180.67 146.05 175.73
  Q 151.51 172.38 159.30 169.72
  Q 159.89 169.52 159.76 168.91
  Q 158.64 163.63 156.55 158.65
  Q 153.93 152.40 146.66 150.77
  C 144.39 150.26 141.89 152.66 140.15 153.93
  Q 138.06 155.46 135.75 156.44
  Q 117.74 164.11 102.12 150.95
  A 2.24 2.23 59.2 0 0 100.20 150.46
  C 91.51 152.24 87.23 160.26 86.24 168.60
  A 0.65 0.64 -78.0 0 0 86.68 169.29
  Q 98.30 173.04 108.35 180.69
  Q 111.88 183.38 115.05 185.95
  Z
  M 124.42 208.44
  A 2.17 2.17 0.0 0 1 122.58 208.44
  C 113.16 203.97 103.28 199.68 93.02 197.99
  Q 65.73 193.49 39.82 206.93
  Q 39.45 207.13 39.44 207.55
  L 39.36 218.86
  A 0.32 0.32 0.0 0 0 39.82 219.15
  C 66.60 206.22 96.82 206.89 122.96 221.19
  A 1.08 1.06 -44.5 0 0 123.97 221.19
  Q 152.80 205.73 183.80 211.37
  Q 196.28 213.64 207.18 219.18
  A 0.36 0.35 13.9 0 0 207.70 218.87
  L 207.72 207.99
  Q 207.72 207.24 207.06 206.89
  Q 182.32 193.71 154.61 197.86
  C 144.18 199.42 134.03 203.96 124.42 208.44
  Z"
/>
<path fill="#a3e486" d="
  M 44.11 356.00
  L 37.76 356.00
  Q 30.67 354.57 24.00 351.69
  C 22.42 351.01 20.89 349.66 19.62 348.47
  Q 16.58 345.58 13.98 342.62
  Q 4.99 332.37 5.00 317.39
  Q 5.00 278.89 5.01 243.75
  C 5.01 238.50 16.86 234.16 20.69 233.47
  C 32.55 231.33 43.73 233.86 52.05 242.55
  C 56.52 247.22 60.10 251.32 61.31 258.05
  Q 61.45 258.81 62.02 258.29
  L 62.58 257.78
  Q 62.97 257.43 63.50 257.38
  Q 71.57 256.67 77.93 256.44
  C 79.44 256.38 81.25 257.14 81.80 258.74
  C 82.80 261.69 83.84 268.28 79.00 268.27
  Q 74.93 268.27 71.32 268.80
  Q 70.91 268.86 70.96 269.27
  L 71.38 272.59
  A 0.60 0.59 85.7 0 0 71.98 273.11
  L 78.22 273.09
  Q 81.73 273.08 81.89 276.59
  L 81.97 278.36
  Q 82.11 281.59 78.89 281.82
  L 71.49 282.35
  Q 70.86 282.39 70.93 283.02
  L 71.32 286.59
  Q 71.38 287.18 71.97 287.20
  Q 75.13 287.32 78.87 287.17
  Q 80.84 287.09 82.02 288.34
  Q 85.32 291.83 82.11 295.95
  Q 81.56 296.65 82.42 296.42
  C 83.59 296.10 84.92 295.39 86.15 295.65
  C 89.78 296.44 90.03 300.73 87.25 302.69
  Q 83.61 305.27 80.21 307.21
  C 78.41 308.22 75.53 307.62 74.47 305.77
  C 72.66 302.60 76.17 300.03 78.38 298.27
  Q 79.18 297.64 78.16 297.70
  Q 72.64 298.05 66.46 297.56
  C 63.85 297.35 62.18 295.62 62.04 292.99
  Q 61.62 284.94 61.71 277.25
  Q 61.73 275.76 61.24 277.16
  Q 55.81 292.63 40.15 298.86
  Q 33.48 301.51 26.53 301.05
  Q 25.99 301.02 25.94 301.55
  Q 24.74 313.28 26.65 324.94
  Q 27.59 330.67 31.88 334.42
  C 33.33 335.70 35.29 335.52 36.60 334.07
  C 38.05 332.45 39.85 331.24 40.78 329.21
  C 41.84 326.89 43.74 325.47 44.66 323.05
  C 46.80 317.40 49.14 311.88 52.86 307.19
  C 54.92 304.60 59.56 303.53 61.61 306.81
  C 63.71 310.18 65.68 312.60 63.89 316.84
  Q 62.41 320.34 61.53 323.90
  Q 60.67 327.40 59.13 331.06
  Q 52.28 347.44 50.09 351.85
  Q 48.62 354.81 44.11 356.00
  Z
  M 24.36 254.83
  L 25.80 280.75
  Q 25.82 281.19 26.25 281.24
  Q 33.44 282.22 39.28 279.29
  A 2.59 2.57 -5.4 0 0 40.62 277.68
  C 41.52 274.59 42.70 271.30 41.58 268.06
  C 40.80 265.79 40.41 263.37 38.95 261.37
  Q 33.96 254.51 24.43 254.76
  A 0.07 0.06 -3.6 0 0 24.36 254.83
  Z"
/>
<path fill="#a3e486" d="
  M 112.52 289.25
  C 110.45 286.48 107.47 284.16 108.45 280.37
  Q 109.20 277.50 111.99 276.73
  C 115.73 275.69 119.41 277.74 121.21 281.09
  Q 122.20 282.94 122.18 280.84
  C 122.16 278.54 122.27 271.96 118.60 271.95
  C 115.09 271.94 111.52 271.70 108.71 269.32
  C 105.21 266.36 107.16 261.72 110.65 259.94
  C 116.85 256.78 124.08 259.14 128.34 264.43
  Q 133.90 271.32 132.65 280.57
  Q 131.93 285.93 130.71 290.56
  Q 130.44 291.57 129.78 292.44
  A 1.49 1.49 0.0 0 0 130.02 294.47
  L 134.07 297.82
  A 2.23 2.22 -54.6 0 1 134.55 300.68
  C 133.23 302.85 129.92 304.12 127.69 305.33
  C 124.43 307.12 122.50 303.56 121.32 301.30
  A 0.94 0.93 -23.2 0 0 120.18 300.85
  Q 114.74 302.75 109.10 301.90
  C 102.90 300.95 97.68 295.57 93.18 291.06
  C 87.71 285.56 86.16 275.21 86.54 267.96
  C 86.88 261.50 89.73 256.61 93.41 251.48
  C 95.75 248.21 98.54 246.77 101.90 244.91
  Q 107.49 241.80 114.60 242.05
  Q 118.34 242.18 120.81 243.51
  C 126.84 246.76 121.84 255.49 116.29 254.15
  C 111.18 252.92 106.09 256.71 103.45 260.92
  C 101.75 263.64 99.68 267.03 99.36 270.29
  C 98.84 275.45 100.25 283.98 105.19 287.19
  C 107.34 288.59 109.69 289.90 112.21 289.87
  Q 112.97 289.86 112.52 289.25
  Z"
/>
<path fill="#a3e486" d="
  M 227.78 284.75
  Q 227.78 289.75 228.10 294.75
  C 228.30 297.94 227.68 301.48 224.00 302.27
  C 218.13 303.53 216.32 300.75 213.84 296.05
  Q 211.04 290.75 208.02 286.06
  Q 207.27 284.90 207.27 286.28
  Q 207.28 292.21 206.84 298.46
  C 206.76 299.53 206.32 300.48 205.91 301.45
  Q 205.65 302.10 206.27 302.40
  C 208.79 303.63 210.59 305.23 210.33 308.27
  C 210.03 311.90 210.65 315.38 210.24 318.99
  Q 209.18 328.31 210.82 339.19
  A 2.14 2.13 86.9 0 0 212.83 341.00
  L 217.31 341.21
  Q 217.83 341.24 218.20 341.58
  C 220.79 343.90 222.00 348.88 218.50 351.05
  C 215.93 352.64 212.34 352.11 209.36 352.49
  C 200.37 353.63 198.17 344.37 198.58 337.58
  Q 199.13 328.54 198.50 319.00
  C 198.24 314.97 198.88 311.03 199.26 307.06
  C 199.34 306.25 199.66 305.56 200.04 304.85
  Q 200.44 304.13 199.65 303.90
  C 196.21 302.89 194.87 301.23 195.16 297.64
  Q 196.70 278.90 196.29 261.88
  C 196.19 257.54 198.33 251.68 204.05 254.14
  Q 205.58 254.80 206.59 257.27
  Q 210.00 265.64 215.83 276.65
  Q 216.23 277.41 216.24 276.55
  Q 216.33 270.44 215.96 264.60
  C 215.67 259.92 216.64 254.07 222.70 254.31
  C 226.36 254.45 227.30 257.02 227.31 260.21
  Q 227.32 266.69 227.74 271.93
  Q 227.83 273.06 228.23 272.00
  C 230.55 265.89 232.86 259.79 238.55 255.86
  C 242.63 253.05 249.24 254.20 253.65 255.64
  C 259.49 257.54 265.94 266.49 267.13 271.97
  C 268.78 279.66 267.85 290.87 261.88 296.58
  C 260.23 298.17 258.85 300.20 256.81 301.35
  Q 252.75 303.64 247.55 303.19
  C 241.91 302.69 237.21 301.37 233.71 296.73
  Q 229.70 291.41 228.07 284.72
  Q 227.78 283.51 227.78 284.75
  Z
  M 251.96 288.12
  C 253.28 283.63 255.22 272.38 248.40 271.49
  C 246.10 271.18 244.07 272.98 243.08 274.88
  Q 240.18 280.46 241.20 285.24
  Q 242.14 289.65 246.24 290.64
  C 248.31 291.14 251.30 290.37 251.96 288.12
  Z"
/>
<path fill="#a3e486" d="
  M 146.52 288.39
  C 147.38 290.05 149.88 290.10 151.50 290.01
  Q 155.17 289.79 156.29 286.46
  C 157.61 282.55 157.69 278.86 158.03 274.80
  Q 158.58 268.27 158.79 261.57
  Q 158.92 257.27 162.97 255.56
  A 1.51 1.51 0.0 0 1 164.02 255.53
  Q 167.23 256.61 167.83 260.09
  C 169.26 268.24 168.26 276.51 167.24 284.68
  C 166.56 290.14 165.16 295.38 161.16 299.08
  C 157.96 302.03 152.89 302.43 148.70 302.13
  C 139.90 301.52 135.58 292.58 134.72 284.95
  C 133.71 276.12 132.78 268.41 133.94 260.32
  Q 134.34 257.52 136.68 256.16
  C 140.54 253.92 143.79 258.48 143.86 261.90
  Q 144.03 271.17 144.53 280.81
  Q 144.75 284.97 146.52 288.39
  Z"
/>
<path fill="#a3e486" d="
  M 182.71 271.01
  Q 181.87 271.05 181.84 271.88
  L 181.75 273.74
  Q 181.70 274.80 182.75 274.63
  C 186.41 274.04 191.30 274.34 191.35 279.23
  C 191.40 284.35 187.04 285.22 183.02 285.63
  Q 181.97 285.74 181.98 286.79
  L 182.00 288.05
  Q 182.02 288.97 182.94 288.89
  C 185.83 288.65 189.02 288.49 191.71 289.72
  A 1.63 1.59 1.3 0 1 192.50 290.53
  C 195.59 297.65 188.66 299.75 183.41 299.45
  Q 179.48 299.24 175.67 299.04
  A 3.97 3.96 85.3 0 1 172.01 295.93
  C 171.15 291.99 170.70 287.75 170.78 283.69
  Q 170.95 274.46 170.40 265.25
  Q 170.29 263.44 171.79 261.00
  C 173.26 258.59 174.78 258.92 177.17 258.64
  Q 181.58 258.14 186.93 258.10
  C 191.17 258.07 192.70 262.89 192.26 266.23
  C 191.83 269.51 185.12 270.89 182.71 271.01
  Z"
/>
<path fill="#a3e486" d="
  M 174.85 330.49
  C 175.17 335.87 181.80 336.98 184.66 333.37
  Q 185.97 331.72 186.10 329.07
  Q 186.63 318.69 187.12 308.58
  C 187.42 302.34 195.68 300.26 196.81 307.61
  Q 197.54 312.34 197.41 316.52
  Q 197.07 327.56 195.48 335.07
  C 194.41 340.13 190.82 347.67 185.06 348.88
  C 171.51 351.74 165.73 343.63 164.49 331.92
  C 163.64 323.84 162.52 316.01 163.77 307.74
  C 164.75 301.25 170.94 301.47 173.03 307.02
  C 173.95 309.44 173.40 312.34 173.64 314.87
  Q 174.39 322.79 174.85 330.49
  Z"
/>
<path fill="#a3e486" d="
  M 253.74 339.01
  Q 251.32 345.42 246.43 349.78
  Q 244.14 351.82 240.80 352.06
  C 232.81 352.65 224.37 351.52 220.64 343.28
  C 219.71 341.23 218.49 339.34 217.84 337.17
  Q 215.68 329.97 216.70 324.53
  C 217.66 319.41 219.46 312.40 223.04 308.59
  Q 226.30 305.12 229.83 303.78
  C 233.87 302.24 242.48 304.35 245.99 306.64
  C 247.65 307.72 248.19 309.45 249.67 310.57
  Q 250.55 311.24 251.11 312.17
  Q 259.00 325.13 253.74 339.01
  Z
  M 234.9067 340.0827
  A 9.79 6.40 95.0 0 0 242.1356 330.8878
  A 9.79 6.40 95.0 0 0 236.6133 320.5773
  A 9.79 6.40 95.0 0 0 229.3844 329.7722
  A 9.79 6.40 95.0 0 0 234.9067 340.0827
  Z"
/>
<path fill="#a3e486" d="
  M 109.18 326.05
  Q 109.79 326.68 109.76 325.79
  Q 109.50 319.28 109.33 312.73
  Q 109.15 306.02 114.84 304.58
  C 118.96 303.54 120.84 307.08 120.99 310.68
  Q 121.32 318.34 121.27 325.41
  C 121.23 331.97 121.67 338.57 122.04 345.21
  C 122.21 348.47 121.25 352.85 117.55 353.29
  Q 111.64 354.00 108.88 348.87
  Q 105.11 341.87 101.92 335.66
  Q 101.31 334.48 101.27 335.80
  Q 101.05 341.67 100.89 347.76
  C 100.74 353.72 94.51 355.26 90.26 352.44
  Q 88.38 351.19 88.53 348.81
  Q 89.43 334.75 89.94 321.71
  C 90.08 318.14 89.56 314.60 89.71 311.14
  C 89.81 308.60 90.73 305.13 93.24 303.88
  C 95.72 302.65 99.16 304.56 100.16 306.81
  Q 103.88 315.21 107.60 323.65
  Q 108.23 325.08 109.18 326.05
  Z"
/>
<path fill="#a3e486" d="
  M 134.71 325.45
  C 132.14 331.66 139.63 341.59 146.40 340.03
  Q 151.43 338.87 156.01 336.62
  C 157.44 335.91 159.50 335.83 160.73 337.04
  C 165.55 341.77 160.18 347.78 155.56 349.54
  Q 151.19 351.21 144.50 351.69
  C 136.50 352.26 130.34 347.56 125.59 341.36
  Q 123.59 338.75 123.08 335.21
  Q 121.87 326.93 124.22 317.91
  C 124.90 315.32 125.72 312.74 127.99 311.12
  C 133.97 306.89 139.68 304.22 146.70 304.40
  Q 155.02 304.61 160.24 311.04
  C 161.84 313.01 161.75 316.11 159.92 317.90
  C 155.43 322.28 149.96 316.54 145.22 316.40
  C 139.90 316.25 136.57 320.96 134.71 325.45
  Z"
/>
<path fill="#a3e486" d="
  M 70.02 309.21
  Q 75.64 306.55 80.61 309.54
  A 2.59 2.56 -78.3 0 1 81.83 311.42
  C 82.47 316.32 82.90 321.13 82.67 326.05
  Q 82.11 338.19 82.25 349.27
  Q 82.28 351.96 79.99 352.62
  C 76.18 353.72 68.50 354.01 67.95 348.66
  Q 66.86 338.03 67.41 328.51
  C 67.74 322.99 67.76 317.71 67.79 312.38
  Q 67.80 310.26 70.02 309.21
  Z"
/>
</svg>
