<?xml version="1.0" encoding="UTF-8" standalone="no"?>
<!DOCTYPE svg PUBLIC "-//W3C//DTD SVG 1.1//EN" "http://www.w3.org/Graphics/SVG/1.1/DTD/svg11.dtd">
<svg xmlns="http://www.w3.org/2000/svg" version="1.1" viewBox="0.00 0.00 270.00 127.00">
<g stroke-width="2.00" fill="none" stroke-linecap="butt">
<path stroke="#cef1be" vector-effect="non-scaling-stroke" d="
  M 197.80 99.30
  Q 197.90 99.13 198.22 99.12
  Q 198.63 99.10 198.62 98.69
  L 198.30 85.43
  Q 198.29 85.06 197.93 85.14
  L 197.53 85.23
  A 0.51 0.50 85.6 0 0 197.13 85.70
  L 196.27 98.69"
/>
<path stroke="#cef1be" vector-effect="non-scaling-stroke" d="
  M 133.5858 49.2279
  A 3.16 0.46 87.9 0 0 133.9297 46.0531
  A 3.16 0.46 87.9 0 0 133.3542 42.9121
  A 3.16 0.46 87.9 0 0 133.0103 46.0869
  A 3.16 0.46 87.9 0 0 133.5858 49.2279"
/>
</g>
<path fill="#a3e487" d="
  M 78.59 67.74
  Q 73.76 68.22 67.52 67.66
  C 62.56 67.22 62.67 63.33 62.47 59.47
  Q 62.18 53.59 62.15 48.19
  Q 62.13 46.39 61.58 48.10
  C 59.84 53.46 53.85 62.25 47.71 65.57
  C 41.02 69.18 35.12 71.64 27.30 71.25
  A 0.50 0.49 2.9 0 0 26.78 71.71
  Q 26.06 82.55 27.19 92.15
  C 27.72 96.66 29.92 102.69 34.13 105.01
  Q 34.98 105.47 35.81 104.98
  C 39.32 102.89 40.93 99.27 43.36 96.19
  Q 45.17 93.90 46.18 91.25
  Q 48.61 84.95 52.34 78.40
  C 53.77 75.89 55.65 74.65 58.57 74.63
  Q 60.58 74.62 61.75 75.83
  C 64.74 78.89 65.90 82.59 64.50 86.86
  Q 62.23 93.75 60.14 99.63
  Q 56.74 109.21 51.33 120.18
  Q 48.16 126.62 40.68 125.82
  C 20.51 123.66 6.13 107.73 6.12 87.40
  Q 6.11 46.33 6.15 13.29
  Q 6.15 12.44 6.76 11.82
  C 13.24 5.19 21.74 3.00 31.02 3.28
  Q 38.04 3.50 43.69 6.35
  C 52.55 10.83 60.14 18.58 61.95 28.28
  A 0.46 0.46 0.0 0 0 62.69 28.56
  C 64.67 26.96 66.66 27.71 68.93 27.43
  Q 73.23 26.89 77.67 26.79
  C 79.67 26.74 81.59 27.13 82.39 29.25
  C 83.68 32.65 83.94 38.21 78.92 38.25
  Q 76.03 38.28 73.03 38.61
  Q 71.78 38.75 71.87 40.00
  L 72.02 42.27
  Q 72.12 43.72 73.56 43.49
  Q 76.77 42.97 79.92 43.53
  C 81.53 43.82 82.23 45.35 82.47 46.81
  Q 83.27 51.60 78.86 52.06
  Q 75.80 52.38 72.39 52.40
  Q 71.30 52.41 71.54 53.47
  L 72.12 56.10
  Q 72.33 57.06 73.30 57.02
  Q 75.96 56.92 78.89 56.75
  C 83.99 56.45 85.41 62.20 83.08 65.58
  Q 82.16 66.92 83.67 66.33
  Q 84.51 66.01 85.39 65.77
  C 88.57 64.91 90.96 68.71 89.07 71.31
  Q 87.79 73.07 85.24 74.39
  Q 82.33 75.89 79.39 77.35
  Q 78.52 77.78 79.43 78.11
  Q 82.00 79.03 82.41 81.45
  C 83.17 85.99 83.37 90.93 83.21 95.59
  Q 82.81 106.85 82.91 117.46
  C 82.95 122.76 78.61 123.46 74.49 122.91
  Q 68.94 122.16 68.51 116.76
  C 67.63 105.72 68.35 94.93 68.31 83.81
  C 68.28 78.40 72.23 77.49 76.68 77.41
  Q 77.64 77.39 76.92 76.76
  Q 76.53 76.43 76.06 76.21
  Q 75.54 75.97 75.21 75.51
  C 73.15 72.67 76.84 69.95 78.83 68.33
  Q 79.70 67.63 78.59 67.74
  Z
  M 25.43 25.65
  L 26.75 50.79
  Q 26.78 51.41 27.40 51.48
  C 31.81 51.96 39.83 51.64 41.56 47.33
  Q 44.55 39.84 40.12 32.33
  Q 35.99 25.33 25.99 25.08
  Q 25.40 25.06 25.43 25.65
  Z"
/>
<path fill="#a3e487" d="
  M 132.21 41.03
  Q 133.36 43.63 133.39 40.79
  Q 133.47 34.28 134.54 29.45
  C 135.14 26.72 138.59 24.96 141.13 26.67
  Q 143.86 28.51 143.94 31.67
  Q 144.18 41.34 144.85 51.78
  C 145.01 54.24 146.13 59.25 149.11 59.85
  C 154.37 60.91 156.95 56.93 157.45 52.47
  Q 158.23 45.56 158.69 37.20
  C 158.88 33.71 158.22 30.63 160.51 27.67
  C 163.14 24.29 166.83 26.22 167.66 29.68
  C 169.39 36.89 168.40 44.11 167.69 51.40
  C 166.74 61.19 164.60 71.15 152.95 72.24
  Q 142.07 73.26 137.53 63.81
  C 135.58 59.75 135.17 55.56 134.16 51.27
  Q 133.61 48.95 133.03 51.27
  Q 131.99 55.46 131.12 59.87
  C 130.86 61.19 129.92 62.26 129.85 63.56
  Q 129.82 64.09 130.21 64.43
  Q 131.89 65.88 133.63 67.41
  C 137.50 70.83 131.66 73.51 129.12 74.64
  Q 124.06 76.88 121.92 71.77
  Q 121.41 70.54 120.15 70.96
  C 109.25 74.59 102.62 70.27 95.30 62.79
  C 88.01 55.35 85.96 44.61 87.55 34.74
  C 88.22 30.57 90.96 26.06 93.44 22.60
  Q 102.07 10.53 117.83 12.36
  C 121.19 12.75 124.63 14.84 123.78 18.85
  Q 122.41 25.25 116.03 24.42
  C 112.68 23.98 109.46 25.32 107.04 27.59
  Q 96.63 37.33 100.98 50.43
  C 102.64 55.44 106.72 58.22 111.26 59.68
  Q 114.02 60.57 112.28 58.25
  C 110.65 56.09 107.94 53.46 108.88 50.54
  C 110.90 44.33 118.65 46.20 121.27 50.88
  Q 122.62 53.28 122.49 50.53
  Q 122.35 47.47 121.70 44.25
  A 2.39 2.37 -4.7 0 0 119.44 42.35
  C 115.08 42.21 109.35 41.87 107.66 37.13
  Q 106.32 33.36 110.06 30.87
  Q 115.16 27.49 121.31 29.63
  Q 129.09 32.34 131.67 39.66
  Q 131.92 40.36 132.21 41.03
  Z
  M 133.5858 49.2279
  A 3.16 0.46 87.9 0 0 133.9297 46.0531
  A 3.16 0.46 87.9 0 0 133.3542 42.9121
  A 3.16 0.46 87.9 0 0 133.0103 46.0869
  A 3.16 0.46 87.9 0 0 133.5858 49.2279
  Z"
/>
<path fill="#a3e487" d="
  M 197.80 99.30
  Q 197.90 99.13 198.22 99.12
  Q 198.63 99.10 198.62 98.69
  L 198.30 85.43
  Q 198.29 85.06 197.93 85.14
  L 197.53 85.23
  A 0.51 0.50 85.6 0 0 197.13 85.70
  L 196.27 98.69
  Q 195.74 104.48 194.72 107.25
  C 193.68 110.08 191.14 115.60 188.18 116.95
  Q 180.50 120.46 172.25 116.95
  C 166.77 114.62 165.09 106.73 164.46 100.91
  C 163.59 92.86 162.63 85.47 163.82 77.11
  Q 163.98 75.94 164.61 75.05
  C 167.92 70.37 173.22 73.99 173.41 78.56
  Q 173.91 91.03 175.08 101.03
  C 175.48 104.47 179.13 106.22 182.25 104.90
  Q 185.76 103.41 186.08 98.27
  Q 186.65 89.24 186.85 80.28
  Q 186.91 77.18 187.73 75.80
  C 189.23 73.28 192.72 71.54 195.06 74.11
  C 197.19 76.45 196.99 79.14 197.29 82.19
  Q 197.73 86.69 198.36 82.21
  L 199.46 74.39
  Q 199.53 73.85 199.00 73.71
  Q 194.68 72.59 194.99 68.26
  Q 196.40 48.65 196.23 31.68
  C 196.19 27.88 197.65 23.35 202.40 24.02
  C 204.16 24.27 205.29 25.09 205.99 26.75
  Q 209.94 35.96 215.12 46.07
  Q 215.94 47.66 216.01 45.88
  Q 216.20 41.02 215.62 35.99
  Q 215.13 31.78 216.62 28.15
  C 218.61 23.29 226.59 23.22 226.90 29.23
  Q 227.20 35.20 227.31 41.52
  Q 227.35 43.96 228.10 41.63
  C 230.20 35.15 232.78 29.85 238.59 25.88
  C 240.50 24.57 242.99 24.45 245.22 24.56
  Q 253.49 24.96 257.80 28.77
  Q 265.77 35.78 266.94 44.51
  Q 268.23 54.19 264.22 62.36
  Q 262.71 65.43 258.96 69.17
  Q 254.72 73.38 249.00 73.33
  C 244.52 73.29 238.79 72.38 235.41 69.09
  Q 229.59 63.45 227.91 55.08
  A 0.34 0.33 -9.9 0 0 227.53 54.82
  L 227.27 54.86
  Q 227.21 54.87 227.22 54.93
  Q 227.85 59.97 227.94 65.98
  Q 228.02 71.14 223.67 72.25
  Q 217.93 73.70 215.22 68.98
  Q 211.78 63.00 208.49 56.70
  Q 207.02 53.90 207.02 57.06
  C 207.02 61.75 207.61 67.01 205.86 71.32
  Q 205.49 72.22 206.37 72.64
  C 207.96 73.39 209.91 74.64 209.97 76.59
  Q 210.22 84.44 209.80 90.46
  C 209.39 96.50 209.67 102.90 210.54 108.82
  A 2.27 2.26 -2.9 0 0 212.69 110.75
  L 216.77 110.92
  A 1.88 1.86 -20.2 0 1 218.02 111.49
  Q 220.19 113.74 220.19 116.42
  Q 220.18 120.41 215.85 121.13
  Q 212.61 121.68 208.54 122.00
  C 202.84 122.46 199.01 117.33 198.61 112.10
  Q 198.23 106.92 198.52 101.00
  Q 198.55 100.32 197.80 99.30
  Z
  M 252.38 46.76
  C 251.92 42.79 248.30 40.11 244.65 42.74
  Q 242.79 44.08 241.67 47.05
  Q 238.90 54.38 242.95 59.01
  Q 245.10 61.48 248.27 60.79
  C 252.91 59.78 252.77 50.15 252.38 46.76
  Z"
/>
<path fill="#a3e487" d="
  M 183.32 58.43
  C 186.28 58.35 191.03 57.70 192.48 60.99
  C 194.77 66.13 190.75 69.13 186.04 69.33
  Q 181.10 69.54 175.72 69.08
  C 173.45 68.89 172.18 67.40 171.81 65.27
  Q 170.19 55.94 170.78 46.89
  C 170.99 43.68 170.86 40.31 170.40 37.11
  C 169.97 34.10 171.50 29.48 175.07 29.12
  Q 182.13 28.40 187.19 28.50
  Q 190.86 28.58 191.93 33.22
  C 193.37 39.47 187.06 40.58 182.56 41.51
  Q 182.10 41.61 181.90 42.03
  Q 181.37 43.11 181.75 44.20
  Q 181.90 44.62 182.35 44.68
  Q 183.52 44.82 184.78 44.67
  C 188.96 44.15 191.67 46.32 191.04 50.82
  C 190.55 54.34 186.61 54.67 183.79 55.19
  C 182.50 55.43 181.94 56.59 182.37 57.77
  A 0.99 0.97 79.3 0 0 183.32 58.43
  Z"
/>
<ellipse fill="#f9fdf4" cx="0.00" cy="0.00" transform="translate(133.47,46.07) rotate(87.9)" rx="3.16" ry="0.46"/>
<path fill="#a3e487" d="
  M 252.35 110.83
  C 250.39 115.29 245.86 120.72 240.64 121.32
  C 234.43 122.04 229.83 121.37 224.19 117.82
  C 222.06 116.47 221.39 114.79 220.18 112.75
  Q 213.05 100.72 218.81 85.35
  C 221.63 77.80 226.33 72.45 234.97 73.48
  Q 242.18 74.34 244.72 75.53
  Q 246.72 76.47 249.69 80.81
  Q 259.34 94.94 252.35 110.83
  Z
  M 234.5075 109.8459
  A 9.71 6.33 94.8 0 0 241.6278 100.6997
  A 9.71 6.33 94.8 0 0 236.1325 90.4941
  A 9.71 6.33 94.8 0 0 229.0122 99.6403
  A 9.71 6.33 94.8 0 0 234.5075 109.8459
  Z"
/>
<path fill="#a3e487" d="
  M 110.04 94.93
  Q 110.12 89.43 109.80 84.26
  Q 109.63 81.49 110.23 78.73
  C 111.34 73.63 120.50 72.30 121.07 78.55
  Q 121.68 85.16 121.64 88.82
  Q 121.51 102.53 122.43 115.23
  C 122.60 117.54 121.19 121.70 118.76 122.69
  C 114.86 124.28 111.42 121.60 109.40 118.28
  Q 105.91 112.56 102.89 106.63
  Q 101.81 104.53 101.77 106.89
  Q 101.68 112.02 101.38 117.03
  C 100.87 125.73 88.55 125.72 89.19 116.93
  Q 90.19 103.26 90.47 90.39
  C 90.56 86.26 89.85 82.20 90.64 78.07
  C 91.88 71.53 99.48 72.72 101.40 77.93
  Q 104.61 86.63 108.98 95.17
  Q 110.01 97.20 110.04 94.93
  Z"
/>
<path fill="#a3e487" d="
  M 134.56 99.47
  C 135.73 104.74 140.59 111.07 146.60 109.79
  Q 151.23 108.80 156.01 106.45
  C 158.09 105.42 160.50 105.72 161.72 107.84
  C 164.77 113.19 159.61 117.65 154.89 119.07
  Q 150.81 120.31 145.23 120.88
  C 137.36 121.70 129.84 116.85 125.48 110.57
  Q 123.88 108.27 123.50 105.54
  Q 122.24 96.59 124.45 88.02
  C 125.04 85.74 125.77 83.54 127.48 81.82
  C 134.39 74.84 144.03 72.98 152.92 75.24
  C 156.38 76.12 161.88 80.38 161.39 84.79
  C 161.02 88.11 158.33 89.63 155.23 89.31
  C 151.72 88.95 149.01 86.53 145.54 86.33
  C 140.09 86.02 136.57 91.04 134.80 95.63
  Q 134.11 97.42 134.56 99.47
  Z"
/>
<path fill="#f9fdf4" d="
  M 197.80 99.30
  Q 197.07 98.32 196.27 98.69
  L 197.13 85.70
  A 0.51 0.50 85.6 0 1 197.53 85.23
  L 197.93 85.14
  Q 198.29 85.06 198.30 85.43
  L 198.62 98.69
  Q 198.63 99.10 198.22 99.12
  Q 197.90 99.13 197.80 99.30
  Z"
/>
</svg>
