<?xml version="1.0" encoding="UTF-8" standalone="no"?>
<!DOCTYPE svg PUBLIC "-//W3C//DTD SVG 1.1//EN" "http://www.w3.org/Graphics/SVG/1.1/DTD/svg11.dtd">
<svg xmlns="http://www.w3.org/2000/svg" version="1.1" viewBox="0.00 0.00 270.00 127.00">
<path fill="#ffc869" d="
  M 77.24 77.66
  Q 76.12 77.14 75.07 76.34
  C 72.11 74.07 76.46 70.47 78.17 69.31
  Q 80.15 67.97 77.77 68.22
  Q 71.99 68.83 66.30 68.02
  Q 62.77 67.51 62.45 63.88
  Q 61.76 56.00 61.87 48.40
  A 0.50 0.49 -79.5 0 0 61.55 47.92
  L 61.13 47.76
  Q 61.03 47.72 61.02 47.83
  Q 60.90 50.27 59.69 52.38
  C 56.94 57.17 52.68 62.81 47.78 65.80
  Q 36.90 72.42 27.09 71.72
  Q 26.41 71.68 26.36 72.36
  Q 25.54 83.99 26.97 93.63
  C 27.52 97.38 30.28 105.11 34.66 105.72
  Q 35.24 105.80 35.73 105.46
  C 38.92 103.30 40.41 99.97 42.72 97.11
  Q 44.30 95.15 45.20 93.10
  C 47.55 87.73 49.68 82.45 52.77 77.73
  C 54.47 75.14 58.89 74.19 61.15 76.16
  C 64.18 78.79 65.74 83.55 64.22 87.31
  C 62.13 92.47 60.93 97.82 58.78 103.05
  Q 55.12 111.96 50.83 121.04
  C 48.60 125.75 44.28 126.83 39.62 126.25
  Q 20.20 123.84 10.55 107.02
  Q 5.75 98.67 5.76 88.34
  Q 5.78 52.84 5.75 14.06
  A 2.65 2.64 66.1 0 1 6.45 12.24
  C 13.47 4.59 25.30 2.83 34.89 4.21
  C 46.17 5.84 59.91 16.77 61.43 28.41
  Q 61.66 30.13 62.79 28.81
  Q 63.31 28.19 64.11 28.15
  Q 69.17 27.93 74.64 27.39
  Q 77.84 27.08 80.57 27.92
  A 1.45 1.42 83.7 0 1 81.39 28.59
  C 83.03 31.57 84.36 38.64 78.99 38.77
  Q 75.80 38.85 72.45 39.24
  Q 71.37 39.37 71.48 40.45
  L 71.74 43.07
  Q 71.84 44.11 72.88 43.96
  Q 76.61 43.42 79.85 44.16
  C 82.58 44.78 82.45 49.17 81.72 51.07
  A 1.34 1.34 0.0 0 1 81.06 51.79
  C 78.28 53.14 74.63 52.88 71.62 52.95
  Q 71.08 52.96 71.18 53.49
  L 71.81 57.01
  A 0.57 0.57 0.0 0 0 72.36 57.48
  C 76.65 57.55 82.67 55.61 83.77 61.68
  Q 84.27 64.45 82.36 66.44
  Q 82.17 66.63 82.24 66.89
  Q 82.30 67.09 82.44 67.14
  Q 82.66 67.23 82.88 67.11
  C 88.82 63.97 92.15 70.72 86.56 73.95
  Q 82.53 76.27 78.45 78.02
  Q 77.68 78.35 78.50 78.52
  Q 81.81 79.19 82.29 83.13
  Q 83.06 89.50 82.89 93.49
  Q 82.42 104.85 82.54 116.92
  Q 82.56 119.39 81.91 121.06
  C 80.81 123.84 76.22 123.80 73.67 123.38
  Q 68.45 122.52 68.04 117.07
  Q 67.52 110.24 67.63 104.82
  Q 67.84 93.95 68.12 82.85
  C 68.23 78.44 73.94 77.74 77.15 77.99
  Q 78.08 78.06 77.24 77.66
  Z
  M 24.86 26.18
  Q 26.02 38.66 26.25 51.40
  A 0.65 0.64 -88.6 0 0 26.85 52.04
  C 30.46 52.32 39.08 52.25 40.89 48.49
  Q 43.64 42.77 41.51 36.71
  C 38.64 28.58 33.29 26.06 25.49 25.53
  A 0.59 0.59 0.0 0 0 24.86 26.18
  Z"
/>
<path fill="#ffc869" d="
  M 132.42 42.99
  Q 133.25 44.98 133.19 42.82
  Q 132.98 35.90 133.96 30.57
  Q 134.41 28.10 136.76 26.96
  C 140.27 25.24 143.57 29.02 143.62 32.14
  Q 143.77 41.31 144.29 50.76
  C 144.43 53.44 145.35 59.64 148.59 60.36
  C 154.80 61.76 156.93 56.23 157.29 51.32
  Q 157.79 44.45 158.35 37.74
  C 158.65 34.23 157.53 29.33 161.34 27.05
  C 164.30 25.28 167.01 27.95 167.52 30.75
  C 169.05 39.18 167.79 49.40 166.29 58.67
  C 165.11 65.98 161.10 71.92 153.21 72.70
  C 147.51 73.27 142.46 72.25 139.01 67.40
  C 135.47 62.43 134.87 57.19 133.83 51.39
  Q 133.25 48.12 132.62 51.38
  Q 131.80 55.64 130.76 60.57
  C 130.51 61.78 129.80 62.59 129.45 63.71
  Q 129.27 64.29 129.72 64.70
  L 134.14 68.82
  A 2.01 2.01 0.0 0 1 134.16 71.74
  C 132.09 73.72 126.59 77.27 123.67 75.21
  C 122.53 74.40 122.06 73.08 121.29 71.96
  Q 120.83 71.29 120.06 71.53
  C 114.18 73.34 107.94 73.48 102.89 70.03
  C 96.56 65.71 90.69 60.16 88.42 52.60
  Q 85.72 43.58 87.14 35.29
  C 88.16 29.26 93.79 20.66 99.13 17.00
  Q 107.78 11.06 118.44 13.13
  C 127.19 14.83 123.27 26.18 116.44 25.09
  C 109.71 24.01 105.18 28.77 101.91 34.04
  Q 98.49 39.55 99.63 46.79
  C 100.26 50.83 101.45 54.84 105.04 57.19
  C 107.11 58.54 109.82 60.36 112.25 60.49
  A 0.48 0.48 0.0 0 0 112.68 59.75
  C 110.66 56.57 106.38 53.88 109.17 49.48
  C 111.24 46.21 115.99 46.77 118.68 48.82
  Q 120.18 49.96 121.37 51.69
  Q 122.22 52.94 122.19 51.43
  Q 122.10 47.96 121.29 44.72
  Q 120.84 42.97 119.09 42.89
  C 114.63 42.69 109.57 42.55 107.41 38.11
  Q 105.71 34.61 108.92 31.98
  Q 114.07 27.77 121.16 30.24
  Q 128.79 32.89 131.45 40.47
  Q 131.91 41.76 132.42 42.99
  Z"
/>
<path fill="#ffc869" d="
  M 227.23 45.52
  C 228.34 37.87 231.85 30.62 238.46 26.28
  C 240.77 24.76 243.69 25.02 246.33 25.17
  Q 255.84 25.73 261.95 34.03
  C 267.89 42.11 268.04 51.80 264.80 60.93
  C 263.42 64.84 260.19 68.45 257.12 71.00
  C 252.47 74.86 245.20 74.24 239.68 72.39
  C 232.35 69.94 228.72 61.33 227.25 54.39
  Q 227.08 53.58 226.98 54.40
  Q 226.82 55.83 227.01 57.31
  Q 227.76 63.23 227.45 67.97
  Q 227.21 71.59 223.82 72.63
  C 218.93 74.13 216.19 72.29 213.95 68.08
  Q 210.60 61.78 207.83 56.61
  Q 206.67 54.44 206.67 56.90
  Q 206.67 62.51 206.50 68.07
  Q 206.43 70.21 205.28 72.08
  Q 204.96 72.60 205.51 72.86
  Q 207.82 73.96 209.19 75.71
  Q 209.53 76.15 209.56 76.71
  Q 209.86 83.98 209.40 91.42
  C 209.01 97.72 209.35 102.79 209.98 108.74
  C 210.32 112.00 214.07 111.52 216.39 111.50
  Q 216.98 111.50 217.42 111.88
  Q 220.26 114.31 219.88 117.46
  C 219.30 122.35 213.08 122.06 209.32 122.50
  C 201.10 123.46 197.76 116.34 198.00 109.27
  C 198.22 103.13 198.62 96.75 198.01 90.66
  Q 197.60 86.55 197.94 84.49
  C 198.45 81.37 198.13 78.17 199.38 75.29
  Q 199.65 74.67 198.99 74.49
  C 196.59 73.86 194.31 72.13 194.54 69.40
  Q 196.05 51.53 195.82 32.35
  C 195.77 28.13 198.15 22.35 203.69 25.15
  Q 204.95 25.79 205.78 27.65
  Q 209.84 36.72 214.65 46.41
  Q 215.84 48.82 215.74 46.13
  Q 215.52 40.26 215.22 34.41
  Q 215.00 30.05 217.07 27.18
  C 218.96 24.55 223.85 24.39 225.70 27.07
  Q 226.69 28.51 226.77 31.23
  Q 226.97 38.25 226.92 45.57
  Q 226.92 45.67 227.02 45.68
  L 227.03 45.68
  Q 227.21 45.70 227.23 45.52
  Z
  M 245.60 61.35
  Q 249.83 62.01 251.09 58.06
  C 252.32 54.24 254.30 40.89 246.13 42.39
  C 242.42 43.07 241.19 47.75 240.39 50.79
  C 239.43 54.49 240.89 58.43 243.88 60.64
  A 3.84 3.82 -22.4 0 0 245.60 61.35
  Z"
/>
<path fill="#ffc869" d="
  M 182.57 41.83
  Q 181.50 41.90 181.38 42.96
  L 181.25 44.20
  Q 181.12 45.38 182.30 45.27
  C 186.97 44.81 191.25 45.19 190.74 51.18
  C 190.41 55.05 185.45 55.42 182.62 55.93
  Q 181.68 56.09 181.65 57.05
  L 181.61 58.02
  Q 181.58 59.02 182.58 58.99
  C 186.47 58.88 191.81 57.91 192.67 63.24
  C 193.56 68.71 187.92 70.04 183.75 69.95
  Q 177.05 69.80 175.38 69.64
  C 172.73 69.38 171.54 67.48 171.23 65.00
  Q 170.18 56.73 170.29 53.75
  Q 170.62 44.29 170.01 36.76
  C 169.77 33.79 171.42 30.04 174.77 29.65
  Q 181.83 28.82 187.20 29.00
  C 190.38 29.11 191.73 33.12 191.77 35.75
  C 191.82 40.01 185.77 41.62 182.57 41.83
  Z"
/>
<path fill="#ffc869" d="
  M 174.64 101.52
  C 175.07 106.18 180.93 107.07 183.87 104.08
  Q 185.38 102.55 185.63 99.00
  C 186.01 93.65 186.47 88.26 186.45 82.93
  C 186.44 79.78 186.12 76.13 189.31 74.28
  C 194.47 71.29 196.70 76.67 196.82 80.79
  Q 196.95 85.27 196.90 89.53
  Q 196.84 93.92 196.12 98.27
  Q 195.49 102.03 194.85 105.63
  C 194.20 109.31 191.18 116.29 186.85 117.91
  Q 179.39 120.70 171.63 117.42
  C 168.44 116.08 165.99 111.31 165.33 108.33
  Q 162.94 97.62 162.81 84.75
  C 162.77 80.57 162.90 72.37 168.77 73.57
  C 174.24 74.70 172.93 81.33 173.24 85.19
  Q 173.94 94.03 174.64 101.52
  Z"
/>
<path fill="#ffc869" d="
  M 109.41 96.22
  Q 109.86 95.87 109.85 95.30
  Q 109.79 91.26 109.51 87.16
  C 109.12 81.38 108.78 75.19 115.87 74.95
  Q 120.57 74.80 120.85 79.60
  Q 121.36 88.54 121.27 96.47
  C 121.20 103.15 121.98 109.78 121.96 116.34
  Q 121.94 120.93 119.16 122.80
  Q 116.08 124.88 112.53 122.53
  C 108.37 119.79 104.93 111.80 102.69 107.28
  Q 101.34 104.56 101.32 107.60
  Q 101.28 112.57 101.08 117.13
  C 100.67 126.60 87.95 125.83 88.67 117.80
  Q 90.34 99.37 89.86 81.73
  C 89.76 78.31 91.37 73.41 95.82 74.16
  Q 99.74 74.82 101.13 78.62
  Q 104.24 87.11 108.84 96.09
  A 0.38 0.37 57.4 0 0 109.41 96.22
  Z"
/>
<path fill="#ffc869" d="
  M 216.17 94.20
  C 217.98 84.95 221.97 72.58 234.34 73.99
  C 238.82 74.50 244.36 75.08 247.35 78.77
  Q 259.95 94.38 251.60 112.12
  Q 248.47 118.78 242.39 121.23
  Q 238.85 122.66 232.25 121.76
  Q 227.21 121.06 222.96 117.64
  C 220.75 115.87 220.08 113.32 218.64 110.94
  C 215.84 106.30 215.25 98.87 216.17 94.20
  Z
  M 234.1527 110.3873
  A 9.73 6.31 94.7 0 0 241.2388 101.2070
  A 9.73 6.31 94.7 0 0 235.7473 90.9927
  A 9.73 6.31 94.7 0 0 228.6612 100.1730
  A 9.73 6.31 94.7 0 0 234.1527 110.3873
  Z"
/>
<path fill="#ffc869" d="
  M 151.43 88.94
  C 147.06 86.85 142.58 85.39 138.67 89.50
  C 136.48 91.80 133.53 95.97 134.12 99.39
  C 135.11 105.08 140.12 111.73 146.58 110.26
  C 150.08 109.47 153.30 108.06 156.60 106.67
  C 158.46 105.88 160.54 106.83 161.45 108.54
  C 164.28 113.83 159.41 117.98 154.75 119.50
  C 150.06 121.04 143.05 122.20 138.38 120.83
  C 131.55 118.83 123.97 112.92 123.02 105.28
  Q 121.89 96.18 124.58 86.85
  C 125.06 85.20 125.86 83.50 127.09 82.28
  C 133.93 75.48 141.97 74.06 151.05 75.37
  C 154.93 75.93 160.89 79.81 161.06 84.56
  C 161.25 90.11 155.21 90.74 151.43 88.94
  Z"
/>
</svg>
