<?xml version="1.0" encoding="UTF-8" standalone="no"?>
<!DOCTYPE svg PUBLIC "-//W3C//DTD SVG 1.1//EN" "http://www.w3.org/Graphics/SVG/1.1/DTD/svg11.dtd">
<svg xmlns="http://www.w3.org/2000/svg" version="1.1" viewBox="0.00 0.00 270.00 127.00">
<path fill="#ddc1fc" d="
  M 84.44 64.80
  C 87.46 63.50 91.53 65.10 90.20 68.98
  C 89.17 71.96 84.82 73.32 82.20 74.88
  C 79.99 76.19 77.28 75.99 76.00 73.63
  C 74.50 70.88 77.84 68.70 79.64 67.16
  Q 81.11 65.91 79.19 66.13
  Q 73.47 66.76 67.90 66.02
  Q 63.99 65.50 63.74 61.59
  Q 63.26 54.04 63.18 46.26
  Q 63.18 45.63 62.56 45.76
  Q 62.18 45.84 62.10 46.21
  C 60.75 52.47 54.69 60.14 49.34 63.53
  Q 38.86 70.16 28.07 69.69
  A 0.48 0.47 -86.2 0 0 27.58 70.13
  Q 26.73 81.15 28.12 91.57
  Q 28.99 98.02 33.26 102.54
  C 36.41 105.88 40.12 101.07 41.38 98.74
  Q 42.61 96.45 44.38 94.64
  Q 45.77 93.20 46.47 91.34
  Q 49.00 84.62 52.90 77.60
  C 54.59 74.55 56.70 72.88 60.19 73.30
  Q 61.80 73.49 62.88 74.73
  C 68.98 81.68 64.34 86.30 62.55 93.28
  Q 61.86 95.95 60.83 98.65
  Q 56.75 109.37 51.61 119.67
  Q 49.54 123.82 44.88 124.18
  Q 39.31 124.61 32.83 122.56
  C 20.93 118.80 11.98 108.95 8.50 96.93
  Q 6.88 91.35 6.94 81.80
  Q 7.14 48.80 7.03 18.71
  Q 7.01 15.14 6.76 11.56
  C 6.60 9.28 11.72 6.39 13.60 5.48
  Q 21.65 1.56 31.80 1.84
  Q 41.08 2.09 48.48 7.09
  Q 56.77 12.68 61.10 21.24
  C 62.01 23.05 62.16 25.09 62.73 27.03
  Q 62.94 27.76 63.50 27.24
  L 64.10 26.67
  Q 64.52 26.28 65.08 26.25
  Q 71.87 25.88 78.91 25.44
  C 82.59 25.21 83.72 27.97 84.05 31.25
  C 84.37 34.55 82.61 36.91 79.27 36.80
  Q 76.28 36.70 73.41 37.21
  Q 72.36 37.40 72.48 38.46
  L 72.79 41.04
  Q 72.93 42.22 74.11 42.09
  Q 77.32 41.73 80.39 42.09
  Q 82.46 42.33 83.09 44.52
  C 85.15 51.72 77.30 50.88 73.25 50.77
  Q 72.23 50.74 72.38 51.75
  L 72.80 54.53
  Q 72.97 55.69 74.14 55.62
  Q 77.28 55.44 80.19 55.41
  C 84.51 55.35 85.59 59.87 84.47 63.29
  A 0.98 0.85 -16.4 0 1 84.22 63.68
  Q 83.95 63.93 83.85 64.27
  Q 83.58 65.18 84.44 64.80
  Z
  M 26.28 27.65
  Q 27.02 38.33 27.40 49.60
  A 0.52 0.50 4.2 0 0 27.83 50.08
  Q 34.52 51.07 40.39 48.37
  Q 41.54 47.84 42.07 46.74
  C 43.67 43.47 44.22 40.10 43.34 36.55
  Q 40.19 23.73 26.61 23.47
  A 0.68 0.67 -3.3 0 0 25.93 24.23
  Q 26.17 26.01 26.28 27.65
  Z"
/>
<path fill="#ddc1fc" d="
  M 134.09 48.13
  C 133.42 50.67 132.72 53.07 132.46 55.72
  Q 132.15 58.86 130.72 61.40
  A 1.18 1.17 -53.5 0 0 130.93 62.83
  Q 132.71 64.58 134.66 66.21
  C 139.07 69.89 129.64 73.36 127.60 73.72
  C 124.60 74.24 123.84 71.80 122.50 69.87
  Q 122.04 69.20 121.27 69.43
  C 109.60 72.84 103.62 68.87 95.85 60.98
  C 88.60 53.62 85.56 38.55 89.79 29.09
  C 95.03 17.39 104.12 9.19 117.77 10.80
  C 121.12 11.20 125.29 12.74 124.58 16.95
  Q 123.46 23.58 117.68 22.93
  C 111.54 22.25 108.14 25.18 104.62 29.68
  Q 98.12 37.96 101.80 49.03
  C 102.62 51.51 103.63 53.53 105.93 55.02
  C 107.81 56.24 111.14 58.68 113.35 58.59
  A 0.69 0.69 0.0 0 0 113.88 57.49
  C 112.28 55.28 109.23 52.70 109.61 49.80
  C 110.05 46.34 113.20 44.78 116.43 45.39
  C 119.74 46.01 120.73 47.93 122.63 50.30
  A 0.55 0.54 26.1 0 0 123.60 49.97
  Q 123.67 45.91 122.45 42.23
  A 2.09 2.09 0.0 0 0 120.59 40.81
  C 115.91 40.54 111.09 40.72 108.65 35.93
  C 106.85 32.40 110.44 28.96 113.53 28.09
  C 119.08 26.54 122.97 27.94 127.32 30.95
  C 131.47 33.84 131.90 37.67 133.74 41.94
  Q 134.11 42.81 134.31 41.89
  Q 134.95 38.81 134.70 35.41
  C 134.49 32.50 134.75 27.08 137.49 25.25
  C 141.14 22.81 144.64 26.85 144.71 30.44
  Q 144.92 41.23 145.70 51.03
  C 145.89 53.43 147.18 58.09 150.18 58.57
  C 154.98 59.32 157.49 56.24 158.17 52.02
  Q 159.59 43.34 159.74 31.21
  Q 159.77 29.50 160.46 27.85
  C 162.72 22.48 168.31 24.25 168.72 29.41
  Q 169.74 42.40 167.60 55.70
  C 165.93 66.14 160.46 72.04 149.05 70.58
  C 140.96 69.55 137.05 61.56 136.12 54.27
  Q 135.73 51.12 134.96 48.14
  Q 134.53 46.46 134.09 48.13
  Z"
/>
<path fill="#ddc1fc" d="
  M 228.37 52.46
  L 228.08 52.51
  Q 228.02 52.52 228.03 52.58
  Q 228.61 59.14 228.73 65.05
  C 228.82 69.25 225.64 71.30 221.70 71.03
  Q 217.71 70.76 215.73 66.90
  C 213.74 62.99 211.56 59.27 209.86 55.75
  Q 207.76 51.40 207.80 56.23
  C 207.84 60.35 208.42 66.25 206.66 69.87
  Q 206.40 70.40 206.86 70.77
  L 210.18 73.37
  Q 210.65 73.74 210.67 74.34
  Q 211.13 83.75 210.38 93.74
  Q 210.18 96.34 211.05 106.24
  C 211.61 112.63 218.91 106.45 220.59 113.22
  Q 222.07 119.18 215.80 119.80
  C 212.41 120.15 207.94 121.34 204.93 119.58
  Q 199.46 116.41 199.55 109.36
  Q 199.64 102.34 199.77 94.84
  C 199.83 91.32 199.09 87.93 199.32 84.55
  Q 199.71 79.01 200.55 73.07
  Q 200.65 72.39 199.98 72.21
  C 197.41 71.55 195.54 69.53 195.89 66.86
  Q 196.53 62.14 196.57 57.68
  Q 196.61 53.73 196.91 49.91
  C 197.38 43.97 197.35 38.26 197.15 32.34
  C 197.01 28.24 197.69 21.42 203.66 22.71
  C 207.43 23.53 207.15 26.77 208.56 29.53
  Q 212.20 36.60 215.40 43.99
  Q 215.55 44.35 215.83 44.62
  Q 216.02 44.81 216.19 45.01
  Q 217.38 46.43 217.32 44.58
  Q 217.13 39.47 216.64 34.70
  C 216.18 30.35 216.79 23.51 222.52 23.31
  Q 227.57 23.14 227.76 28.17
  Q 227.96 33.64 228.11 39.77
  Q 228.18 42.78 229.28 39.97
  Q 230.34 37.26 231.34 34.52
  C 233.02 29.94 238.21 23.45 243.41 23.18
  C 247.79 22.96 252.72 23.83 256.33 25.66
  C 258.85 26.95 260.30 29.20 262.29 31.16
  C 270.09 38.87 269.31 54.10 264.22 62.37
  Q 262.87 64.56 259.35 68.01
  C 254.18 73.07 246.82 72.28 240.61 70.12
  C 233.77 67.73 230.27 59.79 228.94 52.87
  Q 228.85 52.39 228.37 52.46
  Z
  M 250.26 58.97
  C 253.54 57.37 253.92 48.84 253.59 45.99
  C 253.11 41.71 249.63 38.23 245.41 41.22
  C 242.79 43.08 240.82 49.49 241.39 52.53
  C 242.18 56.64 245.55 61.28 250.26 58.97
  Z"
/>
<path fill="#ddc1fc" d="
  M 182.87 55.00
  L 182.91 56.17
  Q 182.97 57.42 184.20 57.22
  Q 194.85 55.52 193.78 63.50
  C 193.02 69.18 181.20 67.88 177.23 67.65
  Q 173.27 67.42 172.69 63.37
  Q 171.26 53.31 171.83 44.61
  C 172.08 40.94 171.68 37.21 171.61 33.57
  C 171.56 31.07 173.25 27.90 176.13 27.69
  Q 181.60 27.29 186.55 26.97
  C 190.59 26.71 192.50 29.10 192.93 32.92
  C 193.49 37.95 187.27 39.49 183.47 39.73
  Q 182.55 39.79 182.52 40.72
  L 182.46 42.50
  Q 182.42 43.67 183.58 43.50
  C 188.45 42.78 192.69 43.47 191.92 49.41
  C 191.45 53.07 186.60 53.18 183.92 53.67
  Q 182.82 53.88 182.87 55.00
  Z"
/>
<path fill="#ddc1fc" d="
  M 197.89 95.68
  A 1.25 1.25 0.0 0 0 196.89 96.89
  Q 196.81 106.40 191.07 113.90
  Q 190.49 114.66 189.63 115.12
  Q 182.59 118.85 173.93 115.88
  Q 171.00 114.87 169.21 112.06
  Q 167.00 108.56 166.45 105.35
  Q 165.42 99.39 164.72 92.79
  Q 164.20 87.91 164.21 84.16
  Q 164.23 78.67 164.79 75.54
  Q 165.43 71.97 168.91 71.55
  C 171.94 71.18 174.18 74.62 174.26 77.49
  Q 174.53 87.80 175.66 98.03
  Q 176.02 101.37 177.24 102.51
  Q 179.50 104.63 182.76 103.67
  C 186.42 102.60 186.80 99.39 187.05 96.23
  Q 187.76 87.08 187.81 77.52
  C 187.85 70.93 196.34 68.80 197.47 76.24
  Q 198.71 84.34 198.11 89.74
  Q 197.83 92.22 198.77 94.57
  Q 198.97 95.08 198.52 95.40
  Q 198.24 95.61 197.89 95.68
  Z"
/>
<path fill="#ddc1fc" d="
  M 227.61 73.49
  Q 230.26 72.06 232.64 72.00
  C 236.21 71.91 244.97 72.75 247.87 76.07
  Q 260.78 90.80 253.39 108.76
  C 251.78 112.69 249.04 116.29 245.43 118.43
  C 242.34 120.26 238.26 120.08 234.77 119.89
  C 230.08 119.64 224.01 116.88 221.81 112.17
  C 220.58 109.52 218.86 107.20 218.16 104.30
  C 216.45 97.21 217.17 91.38 219.59 84.50
  C 221.25 79.75 222.87 76.06 227.61 73.49
  Z
  M 235.4859 108.5510
  A 9.83 6.43 94.4 0 0 242.6510 99.2433
  A 9.83 6.43 94.4 0 0 236.9941 88.9490
  A 9.83 6.43 94.4 0 0 229.8290 98.2567
  A 9.83 6.43 94.4 0 0 235.4859 108.5510
  Z"
/>
<path fill="#ddc1fc" d="
  M 110.52 94.51
  A 0.58 0.57 8.0 0 0 111.28 93.94
  Q 111.03 88.07 110.69 81.93
  C 110.40 76.75 111.93 72.70 118.21 73.15
  C 121.91 73.41 122.18 77.42 122.24 80.39
  C 122.40 87.97 122.03 95.97 122.49 103.25
  Q 122.83 108.49 123.22 113.74
  C 123.41 116.18 122.04 120.11 119.68 121.10
  Q 116.90 122.26 114.21 120.84
  C 110.14 118.71 106.60 110.22 104.32 105.73
  Q 102.22 101.58 102.29 106.23
  Q 102.37 111.38 102.10 115.80
  C 101.59 124.20 89.42 123.73 90.07 115.88
  Q 91.21 102.11 91.43 88.85
  C 91.50 84.88 89.34 72.83 95.77 72.30
  Q 100.40 71.92 102.15 76.39
  Q 105.68 85.44 109.57 93.67
  Q 109.87 94.29 110.52 94.51
  Z"
/>
<path fill="#ddc1fc" d="
  M 147.04 84.88
  C 141.32 84.06 137.44 89.25 135.62 94.08
  C 133.28 100.30 140.82 109.93 147.50 108.45
  Q 152.23 107.39 156.05 105.42
  C 163.06 101.82 165.55 110.25 161.21 114.40
  C 157.90 117.56 153.33 118.40 148.69 119.07
  Q 143.98 119.75 140.99 119.12
  C 134.14 117.68 126.06 111.93 124.66 104.43
  Q 123.11 96.15 125.57 86.06
  Q 126.69 81.48 130.20 78.62
  Q 137.64 72.57 147.94 72.99
  C 153.78 73.23 159.11 74.95 161.52 80.36
  C 162.56 82.69 162.01 86.23 159.31 87.32
  C 154.70 89.17 151.34 85.49 147.04 84.88
  Z"
/>
<path fill="#ddc1fc" d="
  M 83.84 115.24
  C 83.85 117.74 83.08 120.51 80.31 121.14
  C 76.15 122.10 70.19 121.51 69.60 116.22
  Q 68.80 109.17 68.93 103.65
  Q 69.17 93.25 69.44 81.26
  C 69.54 76.57 74.02 76.13 77.69 76.08
  Q 78.90 76.07 79.96 76.58
  C 81.87 77.50 83.14 78.28 83.43 80.66
  Q 84.36 88.32 84.00 95.90
  C 83.69 102.36 83.81 108.81 83.84 115.24
  Z"
/>
</svg>
