<?xml version="1.0" encoding="UTF-8" standalone="no"?>
<!DOCTYPE svg PUBLIC "-//W3C//DTD SVG 1.1//EN" "http://www.w3.org/Graphics/SVG/1.1/DTD/svg11.dtd">
<svg xmlns="http://www.w3.org/2000/svg" version="1.1" viewBox="0.00 0.00 270.00 356.00">
<path fill="#ff718c" d="
  M 105.02 31.80
  L 107.18 32.88
  Q 108.77 33.68 108.74 35.46
  C 108.67 39.58 108.52 44.66 105.16 47.65
  C 100.99 51.37 100.96 57.13 97.41 61.23
  Q 92.31 67.11 84.14 68.82
  C 77.19 70.26 68.92 64.29 64.96 58.97
  C 62.59 55.78 62.26 51.65 59.59 48.65
  C 58.60 47.54 57.54 46.45 57.04 45.01
  Q 55.32 40.08 55.64 34.73
  Q 55.69 33.72 56.58 33.23
  L 58.66 32.08
  A 1.45 1.44 -20.0 0 0 59.39 30.54
  Q 57.76 21.83 58.83 13.76
  C 59.04 12.19 60.36 10.75 61.65 9.88
  Q 64.98 7.61 67.63 4.38
  C 68.83 2.93 70.75 1.81 72.57 1.37
  Q 82.07 -0.90 92.43 1.85
  C 103.74 4.85 108.17 13.59 105.66 24.88
  Q 104.96 28.04 104.55 30.89
  A 0.88 0.87 -72.8 0 0 105.02 31.80
  Z"
/>
<path fill="#ff718c" d="
  M 181.47 62.02
  Q 180.46 61.52 179.41 62.08
  Q 177.43 63.14 175.46 64.19
  C 168.97 67.65 163.00 66.12 157.16 62.26
  A 1.90 1.89 48.2 0 0 155.24 62.15
  C 146.46 66.62 134.07 69.00 125.71 63.04
  A 0.85 0.85 0.0 0 1 125.73 61.63
  Q 136.90 54.20 140.17 42.92
  Q 141.39 38.70 141.52 32.66
  Q 141.65 26.23 142.88 20.28
  Q 144.26 13.56 149.24 9.50
  C 160.66 0.16 178.14 0.39 188.50 11.55
  C 193.69 17.14 193.42 27.86 194.12 35.03
  Q 195.44 48.52 205.11 58.09
  C 206.56 59.52 208.07 60.47 209.72 61.59
  A 0.95 0.95 0.0 0 1 209.60 63.23
  C 200.92 67.50 189.88 66.13 181.47 62.02
  Z"
/>
<path fill="#ff718c" d="
  M 111.74 195.74
  C 96.03 177.67 68.52 171.25 45.36 171.20
  Q 41.81 171.20 41.28 167.69
  Q 41.18 167.06 41.39 166.47
  Q 42.22 164.14 44.69 164.06
  Q 56.49 163.71 68.14 165.42
  Q 71.03 165.84 68.37 164.65
  Q 62.89 162.21 58.53 157.90
  Q 50.26 149.75 44.00 141.35
  C 39.36 135.12 36.36 127.73 33.78 120.38
  C 30.86 112.07 29.97 100.99 33.46 92.50
  Q 38.29 80.76 52.57 78.18
  C 54.44 77.84 56.56 77.64 58.19 78.79
  C 70.28 87.35 83.76 90.54 97.62 83.87
  Q 100.09 82.68 106.44 78.64
  C 109.58 76.65 116.45 79.10 119.65 80.64
  C 123.93 82.70 127.94 81.83 132.10 79.94
  Q 135.66 78.32 140.24 77.98
  C 142.65 77.80 144.25 79.29 146.12 80.48
  C 157.79 87.90 170.12 90.18 182.97 83.76
  Q 186.91 81.79 190.61 79.40
  C 193.83 77.31 197.66 77.77 201.05 79.01
  Q 221.22 86.43 218.49 108.53
  Q 217.66 115.28 215.27 121.41
  C 208.83 138.01 198.31 153.45 183.23 163.49
  Q 181.36 164.74 183.60 164.53
  Q 191.67 163.76 199.30 164.05
  Q 202.20 164.15 202.47 167.04
  Q 202.51 167.46 202.45 167.86
  Q 201.95 171.24 198.53 171.24
  Q 182.79 171.25 168.92 174.88
  Q 153.58 178.89 141.68 186.91
  Q 136.69 190.27 132.05 195.81
  Q 131.29 196.71 132.39 196.30
  C 137.41 194.41 142.66 192.50 147.93 191.50
  Q 182.43 184.96 211.75 202.43
  C 213.32 203.36 213.87 204.73 213.86 206.49
  Q 213.79 216.99 213.82 226.34
  A 3.73 3.73 0.0 0 1 208.42 229.68
  Q 202.49 226.70 196.61 224.30
  C 177.99 216.72 156.33 216.06 137.26 223.62
  Q 129.91 226.54 122.93 229.77
  A 2.72 2.72 0.0 0 1 120.53 229.73
  Q 114.05 226.41 106.93 223.73
  Q 79.40 213.37 51.95 222.56
  Q 44.01 225.22 35.59 229.50
  C 32.60 231.02 30.00 229.01 30.00 225.83
  Q 29.99 214.49 30.02 205.44
  Q 30.02 203.67 31.43 202.80
  C 55.59 187.96 85.30 185.76 111.38 196.24
  Q 112.61 196.74 111.74 195.74
  Z
  M 114.19 96.95
  Q 111.79 97.47 110.06 99.11
  Q 107.52 101.53 104.45 103.46
  C 100.79 105.77 102.08 115.44 102.25 119.30
  Q 102.29 120.07 101.75 120.62
  C 98.55 123.88 98.48 130.41 102.02 133.94
  Q 103.62 135.54 104.54 137.89
  C 106.06 141.75 108.78 145.05 111.99 147.58
  C 118.03 152.33 124.95 152.13 130.86 147.39
  Q 135.77 143.45 137.51 139.21
  Q 138.89 135.84 141.16 132.89
  Q 142.93 130.60 143.14 126.37
  C 143.29 123.20 143.12 122.62 140.52 120.84
  Q 139.95 120.45 140.07 119.77
  C 141.12 113.59 143.02 105.17 137.42 101.15
  C 130.95 96.51 122.06 95.22 114.19 96.95
  Z
  M 141.35 152.35
  C 129.14 162.59 113.14 162.10 100.99 151.93
  Q 99.59 150.76 97.95 151.16
  C 89.63 153.20 85.63 161.17 84.53 169.19
  A 0.55 0.55 0.0 0 0 84.91 169.80
  Q 96.77 173.73 107.29 181.65
  C 112.68 185.71 117.56 189.33 120.87 195.47
  A 0.95 0.94 -42.5 0 0 122.49 195.54
  C 126.95 188.82 132.40 184.77 138.71 180.06
  C 144.60 175.67 150.83 172.75 157.59 170.35
  A 0.96 0.95 -17.5 0 0 158.20 169.19
  C 156.03 161.35 154.55 153.72 145.40 151.39
  Q 143.17 150.82 141.35 152.35
  Z
  M 37.94 219.91
  C 64.55 206.90 95.04 207.46 121.03 221.74
  Q 121.79 222.16 122.56 221.75
  Q 154.69 204.48 189.83 213.75
  Q 198.13 215.94 205.21 219.77
  A 0.61 0.61 0.0 0 0 206.11 219.23
  L 206.06 208.49
  Q 206.06 207.64 205.30 207.27
  C 187.45 198.42 169.18 195.20 149.08 199.23
  C 140.33 200.99 131.16 205.11 122.66 209.06
  Q 121.71 209.50 120.77 209.02
  Q 113.13 205.08 104.89 202.21
  Q 78.53 193.01 52.54 201.61
  Q 44.98 204.10 37.82 207.38
  A 0.93 0.92 -12.5 0 0 37.28 208.22
  L 37.24 219.47
  A 0.49 0.48 -12.8 0 0 37.94 219.91
  Z"
/>
<path fill="#ff718c" d="
  M 57.49 276.71
  C 53.26 287.58 46.78 294.20 35.40 298.55
  Q 29.64 300.75 23.13 300.32
  Q 22.19 300.26 22.14 301.20
  C 21.69 309.55 21.44 318.95 23.82 327.08
  C 24.53 329.51 28.77 336.84 32.36 333.78
  Q 35.27 331.29 35.98 330.19
  C 38.07 326.93 40.44 324.04 41.77 320.40
  Q 44.47 313.02 48.70 307.06
  C 51.39 303.27 56.14 302.62 58.74 307.10
  Q 59.69 308.73 60.44 310.31
  C 61.44 312.40 60.63 315.52 59.76 317.52
  C 58.06 321.48 57.61 325.60 55.91 329.51
  Q 51.74 339.13 47.18 349.65
  C 45.35 353.89 41.70 355.72 37.04 355.37
  Q 27.85 354.67 20.61 351.04
  Q 16.85 349.15 11.74 343.56
  Q 1.39 332.23 1.38 317.37
  Q 1.38 280.82 1.35 243.75
  Q 1.35 241.18 2.95 239.68
  C 5.98 236.82 10.38 234.46 14.23 233.44
  C 27.35 229.96 39.78 232.61 48.84 242.16
  C 52.88 246.42 56.82 250.92 57.50 257.02
  Q 57.58 257.71 58.20 257.40
  C 58.96 257.03 59.62 256.64 60.50 256.56
  Q 67.40 255.93 73.64 255.72
  C 75.28 255.66 77.41 256.04 78.08 257.80
  C 79.23 260.78 80.23 267.49 75.46 267.67
  Q 72.06 267.80 68.45 268.09
  A 1.20 1.20 0.0 0 0 67.36 269.46
  L 67.58 270.95
  Q 67.78 272.33 69.18 272.29
  C 71.66 272.21 76.92 271.53 77.99 274.46
  C 78.69 276.37 78.99 280.44 76.08 280.90
  Q 72.24 281.50 68.59 281.49
  Q 67.10 281.49 67.29 282.97
  L 67.59 285.21
  Q 67.78 286.68 69.26 286.62
  Q 72.21 286.50 75.18 286.37
  C 79.46 286.18 81.42 291.36 78.95 294.33
  Q 77.04 296.64 79.82 295.53
  C 80.63 295.21 81.37 294.79 82.30 294.90
  C 86.46 295.39 86.41 300.02 83.44 302.12
  Q 79.94 304.59 76.71 306.38
  Q 74.31 307.71 72.03 306.14
  C 67.81 303.24 71.84 299.47 74.63 297.76
  Q 76.26 296.77 74.36 296.93
  Q 68.18 297.46 62.35 296.69
  Q 58.83 296.23 58.53 292.76
  Q 57.82 284.63 58.31 276.89
  Q 58.49 274.15 57.49 276.71
  Z
  M 20.53 254.43
  Q 21.05 256.79 21.15 259.25
  Q 21.59 269.39 22.08 279.95
  Q 22.11 280.62 22.77 280.68
  Q 30.18 281.37 35.83 278.43
  Q 36.36 278.15 36.62 277.61
  Q 40.18 270.21 36.09 262.07
  Q 32.15 254.26 20.96 253.91
  A 0.43 0.43 0.0 0 0 20.53 254.43
  Z"
/>
<path fill="#ff718c" d="
  M 118.35 280.75
  Q 118.63 280.27 118.58 279.71
  Q 118.30 276.73 117.91 273.91
  Q 117.56 271.34 114.88 271.28
  Q 111.94 271.21 109.14 270.62
  C 105.68 269.90 102.17 267.18 103.52 263.19
  Q 104.53 260.17 107.59 258.85
  C 116.43 255.01 125.37 261.38 128.00 269.70
  C 128.73 272.02 129.66 274.57 129.37 277.04
  Q 128.66 283.08 127.45 288.75
  C 127.14 290.16 126.37 291.17 125.89 292.50
  Q 125.68 293.07 126.16 293.45
  Q 128.49 295.29 130.51 297.32
  Q 132.25 299.07 130.44 300.67
  C 128.57 302.33 126.22 303.55 123.99 304.57
  Q 120.23 306.29 118.05 301.05
  Q 117.52 299.77 116.21 300.22
  Q 104.79 304.11 95.98 296.35
  C 92.07 292.91 87.51 289.38 85.64 284.34
  Q 81.52 273.20 83.51 263.15
  Q 84.26 259.35 87.76 253.57
  Q 92.12 246.37 101.01 242.89
  Q 108.50 239.96 115.97 242.15
  C 123.66 244.42 119.21 254.64 112.32 253.36
  C 103.37 251.69 95.04 264.69 95.55 272.43
  C 95.85 276.91 97.23 283.07 100.94 285.91
  Q 104.41 288.56 107.90 289.35
  Q 109.67 289.75 108.62 288.27
  C 107.24 286.34 104.86 284.14 104.68 281.70
  C 104.33 277.14 107.95 275.04 112.03 275.92
  Q 115.96 276.78 117.65 280.71
  Q 117.96 281.43 118.35 280.75
  Z"
/>
<path fill="#ff718c" d="
  M 223.71 282.41
  Q 224.11 287.26 224.44 292.04
  C 224.65 295.05 224.93 299.50 221.70 301.01
  Q 218.19 302.64 214.85 301.17
  Q 212.86 300.30 210.81 296.37
  Q 208.05 291.08 204.42 285.28
  Q 204.29 285.08 204.11 284.98
  Q 203.57 284.69 203.57 285.31
  Q 203.64 290.87 203.32 297.04
  C 203.25 298.42 202.84 299.48 202.20 300.66
  Q 201.85 301.29 202.49 301.61
  C 204.93 302.82 206.78 304.03 206.67 307.10
  C 206.52 311.07 206.86 314.86 206.52 318.82
  Q 205.68 328.73 207.14 338.39
  A 2.20 2.20 0.0 0 0 209.27 340.26
  Q 211.22 340.31 212.96 340.41
  C 215.76 340.58 216.76 343.76 217.01 346.09
  C 217.62 351.91 209.63 351.63 206.09 351.98
  C 198.25 352.76 194.94 346.12 195.02 339.45
  C 195.10 332.56 195.37 325.49 195.03 318.46
  Q 194.80 313.79 195.47 307.81
  Q 195.70 305.76 196.43 303.87
  Q 196.69 303.19 195.97 303.04
  C 193.48 302.53 191.24 300.75 191.46 297.97
  Q 192.70 282.68 192.75 269.36
  C 192.77 264.82 191.98 260.47 193.65 255.97
  C 194.78 252.94 198.11 252.10 200.73 253.57
  Q 201.94 254.25 202.80 256.25
  Q 206.73 265.35 212.16 276.10
  A 0.19 0.18 41.2 0 0 212.50 276.08
  Q 212.70 275.46 212.68 274.83
  Q 212.44 268.82 212.29 262.48
  C 212.18 257.39 214.52 252.07 220.78 253.95
  Q 223.32 254.71 223.46 257.51
  Q 223.81 264.40 223.87 270.62
  Q 223.87 271.24 224.44 271.00
  Q 224.87 270.81 225.04 270.33
  C 227.58 263.34 232.13 253.22 240.66 253.40
  C 246.19 253.52 252.16 254.57 256.01 258.83
  Q 258.69 261.79 260.95 265.29
  Q 263.71 269.58 264.21 276.50
  Q 265.21 290.49 254.77 299.40
  Q 250.72 302.86 244.86 302.50
  C 240.59 302.24 235.86 301.48 232.55 298.61
  Q 226.30 293.21 224.13 282.07
  A 0.04 0.03 72.1 0 0 224.08 282.04
  L 223.85 282.16
  Q 223.70 282.24 223.71 282.41
  Z
  M 248.15 287.81
  C 249.40 284.36 251.21 273.72 246.62 271.35
  C 237.29 266.54 231.99 292.57 245.66 289.84
  Q 247.54 289.47 248.15 287.81
  Z"
/>
<path fill="#ff718c" d="
  M 146.12 289.49
  C 153.25 290.08 153.75 282.94 154.16 277.87
  Q 154.84 269.41 155.14 261.06
  Q 155.26 257.88 157.39 255.91
  C 159.48 253.97 162.64 254.95 163.57 257.52
  Q 165.07 261.71 164.94 267.21
  Q 164.69 277.41 163.19 286.75
  C 162.25 292.68 159.24 299.24 152.76 300.80
  Q 146.14 302.40 141.25 300.54
  C 134.84 298.09 131.87 290.45 131.10 284.09
  Q 130.10 275.91 129.77 269.53
  Q 129.52 264.59 130.40 259.14
  Q 130.81 256.60 133.00 255.44
  C 136.99 253.31 140.21 257.53 140.26 261.19
  Q 140.37 270.43 141.04 281.16
  Q 141.21 283.93 142.62 287.12
  Q 143.57 289.28 146.12 289.49
  Z"
/>
<path fill="#ff718c" d="
  M 179.29 284.99
  A 1.27 1.26 84.7 0 0 178.22 286.29
  L 178.26 287.19
  A 0.93 0.92 -3.3 0 0 179.26 288.07
  C 182.15 287.85 188.33 287.26 189.38 291.09
  C 192.03 300.80 176.44 298.71 171.82 298.21
  C 169.43 297.96 168.31 296.08 168.00 293.88
  Q 166.76 284.92 167.18 276.05
  C 167.36 272.32 166.92 268.50 166.82 264.74
  C 166.75 262.20 168.40 258.29 171.45 258.00
  Q 177.38 257.43 182.63 257.30
  Q 184.10 257.26 185.42 257.74
  C 188.55 258.89 190.29 266.53 186.74 268.21
  Q 183.30 269.84 179.72 270.18
  Q 178.03 270.34 178.01 272.03
  Q 178.01 272.17 178.01 272.31
  Q 177.99 274.13 179.79 273.85
  C 182.88 273.37 187.07 273.65 187.64 277.50
  C 188.52 283.37 183.88 284.28 179.29 284.99
  Z"
/>
<path fill="#ff718c" d="
  M 171.23 329.86
  C 171.52 334.84 177.45 336.16 180.72 333.00
  C 182.81 330.98 182.50 326.83 182.69 324.01
  Q 183.21 316.49 183.38 307.89
  C 183.47 303.31 190.30 299.08 192.54 304.87
  Q 193.64 307.72 193.77 311.88
  Q 194.14 323.42 191.73 334.76
  Q 190.63 339.91 186.91 344.66
  C 182.97 349.69 174.80 349.59 169.58 347.24
  C 163.54 344.51 161.60 337.52 160.85 331.00
  C 159.78 321.73 158.76 314.48 160.31 306.53
  Q 161.41 300.86 166.20 302.48
  C 170.84 304.06 169.73 311.41 170.08 315.06
  Q 170.80 322.47 171.23 329.86
  Z"
/>
<path fill="#ff718c" d="
  M 215.66 339.85
  C 211.19 330.29 212.58 322.21 216.21 312.99
  C 218.05 308.32 223.53 302.45 229.14 302.60
  C 234.12 302.74 241.55 303.61 244.65 308.18
  C 245.80 309.87 247.20 310.87 248.26 312.76
  Q 255.67 325.93 249.32 340.17
  C 247.39 344.49 243.20 350.55 238.00 351.27
  C 231.56 352.16 223.80 351.37 219.55 346.32
  Q 217.61 344.02 215.66 339.85
  Z
  M 231.3046 339.3543
  A 9.78 6.39 94.9 0 0 238.5066 330.1558
  A 9.78 6.39 94.9 0 0 232.9754 319.8657
  A 9.78 6.39 94.9 0 0 225.7734 329.0642
  A 9.78 6.39 94.9 0 0 231.3046 339.3543
  Z"
/>
<path fill="#ff718c" d="
  M 98.31 334.77
  Q 97.55 333.71 97.55 335.01
  Q 97.54 341.41 97.30 346.69
  Q 96.95 354.07 89.28 352.90
  Q 84.62 352.19 84.95 347.50
  Q 85.89 334.17 86.33 320.14
  C 86.45 316.05 84.33 302.11 91.50 302.79
  Q 95.30 303.15 96.68 306.31
  Q 100.38 314.83 104.28 323.39
  Q 106.34 327.90 106.15 322.94
  Q 105.98 318.65 105.72 313.43
  C 105.47 308.51 106.66 303.91 112.57 303.77
  C 116.03 303.69 117.21 306.75 117.33 309.64
  Q 117.74 319.70 117.72 329.77
  C 117.70 334.76 118.24 339.54 118.45 344.45
  C 118.57 347.18 117.75 351.95 114.45 352.60
  Q 108.35 353.82 105.30 348.13
  Q 102.58 343.04 99.73 337.81
  C 99.20 336.83 98.95 335.66 98.31 334.77
  Z"
/>
<path fill="#ff718c" d="
  M 136.32 337.62
  C 143.51 343.45 153.02 332.56 156.96 336.09
  C 162.80 341.33 155.36 348.01 150.45 349.36
  Q 145.56 350.72 140.22 350.98
  C 132.17 351.38 125.52 345.87 121.10 339.31
  Q 120.16 337.93 119.79 336.13
  Q 117.93 327.22 120.72 316.72
  C 121.32 314.46 122.09 312.32 123.99 310.81
  C 133.59 303.22 148.28 299.54 156.59 310.36
  C 159.42 314.05 156.91 318.65 152.46 318.75
  C 146.37 318.90 141.52 311.97 135.46 318.13
  Q 125.18 328.58 136.32 337.62
  Z"
/>
<path fill="#ff718c" d="
  M 76.89 352.05
  C 72.89 353.21 65.04 353.65 64.36 347.95
  C 63.56 341.16 63.27 333.95 63.82 327.06
  Q 64.36 320.30 64.01 313.03
  C 63.65 305.43 77.74 305.73 78.33 311.27
  C 78.83 316.08 79.28 320.56 79.02 325.47
  Q 78.45 336.34 78.63 347.75
  Q 78.66 349.71 77.70 351.41
  Q 77.42 351.90 76.89 352.05
  Z"
/>
</svg>
