<?xml version="1.0" encoding="UTF-8" standalone="no"?>
<!DOCTYPE svg PUBLIC "-//W3C//DTD SVG 1.1//EN" "http://www.w3.org/Graphics/SVG/1.1/DTD/svg11.dtd">
<svg xmlns="http://www.w3.org/2000/svg" version="1.1" viewBox="0.00 0.00 400.00 159.00">
<path fill="#a3e486" d="
  M 21.53 20.29
  Q 20.51 14.75 21.17 9.12
  Q 21.24 8.56 21.60 8.13
  C 23.09 6.37 27.29 1.29 29.81 0.80
  C 42.56 -1.73 57.03 2.15 51.99 19.25
  A 2.06 2.06 0.0 0 0 53.15 21.73
  Q 54.72 22.41 54.75 24.16
  C 54.79 26.37 54.60 29.99 52.74 31.54
  Q 50.67 33.26 49.74 35.77
  C 48.09 40.22 45.09 44.13 40.63 45.85
  Q 37.69 46.99 35.12 46.44
  Q 25.48 44.39 22.96 34.59
  C 22.43 32.53 20.28 31.95 19.56 30.04
  Q 18.78 27.96 18.63 24.77
  Q 18.50 22.08 20.85 21.39
  Q 21.68 21.14 21.53 20.29
  Z"
/>
<path fill="#a3e486" d="
  M 86.21 42.00
  C 80.98 44.77 71.32 46.76 66.37 42.61
  A 0.78 0.77 45.6 0 1 66.38 41.41
  C 72.29 36.67 76.68 31.07 77.00 23.38
  Q 77.23 17.91 78.23 12.86
  C 78.73 10.37 80.39 8.00 82.32 6.34
  Q 89.61 0.02 99.75 2.25
  C 106.10 3.65 110.99 8.10 111.68 14.64
  Q 112.26 20.05 112.76 24.99
  C 113.46 31.86 117.83 37.06 123.15 41.35
  A 0.93 0.93 0.0 0 1 122.94 42.92
  C 116.94 45.52 110.10 44.67 104.03 41.75
  A 1.50 1.48 39.7 0 0 102.52 41.88
  C 97.12 45.70 92.83 45.23 87.29 42.02
  Q 86.76 41.71 86.21 42.00
  Z"
/>
<path fill="#a3e486" d="
  M 216.13 85.38
  C 217.25 84.97 218.24 84.43 219.48 84.54
  C 223.62 84.90 223.57 89.32 220.74 91.51
  C 218.23 93.44 211.33 97.92 208.62 95.04
  C 205.92 92.18 208.97 89.48 211.14 87.68
  Q 212.65 86.42 210.68 86.52
  Q 205.53 86.78 200.27 86.38
  C 197.23 86.15 195.98 84.24 195.76 81.34
  Q 195.17 73.74 195.13 66.26
  Q 195.13 65.95 194.92 65.69
  Q 194.83 65.57 194.64 65.60
  Q 194.47 65.63 194.41 65.80
  C 191.92 73.90 186.38 81.64 178.53 85.53
  C 172.45 88.53 167.36 90.14 160.53 89.88
  Q 159.88 89.86 159.83 90.50
  Q 159.10 99.50 159.99 109.79
  Q 160.69 117.92 165.95 123.19
  A 2.49 2.48 -46.1 0 0 169.54 123.12
  Q 173.35 118.99 176.76 114.54
  C 178.73 111.96 179.68 108.51 181.05 105.45
  Q 184.46 97.83 186.37 95.90
  Q 190.89 91.32 195.45 95.67
  C 200.96 100.93 196.49 107.85 194.64 113.49
  C 193.36 117.35 191.53 120.90 190.41 124.82
  C 188.90 130.08 186.03 135.22 183.68 140.07
  C 179.15 149.41 161.88 142.21 155.64 138.26
  Q 149.28 134.23 144.90 126.98
  C 140.68 119.97 139.13 113.40 139.16 104.95
  Q 139.27 68.74 139.22 32.83
  C 139.21 30.51 141.34 28.90 143.06 27.67
  Q 150.32 22.48 159.64 21.96
  Q 176.37 21.02 187.83 33.56
  Q 192.27 38.42 194.74 47.11
  Q 194.95 47.86 195.60 47.42
  L 196.62 46.73
  Q 197.10 46.41 197.68 46.36
  Q 203.87 45.84 210.52 45.57
  C 214.46 45.41 215.97 47.84 216.19 51.51
  Q 216.50 56.69 211.47 56.94
  Q 208.50 57.10 205.26 57.61
  Q 204.65 57.71 204.71 58.33
  L 205.05 61.42
  Q 205.14 62.25 205.98 62.15
  C 210.27 61.64 216.21 61.19 215.51 67.64
  C 215.10 71.40 208.47 71.22 205.76 71.02
  Q 204.43 70.93 204.62 72.25
  L 204.96 74.75
  A 1.27 1.27 0.0 0 0 206.31 75.84
  Q 209.46 75.63 212.64 75.63
  C 217.06 75.64 218.53 81.55 216.01 84.38
  Q 215.81 84.60 215.68 84.87
  Q 215.27 85.69 216.13 85.38
  Z
  M 158.67 48.43
  Q 159.11 59.20 159.77 69.62
  A 0.86 0.86 0.0 0 0 160.61 70.43
  C 164.64 70.54 172.87 70.32 174.69 65.65
  Q 176.30 61.51 175.80 58.47
  C 174.97 53.33 170.82 46.41 165.15 44.79
  Q 162.02 43.89 158.84 43.67
  A 0.59 0.57 1.4 0 0 158.21 44.26
  C 158.24 45.66 158.61 47.01 158.67 48.43
  Z"
/>
<path fill="#a3e486" d="
  M 254.99 70.08
  Q 255.08 65.57 253.82 62.01
  A 1.58 1.57 80.4 0 0 252.35 60.96
  C 247.95 60.90 242.96 60.73 240.78 56.22
  C 239.08 52.69 242.41 49.30 245.53 48.33
  Q 252.01 46.30 258.26 50.42
  C 264.84 54.73 266.96 62.50 265.82 70.14
  Q 264.80 77.03 262.93 82.05
  A 1.02 1.02 0.0 0 0 263.24 83.19
  C 265.28 84.86 270.36 87.93 266.62 90.71
  Q 264.17 92.53 260.74 94.18
  C 257.84 95.58 255.25 92.40 254.19 90.09
  A 0.80 0.79 -21.1 0 0 253.22 89.67
  C 244.98 92.44 237.45 90.63 231.51 84.68
  Q 229.16 82.33 226.98 80.04
  Q 222.69 75.52 221.12 68.27
  C 219.96 62.93 219.44 55.34 221.48 50.20
  C 223.83 44.30 229.07 36.05 235.21 33.51
  C 240.27 31.43 253.57 28.80 256.34 34.96
  C 257.78 38.15 253.85 44.14 250.14 43.35
  C 242.71 41.75 238.47 47.40 234.55 52.95
  Q 232.80 55.43 232.58 58.59
  C 232.26 63.44 232.50 70.87 236.55 74.05
  Q 240.09 76.83 244.31 78.48
  Q 246.81 79.46 245.47 77.13
  C 243.61 73.92 239.77 72.16 242.61 67.65
  C 244.56 64.57 249.30 65.05 251.81 66.85
  C 253.06 67.75 253.49 69.07 254.36 70.27
  Q 254.97 71.10 254.99 70.08
  Z"
/>
<path fill="#a3e486" d="
  M 360.27 72.65
  Q 359.93 76.13 360.56 80.17
  C 361.01 83.05 361.18 86.90 359.12 89.27
  C 356.35 92.45 350.71 92.04 348.52 88.19
  Q 344.82 81.68 340.82 74.40
  Q 340.33 73.53 340.12 74.51
  Q 339.92 75.47 339.94 76.49
  Q 340.06 81.53 339.66 86.41
  C 339.54 87.96 338.64 89.12 338.28 90.58
  Q 338.13 91.19 338.73 91.34
  Q 342.79 92.34 342.95 96.04
  Q 343.23 102.35 342.72 110.67
  C 342.38 116.30 342.81 121.47 343.35 126.92
  C 343.69 130.39 347.49 129.74 349.85 129.75
  Q 350.45 129.75 350.90 130.15
  C 354.54 133.50 354.11 139.18 348.36 140.01
  Q 344.57 140.56 340.34 140.75
  C 336.56 140.92 333.36 137.17 332.22 134.01
  Q 331.49 131.96 331.50 126.90
  C 331.52 120.44 331.76 113.91 331.41 107.42
  Q 331.12 102.27 332.27 95.13
  Q 332.41 94.25 332.92 93.52
  A 0.57 0.56 -66.3 0 0 332.58 92.64
  C 329.52 91.96 327.75 90.11 327.99 87.03
  Q 329.51 67.25 329.18 50.95
  Q 329.13 48.33 330.12 45.69
  C 331.17 42.87 334.85 41.66 337.11 43.67
  Q 338.33 44.75 339.24 46.63
  Q 343.63 55.71 347.78 64.29
  Q 348.05 64.84 348.41 65.35
  Q 349.02 66.23 349.03 65.16
  Q 349.09 59.18 348.58 53.71
  C 348.23 49.97 349.33 43.71 354.23 43.43
  Q 358.97 43.15 359.34 47.90
  Q 359.95 55.63 360.20 63.83
  Q 360.21 63.89 360.27 63.89
  L 360.52 63.90
  Q 360.81 63.90 360.82 63.62
  C 361.23 55.97 368.13 42.82 377.01 43.24
  C 382.83 43.51 388.45 44.45 392.45 49.12
  C 395.22 52.35 397.75 54.91 398.73 59.30
  C 400.31 66.34 399.80 72.48 398.02 79.17
  C 397.18 82.36 394.92 84.60 392.80 87.01
  C 389.83 90.39 386.39 92.09 381.73 92.01
  C 375.18 91.91 369.68 90.42 365.67 84.72
  Q 361.90 79.35 360.68 72.64
  Q 360.41 71.13 360.27 72.65
  Z
  M 384.61 75.96
  C 385.62 72.27 386.62 64.82 383.72 61.78
  C 382.28 60.27 379.53 59.92 377.79 61.26
  C 375.24 63.22 374.13 66.54 373.56 69.85
  Q 372.86 73.91 375.61 77.42
  C 378.33 80.86 383.37 80.50 384.61 75.96
  Z"
/>
<path fill="#a3e486" d="
  M 282.27 78.70
  C 288.81 80.22 290.57 72.92 290.84 68.22
  Q 291.17 62.47 291.68 56.83
  C 291.99 53.50 291.25 50.52 292.83 47.40
  C 295.40 42.31 300.23 45.15 300.95 49.53
  C 301.89 55.29 301.57 60.39 301.07 66.06
  C 300.35 74.27 299.74 81.14 294.13 87.72
  Q 292.36 89.79 289.24 90.40
  C 283.98 91.43 276.71 91.55 273.17 86.81
  Q 269.20 81.51 268.17 74.57
  C 266.92 66.27 266.00 57.99 267.12 50.04
  Q 267.50 47.27 269.03 45.94
  C 273.21 42.29 276.52 47.59 276.58 51.34
  Q 276.76 61.24 277.51 69.79
  C 277.75 72.50 279.01 77.94 282.27 78.70
  Z"
/>
<path fill="#a3e486" d="
  M 315.78 77.09
  C 319.01 76.88 324.40 76.37 325.64 80.22
  C 327.36 85.59 323.10 88.02 318.56 88.15
  Q 314.16 88.27 308.97 87.86
  C 306.63 87.68 305.15 86.27 304.80 83.98
  Q 303.37 74.32 303.85 65.67
  C 304.07 61.83 303.67 58.01 303.54 54.21
  C 303.45 51.76 305.08 48.23 307.97 47.91
  Q 314.83 47.13 320.03 47.11
  C 323.64 47.10 325.10 50.87 325.12 53.90
  C 325.14 58.29 319.59 59.53 316.07 59.92
  A 1.50 1.49 -89.2 0 0 314.76 61.20
  L 314.62 62.24
  Q 314.43 63.65 315.83 63.48
  C 319.96 62.99 324.81 63.46 324.11 69.18
  C 323.57 73.58 319.47 73.90 315.95 74.15
  A 1.12 1.12 0.0 0 0 314.92 75.29
  L 314.95 76.32
  A 0.79 0.78 87.5 0 0 315.78 77.09
  Z"
/>
<path fill="#a3e486" d="
  M 55.68 132.72
  Q 57.18 133.29 56.16 132.05
  Q 54.20 129.67 51.19 127.37
  C 39.54 118.47 26.19 116.11 11.41 115.97
  Q 9.45 115.95 9.01 114.04
  Q 8.95 113.78 8.97 113.52
  Q 9.24 111.02 11.76 110.99
  Q 19.59 110.91 26.56 112.25
  Q 28.23 112.57 26.85 111.58
  Q 16.40 104.12 9.12 93.13
  Q 3.14 84.10 2.38 72.71
  C 1.72 62.78 5.39 54.62 15.92 52.82
  C 18.30 52.42 20.45 52.67 22.44 54.10
  Q 36.54 64.21 51.35 53.96
  C 54.80 51.58 60.09 53.08 63.69 54.63
  C 64.75 55.09 66.43 55.21 67.50 54.74
  C 70.97 53.22 76.64 51.49 80.06 53.87
  C 88.19 59.54 96.73 60.93 105.68 56.24
  C 107.77 55.15 109.99 52.90 112.48 52.77
  C 120.06 52.38 127.85 57.52 128.80 65.43
  C 129.80 73.71 128.24 81.66 124.16 89.09
  C 119.54 97.50 113.30 104.44 105.77 110.62
  Q 104.36 111.77 106.16 111.49
  Q 110.72 110.76 115.75 111.05
  Q 118.05 111.18 118.17 113.47
  L 118.19 113.82
  A 2.05 2.04 -2.3 0 1 116.20 115.97
  Q 106.78 116.27 102.80 116.76
  C 91.57 118.16 79.59 123.10 71.60 131.37
  Q 69.41 133.63 72.36 132.52
  Q 88.37 126.50 105.51 129.79
  C 112.10 131.05 118.72 134.08 124.95 136.84
  A 1.91 1.91 0.0 0 1 126.09 138.54
  Q 126.26 145.49 126.06 153.75
  C 126.01 155.72 124.29 156.79 122.55 155.83
  Q 93.41 139.72 64.28 156.02
  A 1.21 1.19 44.6 0 1 63.09 156.02
  Q 38.84 142.47 14.34 151.36
  C 11.00 152.57 7.74 154.28 4.57 155.86
  A 2.05 2.05 0.0 0 1 1.60 154.09
  Q 1.34 146.22 1.55 138.76
  C 1.59 137.19 2.97 136.79 4.09 136.22
  Q 29.78 123.03 55.68 132.72
  Z
  M 76.46 77.72
  C 77.80 73.24 76.07 68.75 71.65 66.79
  Q 65.34 64.00 59.01 65.32
  C 56.05 65.93 54.30 68.04 52.12 69.88
  C 49.40 72.16 50.17 77.00 50.22 80.08
  Q 50.23 80.63 49.95 81.09
  Q 47.27 85.47 49.22 88.98
  Q 50.86 91.94 53.05 95.38
  C 59.08 104.85 69.19 104.10 74.09 94.16
  C 76.08 90.13 79.14 88.71 78.13 83.33
  Q 77.98 82.51 76.45 81.43
  Q 76.06 81.15 76.05 80.68
  Q 76.03 79.18 76.46 77.72
  Z
  M 76.95 103.04
  C 68.33 109.64 58.41 109.93 49.92 103.08
  C 48.48 101.92 46.80 101.85 45.24 102.93
  Q 39.21 107.14 38.65 114.53
  A 0.96 0.96 0.0 0 0 39.41 115.54
  Q 42.34 116.17 44.96 117.47
  Q 56.80 123.34 63.47 132.63
  A 0.51 0.51 0.0 0 0 64.33 132.59
  C 69.00 124.46 78.96 118.29 87.51 115.58
  A 0.76 0.75 72.9 0 0 88.00 114.64
  C 86.33 109.23 86.70 103.78 79.65 102.43
  C 78.78 102.26 77.65 102.51 76.95 103.04
  Z
  M 86.70 134.33
  Q 73.61 135.83 64.72 141.46
  A 1.86 1.86 0.0 0 1 62.77 141.48
  Q 52.55 135.30 38.02 134.08
  Q 27.61 133.20 15.34 136.69
  Q 10.76 138.00 6.96 140.22
  Q 6.20 140.67 6.21 141.54
  L 6.25 148.22
  Q 6.26 149.08 7.04 148.73
  Q 35.33 135.79 63.17 150.12
  A 1.51 1.49 42.5 0 0 64.65 150.06
  Q 68.36 147.75 72.62 146.30
  Q 97.14 137.91 119.77 148.56
  Q 121.04 149.16 121.04 147.76
  L 121.06 141.83
  Q 121.06 140.39 119.76 139.77
  Q 104.08 132.33 86.70 134.33
  Z"
/>
<path fill="#a3e486" d="
  M 317.73 120.53
  Q 318.65 117.88 318.90 114.29
  Q 319.48 105.97 319.84 97.87
  C 320.15 91.01 328.94 88.79 329.78 97.08
  Q 330.98 108.87 328.40 122.99
  C 327.61 127.33 324.61 134.78 319.74 136.34
  Q 312.99 138.50 306.23 136.25
  C 299.12 133.88 297.27 122.86 296.53 116.12
  Q 295.33 105.09 296.21 96.73
  C 296.80 91.13 303.34 89.54 305.78 95.04
  Q 306.40 96.43 306.47 98.14
  Q 306.93 110.37 308.05 119.77
  C 308.68 125.06 315.96 125.62 317.73 120.53
  Z"
/>
<path fill="#a3e486" d="
  M 352.97 101.25
  Q 355.43 95.32 361.30 92.94
  C 365.45 91.26 370.00 92.38 374.20 93.38
  C 377.68 94.21 379.37 96.06 381.65 98.46
  Q 383.11 100.01 384.08 101.71
  Q 390.94 113.73 386.44 126.86
  Q 383.92 134.21 377.80 138.42
  Q 375.63 139.91 373.03 140.15
  C 366.38 140.77 357.17 139.33 354.09 133.06
  C 352.79 130.41 351.15 127.88 350.36 125.01
  C 348.00 116.42 349.60 109.38 352.97 101.25
  Z
  M 367.4746 128.5631
  A 9.70 6.35 95.0 0 0 374.6458 119.4534
  A 9.70 6.35 95.0 0 0 369.1654 109.2369
  A 9.70 6.35 95.0 0 0 361.9942 118.3466
  A 9.70 6.35 95.0 0 0 367.4746 128.5631
  Z"
/>
<path fill="#a3e486" d="
  M 234.13 124.86
  Q 233.95 129.46 233.96 134.34
  C 233.96 138.26 232.50 142.50 227.89 142.25
  Q 221.51 141.89 222.20 134.57
  Q 223.66 119.06 223.31 99.65
  Q 223.24 96.30 225.26 93.84
  C 227.59 90.99 231.60 92.25 233.05 95.15
  Q 237.04 103.15 241.67 113.57
  Q 243.04 116.67 243.11 113.28
  Q 243.20 108.36 242.86 103.08
  C 242.71 100.78 242.69 97.32 244.30 95.50
  C 247.37 92.01 253.68 92.15 253.80 98.00
  Q 253.99 107.54 254.06 119.08
  C 254.09 123.72 254.71 128.14 254.90 132.71
  Q 255.10 137.28 252.93 140.52
  C 251.56 142.57 246.91 141.94 245.35 140.45
  Q 242.72 137.97 241.01 134.77
  Q 238.06 129.27 235.28 124.57
  Q 234.22 122.76 234.13 124.86
  Z"
/>
<path fill="#a3e486" d="
  M 272.11 107.60
  C 269.65 110.19 266.82 114.30 267.53 118.03
  C 268.46 123.00 273.45 130.06 279.46 128.61
  Q 284.15 127.47 289.37 125.13
  C 292.72 123.62 294.77 125.64 295.01 128.78
  Q 295.47 134.88 289.83 137.08
  Q 285.08 138.92 278.82 139.56
  C 270.26 140.44 262.75 135.73 258.15 128.76
  C 255.12 124.18 254.98 117.14 256.11 111.87
  Q 257.16 106.95 258.64 103.50
  C 261.53 96.77 271.06 93.60 278.13 93.21
  C 283.71 92.91 290.18 94.62 293.20 99.45
  Q 294.27 101.17 294.22 103.14
  C 294.10 108.06 289.14 109.10 285.43 107.41
  C 280.90 105.34 276.23 103.24 272.11 107.60
  Z"
/>
<rect fill="#a3e486" x="201.18" y="96.39" width="14.88" height="45.24" rx="6.13"/>
</svg>
