<?xml version="1.0" encoding="UTF-8" standalone="no"?>
<!DOCTYPE svg PUBLIC "-//W3C//DTD SVG 1.1//EN" "http://www.w3.org/Graphics/SVG/1.1/DTD/svg11.dtd">
<svg xmlns="http://www.w3.org/2000/svg" version="1.1" viewBox="0.00 0.00 134.00 166.00">
<path fill="#ff718c" d="
  M 22.27 28.26
  A 1.23 1.22 76.4 0 0 23.13 26.84
  C 22.42 23.34 21.88 17.75 23.33 14.21
  A 1.97 1.93 -5.3 0 1 24.13 13.27
  Q 26.95 11.50 29.17 9.14
  C 29.94 8.32 31.27 7.60 32.37 7.36
  Q 41.09 5.42 49.13 9.19
  C 57.06 12.91 54.97 20.02 54.18 26.92
  Q 54.11 27.51 54.52 27.93
  C 55.34 28.77 56.20 29.31 56.29 30.60
  Q 56.64 35.36 54.05 38.84
  Q 52.19 41.34 51.01 44.46
  C 49.14 49.39 43.75 53.06 38.45 53.16
  C 32.62 53.27 27.37 48.41 25.43 43.10
  Q 24.45 40.41 22.51 38.24
  C 20.79 36.32 18.51 29.36 22.27 28.26
  Z"
/>
<path fill="#ff718c" d="
  M 103.54 49.10
  Q 96.80 53.61 89.76 49.00
  A 1.98 1.97 48.7 0 0 87.81 48.87
  C 81.69 51.82 74.36 53.09 68.34 49.50
  A 0.70 0.70 0.0 0 1 68.22 48.39
  Q 69.72 47.01 71.38 45.67
  C 78.61 39.83 78.55 29.59 79.52 21.26
  C 79.95 17.55 81.54 14.03 84.87 12.02
  Q 97.20 4.59 109.22 12.53
  Q 112.72 14.85 113.38 19.15
  Q 114.20 24.46 114.73 29.94
  Q 115.88 41.79 124.93 48.12
  A 0.82 0.82 0.0 0 1 124.85 49.51
  C 119.46 52.37 112.07 51.24 106.41 48.83
  A 3.05 3.02 -50.1 0 0 103.54 49.10
  Z"
/>
<path fill="#ff718c" d="
  M 108.65 116.14
  Q 104.87 118.24 109.15 117.63
  Q 112.62 117.13 116.58 117.20
  C 118.68 117.24 120.82 118.79 119.65 121.03
  A 2.61 2.61 0.0 0 1 117.49 122.41
  Q 113.74 122.61 109.78 122.89
  Q 93.18 124.09 79.68 132.70
  C 77.43 134.13 75.46 136.20 73.45 137.93
  Q 71.37 139.71 73.97 138.84
  Q 91.85 132.81 111.98 137.32
  C 117.08 138.46 121.75 140.81 126.24 143.31
  Q 127.92 144.24 127.93 146.21
  Q 127.97 153.35 127.80 159.94
  A 2.51 2.51 0.0 0 1 124.11 162.09
  C 120.34 160.07 116.79 158.10 112.55 157.01
  Q 103.74 154.75 96.50 154.66
  Q 80.15 154.46 66.82 162.01
  A 2.90 2.87 45.6 0 1 63.91 161.97
  C 50.08 153.71 32.67 152.86 17.18 157.41
  C 13.33 158.55 9.95 160.41 6.42 162.26
  A 1.94 1.93 -43.6 0 1 4.53 162.22
  Q 3.17 161.42 3.13 159.93
  Q 2.92 152.74 3.08 145.59
  A 2.19 2.18 74.4 0 1 4.09 143.78
  Q 11.14 139.29 18.64 137.45
  Q 36.00 133.20 54.10 137.85
  Q 55.79 138.28 57.45 139.04
  Q 58.97 139.74 57.83 138.51
  C 47.06 126.88 29.81 122.52 13.94 122.51
  A 2.99 2.99 0.0 0 1 11.00 120.08
  Q 10.91 119.61 11.09 119.12
  Q 11.70 117.40 13.53 117.33
  Q 19.80 117.12 26.35 118.14
  Q 27.79 118.37 29.21 118.50
  Q 30.40 118.61 29.41 117.96
  C 27.49 116.69 25.28 115.94 23.47 114.43
  C 16.02 108.21 11.48 100.94 7.39 92.46
  C 4.16 85.75 2.34 75.46 5.60 68.84
  C 8.05 63.86 13.75 59.05 19.73 58.89
  Q 21.61 58.85 23.25 60.11
  C 33.53 68.01 44.28 67.31 54.47 59.83
  C 59.23 56.34 65.07 63.60 69.62 61.49
  C 72.73 60.04 77.79 57.66 80.90 60.01
  Q 93.68 69.69 107.38 63.01
  C 109.57 61.94 111.37 60.39 113.51 59.34
  C 115.63 58.30 118.07 59.31 120.10 60.11
  C 128.68 63.54 132.45 71.33 131.05 80.40
  C 129.40 91.07 123.89 99.71 117.23 108.43
  Q 113.33 113.54 108.65 116.14
  Z
  M 78.03 88.20
  A 1.33 1.33 0.0 0 1 77.56 86.72
  C 79.08 82.07 79.21 75.90 74.03 73.64
  C 67.09 70.62 58.62 70.34 53.55 76.94
  C 51.73 79.29 52.25 83.64 52.42 86.48
  Q 52.47 87.30 52.04 88.03
  C 50.45 90.69 49.66 93.73 51.85 96.39
  Q 53.68 98.61 54.66 101.26
  C 58.77 112.42 73.15 110.60 76.25 99.72
  C 76.91 97.41 78.90 96.47 79.61 94.21
  Q 80.85 90.28 78.03 88.20
  Z
  M 61.41 114.55
  C 57.20 113.88 54.31 111.78 51.11 109.23
  Q 50.60 108.82 49.96 108.89
  C 44.47 109.46 40.94 115.41 40.20 120.58
  Q 40.08 121.39 40.85 121.66
  C 46.17 123.54 51.63 126.12 55.98 129.87
  Q 60.75 133.98 64.67 138.46
  A 1.14 1.14 0.0 0 0 66.42 138.43
  Q 75.91 126.65 89.33 121.97
  A 1.05 1.05 0.0 0 0 90.02 120.76
  C 88.95 115.71 87.12 110.83 81.70 109.22
  C 80.30 108.80 78.72 109.60 77.66 110.47
  Q 70.93 116.06 61.41 114.55
  Z
  M 63.93 148.03
  C 46.52 137.89 26.11 137.47 8.57 147.17
  Q 8.46 147.23 8.45 147.36
  Q 8.24 151.78 8.41 155.69
  A 0.09 0.08 -14.6 0 0 8.53 155.76
  C 26.25 146.86 46.86 147.21 64.27 156.67
  Q 65.32 157.24 66.38 156.71
  C 71.23 154.32 76.54 151.97 81.82 150.84
  Q 103.19 146.26 121.66 155.41
  Q 122.67 155.91 122.65 154.78
  L 122.58 148.44
  Q 122.57 147.30 121.57 146.74
  C 106.78 138.42 87.58 137.95 72.29 145.33
  Q 69.30 146.78 66.49 148.13
  A 2.74 2.72 -42.6 0 1 63.93 148.03
  Z"
/>
</svg>
