<?xml version="1.0" encoding="UTF-8" standalone="no"?>
<!DOCTYPE svg PUBLIC "-//W3C//DTD SVG 1.1//EN" "http://www.w3.org/Graphics/SVG/1.1/DTD/svg11.dtd">
<svg xmlns="http://www.w3.org/2000/svg" version="1.1" viewBox="0.00 0.00 400.00 166.00">
<path fill="#ff708c" d="
  M 52.71 24.80
  Q 53.49 24.99 54.07 25.53
  Q 54.58 25.99 54.63 26.68
  C 54.82 29.24 54.60 33.89 52.22 35.39
  C 50.52 36.45 49.95 38.46 49.25 40.21
  C 47.29 45.13 43.13 49.24 37.67 49.88
  C 32.26 50.51 24.73 45.42 23.61 39.97
  C 23.22 38.08 22.70 36.25 20.89 35.22
  A 2.63 2.60 2.8 0 1 19.80 34.03
  Q 18.32 30.76 18.79 26.30
  Q 18.86 25.66 19.46 25.41
  L 20.71 24.89
  A 1.33 1.32 -16.9 0 0 21.50 23.42
  C 20.95 20.55 20.02 12.77 22.13 10.70
  Q 24.68 8.20 27.13 5.61
  Q 28.24 4.43 29.73 4.07
  C 37.63 2.16 50.19 3.38 52.66 12.70
  C 53.65 16.40 52.52 19.99 51.93 23.65
  Q 51.78 24.58 52.71 24.80
  Z"
/>
<path fill="#ff708c" d="
  M 86.02 45.43
  C 80.59 48.32 71.96 49.81 66.45 46.10
  A 0.97 0.97 0.0 0 1 66.44 44.50
  C 71.82 40.73 76.28 34.80 76.83 28.02
  Q 77.21 23.25 77.74 18.39
  C 78.12 14.95 79.68 11.89 82.29 9.62
  Q 89.24 3.56 98.98 5.48
  Q 110.95 7.85 111.95 19.95
  Q 112.25 23.51 112.54 27.08
  C 113.15 34.42 117.17 40.25 123.18 44.56
  A 0.98 0.98 0.0 0 1 122.97 46.26
  C 116.59 48.80 110.27 47.95 103.97 45.08
  Q 103.27 44.76 102.63 45.20
  C 97.76 48.56 92.87 48.96 87.53 45.49
  Q 86.80 45.01 86.02 45.43
  Z"
/>
<path fill="#ff708c" d="
  M 211.02 89.84
  Q 206.07 90.13 200.29 89.70
  Q 196.02 89.39 195.73 85.05
  Q 195.18 76.66 195.11 69.86
  Q 195.08 67.09 194.23 69.72
  Q 192.02 76.48 186.99 82.36
  C 181.14 89.20 169.24 93.93 160.62 93.23
  Q 159.82 93.17 159.76 93.96
  Q 158.97 104.39 160.17 114.45
  Q 160.56 117.77 161.98 120.99
  C 162.83 122.94 166.92 129.68 169.75 126.33
  Q 172.99 122.47 176.00 118.83
  Q 177.91 116.53 178.88 113.94
  Q 181.09 108.12 184.49 101.78
  C 186.64 97.75 191.03 94.82 195.09 98.66
  Q 199.56 102.90 197.54 108.78
  Q 194.98 116.25 192.12 123.20
  Q 191.15 125.57 190.47 127.88
  C 188.89 133.26 186.11 138.07 183.84 143.13
  C 179.71 152.35 163.30 146.15 157.28 142.56
  Q 154.05 140.64 151.48 138.46
  Q 147.33 134.95 143.65 128.13
  Q 139.18 119.85 139.15 110.89
  Q 139.03 74.78 139.14 35.75
  C 139.14 34.82 139.95 33.58 140.65 32.97
  C 148.16 26.37 156.70 24.55 166.37 25.54
  Q 174.66 26.38 181.54 31.32
  Q 186.36 34.77 189.11 38.45
  Q 192.56 43.06 194.86 50.66
  Q 195.13 51.53 195.68 50.81
  C 197.15 48.90 199.61 49.78 201.70 49.50
  C 204.80 49.08 213.88 47.51 215.36 51.39
  C 216.49 54.35 217.22 59.76 212.47 60.16
  Q 209.07 60.44 205.23 60.84
  Q 204.66 60.90 204.71 61.48
  L 205.03 64.99
  Q 205.07 65.48 205.56 65.45
  C 209.65 65.20 215.71 64.21 215.59 70.35
  Q 215.55 73.07 213.16 73.71
  Q 209.48 74.69 205.11 74.44
  Q 204.44 74.40 204.53 75.06
  L 205.00 78.48
  Q 205.09 79.12 205.74 79.10
  C 208.95 78.97 214.97 77.79 216.61 81.53
  Q 218.36 85.52 215.30 88.36
  Q 214.59 89.03 215.54 88.79
  C 216.86 88.46 218.13 87.58 219.59 87.83
  Q 222.48 88.33 222.73 91.14
  C 223.07 94.93 215.22 98.48 212.47 99.06
  C 210.06 99.57 206.54 98.13 207.68 95.08
  Q 208.58 92.67 211.35 90.86
  Q 213.12 89.71 211.02 89.84
  Z
  M 158.33 47.20
  L 159.70 72.81
  A 0.89 0.88 1.5 0 0 160.49 73.64
  Q 167.78 74.37 173.01 71.27
  Q 173.78 70.81 174.15 70.04
  Q 177.41 63.28 174.20 57.04
  Q 171.48 51.75 168.28 49.60
  Q 164.72 47.21 158.49 47.04
  A 0.15 0.15 0.0 0 0 158.33 47.20
  Z"
/>
<path fill="#ff708c" d="
  M 254.98 72.72
  C 254.94 70.51 254.48 68.52 254.18 66.40
  Q 253.89 64.32 251.77 64.27
  C 247.23 64.17 242.30 63.84 240.45 58.91
  Q 239.91 57.49 240.51 56.06
  C 242.20 51.99 246.84 50.59 251.10 51.03
  Q 255.54 51.48 259.80 54.84
  C 268.33 61.58 266.22 73.64 263.94 82.56
  Q 263.63 83.79 262.86 84.93
  A 1.10 1.10 0.0 0 0 263.00 86.32
  C 264.50 87.83 270.53 91.16 266.91 93.81
  Q 264.14 95.85 260.95 97.46
  C 257.94 98.98 255.28 95.95 254.19 93.54
  Q 253.85 92.79 253.07 93.05
  C 244.52 95.91 236.82 93.78 230.89 87.40
  Q 229.49 85.89 227.88 84.43
  C 222.73 79.73 220.49 72.16 220.08 64.55
  Q 219.70 57.62 221.61 53.08
  C 224.75 45.57 230.33 37.74 238.61 35.56
  C 243.35 34.32 250.12 33.57 254.47 36.09
  C 259.43 38.95 254.63 47.49 250.40 46.66
  C 242.60 45.15 238.91 50.46 234.78 55.93
  Q 232.99 58.31 232.69 61.02
  C 232.11 66.27 232.36 74.37 236.71 77.54
  Q 240.58 80.37 244.37 81.84
  Q 246.95 82.84 245.48 80.50
  Q 244.65 79.16 243.61 78.24
  C 241.42 76.29 240.91 73.08 242.72 70.76
  C 245.65 67.02 252.05 68.64 253.91 72.95
  Q 255.03 75.56 254.98 72.72
  Z"
/>
<path fill="#ff708c" d="
  M 360.66 67.48
  Q 362.16 54.87 371.09 48.23
  C 375.08 45.26 382.93 46.86 387.04 48.46
  C 391.03 50.00 393.89 54.13 396.42 57.34
  Q 397.63 58.87 398.23 60.91
  Q 401.24 71.11 398.01 82.41
  C 396.87 86.43 393.32 89.96 390.38 92.57
  C 386.29 96.22 379.49 95.72 374.24 94.31
  C 365.90 92.06 361.38 82.68 360.76 74.76
  Q 360.75 74.56 360.55 74.56
  L 360.30 74.56
  Q 360.28 74.56 360.27 74.58
  Q 359.97 79.39 360.69 85.00
  C 361.01 87.49 360.87 90.86 358.94 92.77
  Q 355.87 95.80 351.43 94.13
  C 349.00 93.21 347.63 90.23 346.38 87.91
  Q 343.70 82.91 341.04 78.16
  Q 340.02 76.33 340.02 78.43
  Q 340.02 84.02 339.67 89.53
  Q 339.52 91.89 338.02 93.61
  A 0.48 0.48 0.0 0 0 338.27 94.39
  C 344.59 95.98 342.82 101.54 342.98 106.24
  Q 343.07 109.01 342.83 111.86
  Q 342.08 120.77 343.33 130.35
  Q 343.73 133.37 347.06 132.95
  Q 352.35 132.27 353.13 137.73
  Q 353.74 142.02 349.30 143.08
  Q 345.88 143.91 340.58 144.06
  C 335.20 144.22 331.53 138.34 331.52 133.75
  C 331.50 126.17 331.49 118.71 331.31 111.15
  Q 331.18 105.52 331.95 99.45
  C 332.09 98.42 332.43 97.50 332.90 96.58
  Q 333.19 96.02 332.56 95.94
  C 329.92 95.60 327.63 93.53 327.87 90.72
  Q 329.44 72.65 329.14 54.17
  Q 329.10 51.15 330.35 48.51
  C 331.95 45.12 336.79 45.27 338.45 48.56
  Q 343.76 59.08 348.16 68.45
  Q 348.97 70.19 348.97 68.27
  Q 348.97 62.00 348.54 56.57
  Q 348.26 53.14 349.72 49.90
  C 351.70 45.49 358.86 45.29 359.32 51.11
  Q 359.96 59.24 360.10 67.61
  Q 360.10 67.67 360.16 67.68
  L 360.43 67.68
  Q 360.64 67.69 360.66 67.48
  Z
  M 380.74 63.77
  C 375.37 63.12 372.47 73.37 373.64 77.05
  C 374.88 80.94 377.88 84.46 382.33 82.35
  C 385.74 80.73 385.70 71.83 385.36 68.90
  Q 384.82 64.27 380.74 63.77
  Z"
/>
<path fill="#ff708c" d="
  M 279.44 79.78
  C 281.19 83.38 286.69 82.53 288.52 79.70
  Q 290.16 77.15 290.50 73.84
  Q 291.51 63.75 291.77 54.71
  C 291.83 52.40 293.32 47.55 296.51 48.04
  Q 299.97 48.57 300.72 52.08
  Q 301.92 57.74 301.49 63.56
  C 300.77 73.36 300.90 83.18 294.05 91.12
  C 290.51 95.22 280.77 94.97 276.35 92.82
  C 272.01 90.70 268.87 83.20 268.24 78.98
  Q 266.58 67.73 266.58 59.70
  Q 266.58 56.05 267.31 52.16
  C 267.81 49.45 270.96 46.68 273.66 48.67
  C 275.61 50.11 276.51 52.16 276.55 54.54
  Q 276.71 64.34 277.52 73.32
  Q 277.80 76.41 279.44 79.78
  Z"
/>
<path fill="#ff708c" d="
  M 315.55 80.54
  C 320.78 80.20 326.85 79.76 325.92 87.10
  C 325.18 92.91 312.97 91.43 309.17 91.21
  Q 305.23 90.99 304.66 87.05
  Q 303.35 77.99 303.73 69.20
  Q 303.86 66.13 303.67 63.23
  C 303.43 59.51 302.65 55.93 305.23 52.72
  Q 306.38 51.30 308.26 51.13
  Q 314.79 50.55 319.52 50.43
  Q 323.72 50.32 324.88 55.25
  C 326.29 61.28 320.30 63.06 315.73 63.21
  A 0.96 0.96 0.0 0 0 314.81 64.08
  L 314.60 66.22
  Q 314.51 67.17 315.45 66.99
  Q 322.44 65.63 323.90 69.92
  Q 325.11 73.49 322.09 76.05
  C 320.50 77.39 317.79 77.27 315.78 77.54
  A 1.09 1.08 84.8 0 0 314.84 78.67
  L 314.90 79.96
  Q 314.93 80.58 315.55 80.54
  Z"
/>
<path fill="#ff708c" d="
  M 55.99 136.16
  Q 57.46 136.65 56.39 135.53
  Q 48.43 127.17 37.67 123.30
  Q 25.76 119.02 11.05 119.37
  A 1.99 1.99 0.0 0 1 9.14 118.07
  Q 8.79 117.11 9.04 116.27
  Q 9.62 114.36 11.60 114.33
  Q 18.79 114.19 26.98 115.60
  Q 28.44 115.85 27.20 115.04
  C 19.76 110.19 13.70 103.41 8.77 95.94
  Q 3.03 87.23 2.32 75.65
  Q 2.10 72.07 2.79 68.41
  C 4.05 61.76 9.09 57.29 15.72 56.17
  C 18.10 55.76 20.37 55.86 22.35 57.34
  C 31.14 63.90 41.51 64.01 50.37 57.80
  C 54.89 54.63 59.63 56.30 64.23 58.12
  C 65.34 58.56 66.69 58.42 67.78 57.95
  C 71.46 56.34 76.79 54.80 80.38 57.40
  C 89.24 63.79 99.92 64.10 108.73 57.59
  Q 111.99 55.18 116.14 56.21
  Q 128.17 59.20 129.02 70.76
  C 129.58 78.53 127.72 85.97 123.83 92.93
  Q 116.90 105.36 105.37 114.10
  Q 104.04 115.11 105.70 114.87
  Q 110.88 114.14 116.04 114.42
  Q 118.24 114.54 118.26 116.75
  L 118.26 117.16
  A 2.13 2.12 -0.8 0 1 116.17 119.30
  Q 111.59 119.38 106.91 119.70
  C 93.59 120.61 79.86 125.69 70.85 135.48
  Q 69.60 136.84 71.33 136.18
  Q 89.86 129.05 108.61 133.83
  C 114.10 135.23 119.75 137.80 125.18 140.36
  A 1.70 1.67 12.9 0 1 126.15 141.88
  Q 126.16 148.83 126.17 156.57
  C 126.18 159.39 124.00 160.05 121.79 158.81
  Q 98.46 145.81 73.76 154.83
  C 70.48 156.02 67.37 157.70 64.35 159.40
  A 1.28 1.26 -44.6 0 1 63.12 159.40
  C 43.94 148.66 24.11 148.38 4.87 159.10
  A 2.25 2.25 0.0 0 1 1.53 157.16
  Q 1.47 150.25 1.49 142.20
  Q 1.49 140.98 2.47 140.43
  C 17.00 132.16 34.73 129.42 50.63 134.42
  Q 53.39 135.29 55.99 136.16
  Z
  M 75.92 83.92
  Q 76.20 82.00 76.59 80.08
  C 78.73 69.69 66.13 67.26 59.00 68.62
  Q 56.67 69.07 55.06 70.66
  C 52.98 72.71 50.34 73.74 50.22 77.17
  Q 50.12 80.24 50.22 83.39
  A 1.87 1.85 59.6 0 1 49.96 84.41
  Q 46.78 89.63 49.91 93.69
  Q 51.17 95.33 52.05 97.02
  C 54.89 102.43 61.03 108.10 67.52 104.36
  Q 72.32 101.60 74.56 96.52
  Q 75.30 94.84 76.68 93.59
  C 78.07 92.34 78.08 90.36 78.26 88.62
  Q 78.54 85.89 76.44 84.89
  A 0.92 0.92 0.0 0 1 75.92 83.92
  Z
  M 77.37 106.02
  C 68.71 112.84 58.75 113.55 49.82 106.36
  Q 47.83 104.75 45.54 106.12
  Q 39.36 109.82 38.58 117.92
  A 0.90 0.89 -82.4 0 0 39.32 118.89
  C 43.36 119.58 46.71 121.60 50.16 123.69
  Q 58.05 128.46 63.56 136.08
  A 0.44 0.44 0.0 0 0 64.27 136.08
  C 65.21 134.79 65.80 133.32 66.89 132.14
  Q 75.77 122.49 87.51 118.95
  Q 88.18 118.75 87.98 118.09
  C 87.05 115.06 86.85 111.06 84.74 108.59
  Q 82.35 105.79 78.29 105.71
  Q 77.78 105.70 77.37 106.02
  Z
  M 6.44 152.34
  C 25.22 143.59 44.66 143.69 63.20 153.54
  Q 63.68 153.80 64.15 153.54
  Q 91.81 138.95 120.11 152.04
  Q 121.00 152.45 121.00 151.48
  L 121.00 144.91
  Q 121.00 143.77 119.99 143.26
  Q 110.19 138.37 98.13 137.38
  Q 87.37 136.49 75.00 140.08
  Q 69.69 141.63 65.04 144.64
  A 2.39 2.38 -46.6 0 1 62.56 144.71
  C 58.44 142.34 54.15 140.34 49.43 139.33
  Q 46.22 138.64 42.82 137.97
  C 34.19 136.25 25.02 137.49 16.14 139.80
  Q 11.51 141.00 6.55 143.67
  Q 6.21 143.85 6.21 144.24
  L 6.19 152.18
  A 0.18 0.18 0.0 0 0 6.44 152.34
  Z"
/>
<path fill="#ff708c" d="
  M 307.87 122.69
  C 308.24 127.43 314.16 129.04 316.95 125.36
  Q 318.26 123.62 318.59 119.92
  Q 319.48 109.65 319.81 100.97
  C 320.07 94.06 329.06 92.36 329.77 100.40
  Q 330.52 108.87 329.59 117.90
  C 328.87 124.89 328.11 130.42 323.97 136.46
  Q 322.37 138.80 319.92 139.60
  Q 313.01 141.86 306.04 139.51
  C 301.21 137.89 298.25 130.74 297.47 126.31
  Q 295.10 112.78 296.01 100.85
  C 296.44 95.24 302.45 92.21 305.56 98.01
  C 307.03 100.75 306.34 103.47 306.58 106.44
  Q 307.26 114.88 307.87 122.69
  Z"
/>
<path fill="#ff708c" d="
  M 234.91 127.23
  A 0.43 0.43 0.0 0 0 234.10 127.44
  Q 234.06 133.06 233.94 138.29
  C 233.88 140.76 232.95 144.32 230.23 145.19
  C 226.36 146.42 221.73 144.32 222.11 139.76
  Q 223.60 122.02 223.30 104.24
  Q 223.26 101.62 223.76 99.71
  C 225.08 94.68 231.08 94.08 233.37 98.99
  Q 238.14 109.19 241.82 117.15
  Q 243.08 119.89 243.07 116.87
  C 243.04 111.90 242.46 106.62 242.99 101.68
  Q 243.41 97.83 248.08 96.64
  C 251.07 95.88 253.65 97.64 253.77 100.85
  Q 253.87 103.36 253.87 105.71
  Q 253.89 119.89 254.81 136.69
  C 254.94 139.05 254.12 144.25 251.26 144.95
  C 249.20 145.46 246.53 145.03 244.94 143.41
  Q 242.30 140.76 240.77 137.82
  Q 237.88 132.29 234.91 127.23
  Z"
/>
<path fill="#ff708c" d="
  M 353.21 104.00
  C 355.54 98.65 360.90 94.97 366.91 95.47
  Q 372.25 95.92 376.25 97.43
  C 378.76 98.38 382.22 102.09 383.64 104.39
  Q 390.87 116.18 386.60 129.54
  Q 383.73 138.50 376.62 142.38
  Q 373.15 144.26 366.17 143.40
  C 361.37 142.80 356.01 140.53 353.76 136.08
  Q 352.71 134.01 351.72 131.89
  C 347.22 122.25 349.15 113.34 353.21 104.00
  Z
  M 367.4506 131.9245
  A 9.71 6.35 94.9 0 0 374.6068 122.7924
  A 9.71 6.35 94.9 0 0 369.1094 112.5755
  A 9.71 6.35 94.9 0 0 361.9532 121.7076
  A 9.71 6.35 94.9 0 0 367.4506 131.9245
  Z"
/>
<path fill="#ff708c" d="
  M 269.87 141.77
  Q 259.93 137.51 256.66 129.05
  C 254.27 122.86 255.58 116.02 257.57 109.41
  Q 258.75 105.48 260.92 103.36
  Q 264.14 100.22 267.74 98.86
  C 274.06 96.47 279.52 95.57 286.42 97.71
  C 290.16 98.87 294.27 102.20 294.24 106.51
  C 294.21 111.34 289.05 112.40 285.43 110.75
  C 281.77 109.09 276.67 106.73 273.05 110.00
  Q 269.87 112.86 268.02 117.07
  C 265.72 122.29 270.07 128.74 274.45 131.19
  C 278.48 133.45 285.41 130.26 289.23 128.41
  C 295.83 125.22 296.19 135.45 293.04 138.35
  C 288.99 142.08 280.32 143.02 275.19 142.94
  Q 272.53 142.91 269.87 141.77
  Z"
/>
<rect fill="#ff708c" x="201.15" y="99.71" width="14.90" height="45.20" rx="6.03"/>
</svg>
