<?xml version="1.0" encoding="UTF-8" standalone="no"?>
<!DOCTYPE svg PUBLIC "-//W3C//DTD SVG 1.1//EN" "http://www.w3.org/Graphics/SVG/1.1/DTD/svg11.dtd">
<svg xmlns="http://www.w3.org/2000/svg" version="1.1" viewBox="0.00 0.00 400.00 166.00">
<path fill="#ddc1fc" d="
  M 20.51 24.59
  C 19.99 20.62 18.58 13.70 21.96 10.64
  C 24.40 8.43 26.16 5.61 29.59 4.85
  C 39.45 2.67 53.05 5.72 51.86 18.66
  C 51.71 20.36 50.92 22.52 50.66 24.52
  Q 50.59 25.07 51.01 25.44
  Q 51.58 25.94 52.30 26.21
  A 1.71 1.69 -84.0 0 1 53.40 27.58
  Q 53.81 30.52 52.92 33.52
  C 52.15 36.12 49.61 36.92 48.68 39.64
  Q 46.92 44.79 42.99 48.06
  C 40.47 50.15 36.38 51.49 33.09 50.49
  C 27.81 48.89 23.20 45.02 22.19 39.53
  Q 21.82 37.53 20.18 36.35
  C 17.59 34.47 17.46 30.17 17.88 27.43
  A 1.22 1.21 79.6 0 1 18.48 26.56
  L 19.96 25.70
  A 1.11 1.11 0.0 0 0 20.51 24.59
  Z"
/>
<path fill="#ddc1fc" d="
  M 101.42 46.08
  Q 93.94 51.41 86.38 46.27
  Q 85.73 45.83 85.05 46.21
  C 79.81 49.13 71.29 50.57 65.70 47.23
  A 1.13 1.13 0.0 0 1 65.59 45.37
  C 69.86 42.03 73.25 38.37 74.97 33.27
  C 77.43 25.93 74.41 16.49 81.02 10.77
  Q 89.10 3.78 99.86 6.90
  Q 108.00 9.26 109.92 16.45
  C 111.37 21.92 110.70 28.44 112.62 33.76
  Q 114.96 40.23 121.49 45.09
  Q 122.02 45.48 122.27 46.09
  A 0.84 0.83 -21.8 0 1 121.79 47.19
  C 115.29 49.66 109.21 48.85 103.03 45.93
  A 1.59 1.59 0.0 0 0 101.42 46.08
  Z"
/>
<path fill="#ddc1fc" d="
  M 214.89 89.64
  C 216.79 88.95 218.96 88.21 220.64 89.86
  C 222.39 91.59 221.75 93.95 220.02 95.38
  Q 214.75 99.75 209.87 100.11
  Q 208.08 100.25 207.01 98.43
  C 205.57 95.99 207.90 93.77 209.73 92.39
  Q 212.17 90.56 209.12 90.75
  Q 204.54 91.03 199.53 90.65
  Q 195.17 90.33 194.81 86.24
  Q 194.09 78.29 194.26 70.15
  Q 194.27 69.60 193.71 69.60
  Q 193.36 69.60 193.25 69.95
  C 190.63 78.41 185.24 85.90 177.30 89.85
  Q 167.61 94.67 159.43 94.12
  Q 158.70 94.07 158.65 94.80
  Q 158.03 103.54 158.74 112.91
  C 159.15 118.37 160.90 124.19 165.18 127.65
  A 2.54 2.53 39.7 0 0 168.70 127.33
  Q 171.85 123.65 175.08 119.73
  Q 177.01 117.38 178.10 114.48
  Q 180.51 108.05 184.24 101.63
  C 186.05 98.51 189.87 96.72 193.15 99.01
  C 197.96 102.38 197.65 107.71 195.45 112.66
  C 194.12 115.64 193.36 118.75 192.04 121.74
  Q 190.45 125.33 189.40 128.75
  C 187.73 134.19 185.18 138.66 182.90 143.71
  C 178.39 153.71 161.41 146.75 155.07 142.83
  Q 149.53 139.40 146.11 134.64
  Q 140.63 127.01 139.02 119.32
  Q 137.97 114.32 138.02 104.82
  Q 138.18 70.29 138.05 37.75
  Q 138.04 35.12 140.34 33.29
  C 143.27 30.96 146.90 28.68 150.48 27.71
  C 161.62 24.70 174.27 26.25 182.66 34.09
  C 184.39 35.71 186.36 36.97 187.72 38.89
  Q 191.57 44.35 193.59 51.15
  Q 193.91 52.25 194.82 51.55
  C 195.43 51.08 195.89 50.75 196.70 50.70
  Q 201.85 50.40 207.09 49.98
  Q 209.83 49.77 212.01 50.38
  C 214.98 51.21 215.50 55.98 214.87 58.37
  C 214.39 60.18 212.56 61.11 210.78 61.17
  Q 207.47 61.26 204.41 61.70
  Q 203.50 61.83 203.59 62.75
  L 203.84 65.52
  Q 203.95 66.73 205.16 66.54
  C 209.43 65.87 215.61 65.78 214.27 72.36
  C 213.60 75.64 207.02 75.37 204.51 75.33
  Q 203.29 75.31 203.45 76.52
  L 203.79 79.03
  Q 203.95 80.21 205.13 80.14
  Q 207.97 79.99 211.10 79.91
  C 216.38 79.79 217.35 85.65 214.50 89.07
  Q 213.66 90.08 214.89 89.64
  Z
  M 157.25 48.44
  L 158.61 73.84
  A 0.76 0.75 -87.2 0 0 159.25 74.55
  Q 165.26 75.42 170.69 73.04
  Q 172.91 72.06 173.66 70.01
  Q 175.06 66.23 174.75 63.09
  C 174.29 58.33 170.12 51.41 165.53 49.56
  Q 161.89 48.10 157.81 47.88
  A 0.53 0.53 0.0 0 0 157.25 48.44
  Z"
/>
<path fill="#ddc1fc" d="
  M 254.01 74.24
  C 254.16 72.15 254.18 64.97 250.51 65.10
  C 246.07 65.25 241.42 64.62 239.51 59.96
  Q 238.88 58.44 239.50 57.02
  C 241.44 52.61 246.80 51.29 251.20 52.16
  Q 255.05 52.92 258.79 55.90
  C 267.44 62.78 265.17 77.34 261.88 86.01
  A 1.69 1.67 28.5 0 0 262.47 87.97
  C 264.53 89.46 269.10 92.16 265.51 94.94
  Q 262.65 97.16 259.41 98.48
  C 256.74 99.56 254.33 96.83 253.35 94.60
  A 1.18 1.17 69.1 0 0 251.92 93.95
  C 243.76 96.62 236.48 94.99 230.74 89.15
  Q 228.91 87.28 226.85 85.31
  C 219.89 78.62 218.23 67.38 219.44 58.21
  C 219.96 54.26 222.08 50.89 224.09 47.54
  Q 232.88 32.89 251.20 36.15
  C 259.04 37.54 254.62 48.50 248.96 47.55
  Q 241.93 46.36 237.22 52.25
  C 235.02 55.00 232.08 58.23 231.64 61.78
  C 231.00 66.88 231.14 75.75 236.16 78.96
  C 238.32 80.34 241.68 82.91 244.16 83.02
  Q 245.45 83.08 244.82 81.95
  Q 243.73 80.04 242.22 78.59
  C 239.49 75.99 240.42 71.58 243.87 70.26
  Q 247.92 68.71 251.30 71.80
  C 252.14 72.57 252.51 73.70 253.27 74.50
  Q 253.93 75.20 254.01 74.24
  Z"
/>
<path fill="#ddc1fc" d="
  M 359.10 76.83
  C 357.90 81.56 360.87 86.76 359.26 91.32
  Q 357.54 96.21 351.87 95.47
  Q 348.94 95.09 347.41 92.41
  Q 343.65 85.86 340.12 78.84
  Q 339.92 78.43 339.48 78.47
  A 0.69 0.68 88.2 0 0 338.84 79.16
  Q 338.84 84.13 338.67 89.76
  Q 338.59 92.27 337.23 94.31
  A 0.88 0.87 25.4 0 0 337.71 95.63
  C 340.76 96.56 341.93 98.22 341.98 101.49
  Q 342.07 107.81 341.80 112.77
  Q 341.45 118.99 341.60 122.21
  Q 341.83 127.07 342.35 131.70
  A 2.65 2.65 0.0 0 0 344.82 134.05
  L 348.89 134.29
  Q 349.47 134.33 349.90 134.72
  Q 351.04 135.78 351.55 137.25
  C 354.23 144.94 344.89 144.81 340.03 145.03
  C 334.29 145.29 330.75 139.73 330.58 134.56
  C 330.38 128.74 331.24 121.60 330.79 115.05
  C 330.62 112.55 330.29 110.15 330.49 107.64
  Q 330.90 102.42 331.71 97.51
  Q 331.81 96.96 331.26 96.81
  C 324.99 95.15 327.38 89.50 327.57 85.10
  Q 328.24 69.35 328.19 54.25
  Q 328.18 51.55 329.65 49.07
  C 331.47 46.02 335.87 46.53 337.40 49.54
  Q 342.37 59.27 346.88 69.17
  Q 347.65 70.84 348.08 69.05
  Q 348.26 68.33 348.16 67.03
  Q 347.63 60.36 347.78 54.34
  Q 347.85 51.60 349.58 49.57
  C 352.08 46.63 357.63 46.99 358.17 51.51
  Q 358.87 57.24 358.95 67.82
  A 0.62 0.61 -81.8 0 0 359.39 68.41
  L 359.70 68.51
  Q 359.93 68.58 359.95 68.33
  Q 360.56 60.44 365.30 53.81
  Q 367.69 50.46 371.41 48.45
  C 373.35 47.41 375.93 47.52 378.12 47.71
  Q 386.47 48.45 390.04 52.03
  C 393.36 55.36 396.70 59.09 397.74 63.93
  Q 400.08 74.80 396.42 84.67
  Q 395.33 87.60 391.16 91.86
  Q 386.37 96.75 379.82 96.27
  C 374.55 95.89 369.00 94.59 365.55 90.24
  Q 361.33 84.91 359.97 76.86
  Q 359.62 74.80 359.10 76.83
  Z
  M 372.36 75.00
  C 371.98 78.40 374.02 82.60 377.35 83.82
  C 380.35 84.92 383.13 82.79 383.78 79.80
  C 384.81 74.99 386.34 65.03 379.36 64.71
  C 374.69 64.50 372.75 71.39 372.36 75.00
  Z"
/>
<path fill="#ddc1fc" d="
  M 278.97 81.74
  A 2.19 2.13 82.4 0 0 280.18 82.69
  C 287.22 84.87 289.48 78.49 289.77 73.09
  Q 290.05 67.73 290.57 62.45
  C 291.01 58.12 289.91 54.30 292.63 50.44
  C 295.00 47.09 299.12 50.08 299.69 53.06
  C 301.20 60.86 300.04 68.53 299.35 76.35
  Q 298.51 85.94 292.59 92.43
  Q 290.83 94.36 286.87 94.87
  C 281.54 95.57 275.20 95.36 271.96 90.82
  Q 268.01 85.25 267.23 79.22
  Q 266.34 72.22 265.89 65.46
  C 265.65 61.76 265.04 53.09 267.78 50.46
  C 271.66 46.75 275.35 51.38 275.43 55.19
  Q 275.62 64.83 276.37 73.98
  C 276.60 76.78 277.53 79.34 278.97 81.74
  Z"
/>
<path fill="#ddc1fc" d="
  M 314.99 81.65
  C 319.66 81.11 325.47 80.82 324.77 87.73
  C 324.39 91.46 319.56 92.46 316.57 92.45
  Q 312.24 92.43 307.96 92.07
  Q 304.87 91.81 304.17 89.26
  C 302.05 81.51 302.80 72.70 302.94 64.52
  Q 302.97 62.51 302.63 60.18
  C 302.17 57.10 303.51 52.42 307.26 52.10
  Q 313.43 51.57 318.58 51.47
  Q 322.68 51.39 323.85 56.21
  C 325.29 62.14 319.71 63.65 315.11 63.96
  A 1.64 1.64 0.0 0 0 313.59 65.42
  L 313.48 66.48
  Q 313.30 68.20 315.00 67.90
  C 318.71 67.26 322.97 67.78 323.10 72.58
  Q 323.17 75.36 321.07 76.93
  C 319.39 78.18 316.67 77.88 314.64 78.37
  A 1.17 1.16 -7.2 0 0 313.75 79.51
  L 313.75 80.55
  Q 313.75 81.80 314.99 81.65
  Z"
/>
<path fill="#ddc1fc" d="
  M 69.81 137.28
  Q 70.52 137.35 71.21 137.09
  Q 87.30 130.82 103.50 134.01
  Q 113.34 135.95 124.14 141.58
  A 1.57 1.57 0.0 0 1 124.98 142.97
  Q 124.96 150.03 125.01 157.26
  C 125.03 159.76 123.45 161.22 121.03 159.88
  Q 92.35 143.99 63.39 160.10
  A 1.66 1.65 44.5 0 1 61.80 160.11
  Q 57.96 158.03 53.94 156.38
  C 37.27 149.50 19.49 150.88 3.85 159.95
  A 2.24 2.23 75.0 0 1 0.50 158.01
  L 0.47 143.01
  A 1.88 1.85 -14.3 0 1 1.46 141.37
  C 15.76 133.69 31.24 130.76 46.96 134.82
  C 49.47 135.47 51.81 136.70 54.28 137.29
  Q 56.79 137.89 55.01 136.02
  C 43.59 124.03 26.69 119.77 10.25 120.29
  A 2.01 2.00 -26.1 0 1 8.89 119.83
  Q 7.82 118.95 7.89 117.95
  Q 8.06 115.55 10.46 115.43
  Q 17.39 115.07 23.75 116.70
  Q 24.95 117.01 26.10 116.81
  A 0.44 0.44 0.0 0 0 26.27 116.00
  Q 15.99 109.32 8.22 97.62
  Q 0.73 86.37 1.42 72.56
  Q 2.06 59.70 14.89 57.17
  C 17.50 56.66 19.67 57.17 21.85 58.81
  C 29.36 64.46 38.97 64.88 47.02 60.30
  Q 48.71 59.33 50.29 58.28
  C 54.40 55.54 59.83 58.03 63.95 59.33
  A 3.00 3.00 0.0 0 0 66.03 59.22
  C 68.97 57.96 73.79 56.30 76.98 57.38
  C 79.17 58.11 80.98 59.75 83.06 60.76
  Q 96.30 67.19 108.40 58.12
  Q 110.18 56.79 112.94 57.01
  C 122.38 57.77 128.12 64.33 128.06 73.89
  C 128.00 82.73 125.24 90.48 120.35 97.80
  Q 113.30 108.33 104.14 115.07
  A 0.60 0.59 -34.4 0 0 103.99 115.87
  Q 104.29 116.34 104.84 116.23
  Q 109.87 115.20 114.33 115.39
  Q 116.66 115.48 117.08 117.77
  Q 117.29 118.92 115.83 119.91
  A 2.09 2.08 28.5 0 1 114.64 120.26
  Q 102.29 120.13 92.55 122.92
  Q 78.82 126.86 69.51 136.45
  A 0.49 0.49 0.0 0 0 69.81 137.28
  Z
  M 75.00 84.71
  Q 75.31 82.76 75.67 80.77
  C 77.45 70.96 66.21 68.47 58.83 69.32
  C 55.25 69.74 53.67 71.93 51.12 73.99
  C 48.45 76.15 48.83 80.60 49.14 83.59
  C 49.32 85.40 47.75 86.67 47.46 88.47
  C 46.70 93.14 49.01 94.48 50.86 97.96
  C 53.83 103.54 60.11 109.36 66.82 105.16
  C 69.77 103.32 72.12 100.69 73.55 97.53
  Q 74.24 95.99 75.49 94.70
  C 77.22 92.91 78.70 87.46 75.55 85.81
  A 1.07 1.05 18.9 0 1 75.00 84.71
  Z
  M 63.57 136.76
  C 67.06 129.58 78.78 121.86 85.94 120.26
  A 1.23 1.22 -14.7 0 0 86.85 118.71
  C 85.35 113.68 85.83 108.90 79.70 106.92
  Q 77.38 106.17 75.41 107.58
  Q 61.78 117.33 48.66 107.23
  C 47.37 106.24 45.76 106.16 44.38 107.03
  Q 38.29 110.87 37.45 118.42
  Q 37.29 119.87 38.73 120.15
  Q 41.57 120.69 44.00 121.93
  C 51.29 125.67 57.29 130.17 62.17 136.88
  A 0.82 0.82 0.0 0 0 63.57 136.76
  Z
  M 50.93 149.85
  Q 56.64 151.68 61.76 154.50
  Q 62.69 155.01 63.60 154.45
  Q 66.95 152.40 70.80 150.98
  Q 95.63 141.86 118.62 153.05
  Q 119.95 153.70 119.97 152.23
  L 120.05 146.19
  Q 120.08 144.63 118.67 143.97
  Q 101.99 136.13 84.33 138.65
  C 77.04 139.68 70.06 141.57 63.80 145.61
  A 2.10 2.09 43.8 0 1 61.61 145.65
  Q 50.96 139.35 36.48 138.14
  Q 26.64 137.32 13.46 141.12
  Q 9.65 142.21 5.93 144.36
  Q 4.93 144.94 4.94 146.10
  L 4.99 152.33
  A 0.83 0.82 -12.6 0 0 6.16 153.07
  Q 28.66 142.69 50.93 149.85
  Z"
/>
<path fill="#ddc1fc" d="
  M 305.60 140.65
  C 300.42 139.16 297.29 131.96 296.47 127.16
  Q 294.25 114.10 295.09 101.54
  C 295.25 99.06 296.80 96.38 299.45 96.03
  C 302.71 95.60 305.18 98.82 305.31 101.74
  Q 305.73 111.43 306.71 122.57
  C 306.85 124.22 307.02 125.94 308.44 127.04
  C 312.89 130.49 316.90 127.21 317.41 122.52
  Q 318.50 112.57 318.79 102.29
  C 318.91 98.12 324.02 92.86 327.47 98.11
  Q 328.66 99.92 328.78 102.35
  Q 329.48 116.55 326.99 128.44
  Q 325.91 133.63 322.10 138.33
  Q 320.69 140.06 317.76 140.83
  Q 311.71 142.41 305.60 140.65
  Z"
/>
<path fill="#ddc1fc" d="
  M 233.78 128.18
  Q 232.87 127.66 232.86 128.71
  C 232.85 133.05 233.37 138.56 232.13 142.82
  C 230.37 148.89 220.66 147.05 221.11 140.64
  Q 222.07 126.99 222.43 113.45
  C 222.55 108.66 220.55 100.15 225.37 97.18
  C 227.73 95.74 230.93 97.20 232.12 99.66
  Q 236.64 109.02 240.65 118.20
  Q 241.63 120.42 242.10 118.04
  Q 242.26 117.20 242.21 116.26
  Q 241.90 110.93 241.78 104.99
  Q 241.64 97.71 248.65 97.78
  Q 252.64 97.82 252.72 102.29
  Q 252.93 113.27 252.84 123.01
  C 252.80 127.39 253.28 131.65 253.76 135.97
  Q 254.22 140.08 252.41 143.87
  C 250.99 146.85 246.62 146.51 244.54 144.81
  Q 242.06 142.77 240.19 139.44
  Q 237.47 134.64 234.77 129.23
  Q 234.43 128.55 233.78 128.18
  Z"
/>
<path fill="#ddc1fc" d="
  M 352.20 105.11
  Q 355.07 98.52 361.78 96.82
  C 365.85 95.79 371.91 97.15 375.97 98.87
  C 378.99 100.14 382.10 104.33 383.72 107.40
  Q 390.38 120.02 384.11 134.01
  Q 381.51 139.83 375.68 143.26
  Q 373.54 144.52 370.60 144.54
  C 365.76 144.57 361.56 144.20 357.26 141.67
  Q 354.76 140.20 353.11 137.16
  Q 350.81 132.91 350.05 131.04
  C 346.34 121.93 348.48 113.62 352.20 105.11
  Z
  M 366.4981 132.9486
  A 9.75 6.42 94.6 0 0 373.6793 123.7449
  A 9.75 6.42 94.6 0 0 368.0619 113.5114
  A 9.75 6.42 94.6 0 0 360.8807 122.7151
  A 9.75 6.42 94.6 0 0 366.4981 132.9486
  Z"
/>
<path fill="#ddc1fc" d="
  M 277.35 143.82
  C 268.36 144.63 259.36 138.74 256.00 130.58
  Q 254.84 127.77 254.65 123.44
  C 254.43 118.36 255.72 112.55 257.48 108.07
  Q 259.21 103.68 264.58 100.89
  Q 274.04 95.97 284.12 98.40
  Q 289.83 99.77 292.29 104.16
  C 293.18 105.75 293.24 108.62 292.26 110.15
  C 289.38 114.70 283.56 111.13 280.09 109.87
  Q 274.52 107.85 270.70 112.10
  Q 268.05 115.04 266.77 118.38
  C 264.71 123.76 269.52 130.57 274.07 132.53
  C 277.78 134.13 284.16 131.36 287.66 129.70
  C 294.13 126.62 295.24 134.45 292.87 138.15
  C 290.19 142.32 282.12 143.39 277.35 143.82
  Z"
/>
<path fill="#ddc1fc" d="
  M 199.95 125.27
  Q 200.17 115.75 200.35 106.20
  Q 200.41 102.38 203.83 101.26
  Q 208.83 99.61 212.81 102.37
  Q 214.27 103.39 214.43 104.95
  C 214.87 109.52 215.39 114.12 215.14 118.68
  Q 214.58 129.00 214.77 140.43
  Q 214.84 144.99 210.32 145.78
  C 205.47 146.63 200.79 145.13 200.36 139.35
  Q 199.80 131.72 199.95 125.27
  Z"
/>
</svg>
